<mxfile host="app.diagrams.net" modified="2023-05-10T21:12:23.756Z" agent="Mozilla/5.0 (Windows NT 10.0; Win64; x64) AppleWebKit/537.36 (KHTML, like Gecko) Chrome/112.0.0.0 Safari/537.36 Edg/112.0.1722.68" etag="RyGNquZdpAr0jeLhyn0w" version="21.2.9" type="github">
  <diagram id="4_XCW6oBCm1cpU5HytLm" name="Page-1">
    <mxGraphModel dx="1474" dy="924" grid="1" gridSize="6" guides="1" tooltips="1" connect="1" arrows="1" fold="1" page="1" pageScale="1" pageWidth="1600" pageHeight="900" math="0" shadow="0">
      <root>
        <mxCell id="0" />
        <mxCell id="1" parent="0" />
        <mxCell id="uX3nckn37POY2VgG7rPa-2" value="" style="rounded=0;whiteSpace=wrap;html=1;dashed=1;verticalAlign=top;fillColor=#647687;strokeColor=#314354;fontColor=#ffffff;fontStyle=1" parent="1" vertex="1">
          <mxGeometry x="203" y="228" width="450" height="528" as="geometry" />
        </mxCell>
        <mxCell id="uX3nckn37POY2VgG7rPa-3" value="Component&lt;br&gt;Markup(html)" style="rounded=1;whiteSpace=wrap;html=1;fillColor=#1ba1e2;strokeColor=#006EAF;fontColor=#ffffff;" parent="1" vertex="1">
          <mxGeometry x="233" y="282" width="120" height="60" as="geometry" />
        </mxCell>
        <mxCell id="uX3nckn37POY2VgG7rPa-4" value="JavaScript&lt;br&gt;Controller" style="rounded=1;whiteSpace=wrap;html=1;fillColor=#1ba1e2;strokeColor=#006EAF;fontColor=#ffffff;" parent="1" vertex="1">
          <mxGeometry x="370" y="281" width="120" height="60" as="geometry" />
        </mxCell>
        <mxCell id="uX3nckn37POY2VgG7rPa-5" value="JavaScript&lt;br&gt;Helper" style="rounded=1;whiteSpace=wrap;html=1;fillColor=#1ba1e2;strokeColor=#006EAF;fontColor=#ffffff;" parent="1" vertex="1">
          <mxGeometry x="506" y="281" width="120" height="60" as="geometry" />
        </mxCell>
        <mxCell id="_SaHxXhYvdPaZlUhFqMO-24" value="" style="edgeStyle=orthogonalEdgeStyle;rounded=0;orthogonalLoop=1;jettySize=auto;html=1;" edge="1" parent="1" source="HkrrA9YoYlj2VY17bmsr-9">
          <mxGeometry relative="1" as="geometry">
            <mxPoint x="388" y="833.3636363636363" as="targetPoint" />
          </mxGeometry>
        </mxCell>
        <mxCell id="HkrrA9YoYlj2VY17bmsr-19" value="" style="shape=image;verticalLabelPosition=bottom;labelBackgroundColor=default;verticalAlign=top;aspect=fixed;imageAspect=0;image=data:image/png,iVBORw0KGgoAAAANSUhEUgAAAgAAAAIACAYAAAD0eNT6AAAABHNCSVQICAgIfAhkiAAAAAlwSFlzAAAOxAAADsQBlSsOGwAAABl0RVh0U29mdHdhcmUAd3d3Lmlua3NjYXBlLm9yZ5vuPBoAACAASURBVHic7N15eF1Vufjx79onaUpH2jIUKEOZJ0GsIAiFToBVr8NVBEFEhSujQCcB9f6s4xUpRQqKXLz3qkwiKAVkKk1aKJMMBdrSllLaAqVj0iRnyBn3fn9/bKpI0mRnZ529T07ez/P06SNkDWrOWe8aX4NSKjbjZ8sRRvgkcBTwEWAUMBQYAvSLs29KqdByQArYAKwFXhV4sdbjyXkzTCberv2TibsDSvU142fJGONwDsLngf3j7o9SKjJ5DA0Cd+Tg/uemmmycndEAQKkoiJjxs/k3A1OBU+LujlIqdluN4WbXMGfhFNMSRwc0AFCqzCZdL8d4cBNwYtx9UUpVnEYDM4fvzW/v/Ypxo2xYAwClymTyHKnLl7gW4TIgEXd/lFIV7dmEyzee+K55M6oGNQBQqgzGXSujEjXcK3B83H1RSvUaKSN8q366uS+KxpwoGlGqL5k4S451Eryqg79SqpsGi+HPE2fLtCga0wBAKYsmXC+fFMMTGEbE3RelVK9kRJg14Xr5YdkbKncDSvUV42bLxx2hARgcd1+UUr2fEa6sn25uLFv95apYqb5k4s0ywsvzooHRcfdFKVU1PIF/WzDNPFKOynULQKkeWvK2DDMF7tfBXyllmWPg9nHXyqiyVF6OSpXqS158l8c9YWzc/VBKVaXhJsH/IWJ9xV4DAKV6oFCSrz+2jGPj7odSqnoZw6SJs/mK7Xo1AFAqJBHZ+/X3uLmpYlJ7KKWqlQf/NXmO1NmsUwMApUIQEQf44+qteuJfKVV+BkYXSnzNZp0aACgVzveAcc1tcXdDKdVXiDDN5lkADQCU6iYRGQP8P4AB/WLujFKqLzls4q/svTBaY6sipfoCERkI3AnUAowaZq/uA3eF04+Ag0fC7oOhf22wci1pl0JB7HVEKfUvciVoTAb/+UzBsCkJyzY5LNtkcD2LnXH5GvCcjao0AFCqe24EDtn+Hz62D9Q4UOrBB3znneDKSTD2oO6Xbct51Bqh1urRIKXUBw2sg2IRCqVgP79TrbDLQDhyD5emNsNfljisbbKzci8On0PkMozpcdSvWwBKBSQiXwDO/+A/G9wfTj08fJ0jh8J/nxtu8C+5QqrN5tRCKbUjg3cKV27EAOH8T7h8dC9Lq3TCqEk3cKSNqjQAUCoAEdkTuK2jf3feCTA0xJfDzjvBL/8dRgwK0x9oTXuIrvwrFYkBdeHfzk8Y+PJRLvvsbOcD63qcYKMeDQCU6oL4p25/B+zS0b/fdTD84DNQ140Ntf618LMvwl4hzxCksx7Fko7+SkXFAP0CnsvpSMKBL37Es5KAx3EYY6EaDQCUCuBKYHJnP/CxfeD6M2DkkK4r22tnuPFMOHRkuM4UikImq0v/SkWtrgcBAMDIIcIBu/Q8cBfhgB5Xgh4CVKpTInIE8LMgP3vYHvB/34AHXoP5y2H11n/+O2P8U/6Tj/T/9Av5yfMEWtNuuMJKqR6pTfS8jiNGCqsbe7gOYNin5z3RAECpHRKROuAuIPAOf78aOGOM/yedh60pP53X8IH+gcGeSqZdu1eKlFKBJSys3+8zzMLWnTC055VoAKBUZ34JHBW28KA6/48t2bxHTu/7KxUbYyEAGFhr5TM8wEYlegZAqQ6IyGnAd+Lux3auKyQzOvVXKk42bt0UPCvvARRtVKIBgFIfIiK7AL8n/K0f61r0yp9SsXMtfAa3pHpeBwYrOUg1AFCqvVuAPeLuxHbpNr3yp1QlKFk4f7tqq4V5hbCh55VoAKDUvxCRC4Evx92P7QolIa1X/pSqCIUeLrxn8vDqexaGXcM7Pa9EAwCl/kFEDgRmxd2P7USgNaVX/pSqBALke/hxfHB5goKdj/RrNirRAEApQERqgDuAEA/zlkcyo1f+lKoUuQJ4Pfg8zn/TYckGO8eKDLxkox69BqiU7yfAJ+LuxHa5gpDN676/UpUinQ1XrujCg687vPSutfl2IeGyyEZFGgCoPk9ETgJmxN2P7VzPf/BHKVUZCiXIhtj/35o23LnYYXPK6oWiJ+fNMFZuAWgAoPo0ERmKv/Rv4ZFPO1rTLl43J/9b0oZ1jfB2s2FDqyGdh7aC/6fc6mph2AA4bHfhE/sJuw/WlQtVXZpDDLeL1xseWGZtz/8fxP++sqJi7jkrFQcRuas1y1fnr4Dn18CGFn/Q3HkAHLgbjD0QTjrIf843CpmsR6ot2Ebj6q2GF982vPSuYVOyMj7KCQfGHehx9rEe/XV6oapAJg9N3bi7X3Bh7tIEr7xXls9kc43H3rZWACrjW0OpGIjI1/76Crf//ln/Q74j+46A6afB4WV+GaBYEra1unQ2f3Y9ePEdw6PLHVbbuE9cJvsMF747yWVY4CwKSlWefBE2twb/+c1pw90vO2xOl+ezKYafL5hqvm+rvsr9BlGqjLIi+9z4GKvmLSfQa/21CbhmMpxycHn6IwJNrS6lTp4aW7bR8McXHN5r6R0f2wN3FX5wumslg5pSUSu6sLmFwNtxz69zeHilY+WxoB1IFms5cNHlZmvXPxqMfjRVnyMizm8X8OrDSxkRtIwn8Nwa+Pi+sEsZLgqm2jzyxY6/aVI5uPWZBH962SGV6x2DP8C2NkP/WjhkNz0ToHqXfBG2JIMN/tki/PnVBIvWOt0+u9MdAj96cop53Gad+g6A6nMWv8PsB19j3+6WK5Rg9hN2EoJ8UL4gtOU63vd/c6vhe3+r4e/res/A/0EPLXMo6VsGqhfJ5P1l/yB3/te3GG5+OsGyTWX/fK7oX8ts25VqAKD6FBEZU7+C74R9YOetrfD3tfb643nQmul4zfCp1Q4/eTzBNivHfeKRycPrlh4/UaqcPPEP+wU58CfAU2scfvtsgm1tZf/9LniGrz96uenkpFI4GgCoPkNEBopw1/NrevZ7//RqWz3yB/+OZhoL3nT472cd3Cp4DmDdNg0AVGUrlPz9/s4OA2+XKcAfXkzw6ArHSnbALhmuWDjVWHn578P0oo7qS25synBwS8gXvbZb02inM5mcR77Q/hukYZXD/z7ndHoboDdpzcXdA6V2LJ2DbelgP7tmm+GeVxIkI/qdNsJv6qeZ35arfg0AVJ8gIl8Azk/2cPAHaG3reR0lV0h3cN9/1WbD71+onsEfYEC/uHugVHue+AN/W4BZvwjUr3ZoeNOxfgaoE78fm+Y79WVsQAMAVfVEZE/gdwCD+ve8vsE9rEMEWlJeuy+SpgzcsDBRFcv+H6QvA6pKUyhBY4pAV/ZSObj71QRrm6LbyjIwp34qVzYYU9YPj54BUFVNRAz+4D8CYMTAns9I9x7es/KpNq/dfX8RuGVRdEuLUTEGjtpLAwBVOZJZ/5R/kMF/daPhpqdrohz8S8DV9dPMFZR58AddAVDVbwoweft/SDhw3GhY+Eb4Ck/YP3zZfLHjK39zlzis2Fx9h+U+OVoYamHVRame8sSf9ecC5MdwBeatdFi0JtLtuHUefHXhNPN8VA3qCoCqWiJyBPCzD//zM8aEfwJz5BAYe1C4sp74iX4+bPVWw/1Lqu+jOLAOvnJMle1nqF4pV4RNzcEG/5Yc3PZcgqciHPwNPFBrGBPl4A+6AqCqlIjUAXcB7eafh46EyR+BR5Z2r05j4DsTCP20bWu6/ZW/XAluWeQQ9l2CSlWbgO+c7Jbl1USlghIg2eb/CTKYL99kuG9JIlTq35DyRriqfhpzoljy/zANAFS1ug44akf/8vIJfua/V98NVpkB/mMsHB9y+b9tB1f+bn/BYZPdXOGx22UQXHayy0G76t6/io/rQWMS8qWuf7bkwWMrHJ5ZF+lK3CoHzpo/3bzC9Cib/afq+uZRChCR04DH6OL3u+TCbxbCg0s6f953cH+4YiKMPyRcf1xXaGx127XxwtuGGxdWRzoOA4weIXxytDDpUE8TAKlYZQv+Fb8gK2uNGcPdix02RJlS23CfU+CC+VebbuQaLEc3lKoiIrILsAQInLx3bSPMfRVeWAtb3n8GNOHA/rv4+/2f/ygMCpQzsGNNrS7F0r+O/s1tcNWDNYFeHuuufYcJJ+wv7DFE2Hkn/79LOdXVwIiBQp2uJ6qYifin/IO+1fHKesPcZQkK0R1VyRrhmvrp5sbIWuyEBgCqqojIA8DnwpYvuv5Tn0P7+3v+PZVq88hk/3UaIgK/eCLBso12P34jhwjfPtHT7HuqTyq50JT2M/l1pejC4ysjX/Jf4RjOnD/VdPP0UflozK6qhohcSA8Gf/APr+28k53+FIrSbvAHeHSFY33w/+hewhXjXfrp0rvqg7IFf/APksFvS8pw9ysRn70x3D5wIBc9dKGx8I6oPRoAqKogIgcCs+Lux3Y7uvL3drPhnpftzjoO2EW4fJwO/qrvEaAlA6mAT3wvXm+YuzRBMbpbNymECxummbsja7EbNABQvZ6I1AB3AhVz6SyZcdsdQCq6/pW/ksUvnwH94PJTXN1/V31OyfVP+QfZv8+X4P6lCV6LNjX1y57hrIXTjMX8oXbp14aqBj8Bjou7E9tl80Iu334f/s6XHN5ttvsF9I3j9a696nsyeWhO+yttXXmv1T/l39QW2eAvBm4anmLGvTNNgKeH4qMBgOrVRGQsMCPufmznekIy035KsuQ9w/yVdpf+T9xfOHG0HvhTfUe3MvgBz611eGRlpA9ttRrhgvrp5r7IWuwBDQBUryUiQ4HbgYrZ/W5Nt8/yl8zDrc8krD4rOnwgnHecPrOr+o5iCRrT/t9dyRTgvtcSrNwS6ZL/CzUeZ82bYdZG2WhPaACgerNbgH3j7sR26axHofihLH/AbU8naAl4SCkIY+CSsS4De/A2gVK9SSbvz/w7e7Bru3eb/VP+zdlol/xbBjH95QtNdI8IW6ABgOqVRORc4Ktx92O7YklIt7VfZ5y/0mHxertfRF84yuOw3XXpX1W/UEv+Kxzc6D4eW43h6/VTzWORtWiRBgCq1xGRvYGKeEkL/FlJa7r94L+h1XDXS3b3/UePEL5wVJVlDlKqA4WSf8o/yK2ZTB7+/FqCVVsjXfJfUHQ4Z9EUszHKRm2qvhykqqqJiIO/7z8M/Os9LVn/il1ckhmP0oemHCUPbn7SsfrEaF0NXHayR41+alWVS2ZhU2uwwf/NRsOvnqqJcvAvAT84OcWk3jz4g64AqN7n+5uSnPLwEnjmLXi7yf+HNQ4ctDt8fF/40sf8BD5RyBWEbL79t9SfFzu8bfnK39eP8xg5RJf+VfXyPGhKESgdryfwxCqHJ99yAp0NsEHg3YRw9vzp5umGaJosK80FoHqNTEGOffAVnvvj8yQ6S/E5qM5P3fvZHSYDtsP1oKml1O4u8srNhp8+nrD6pfTxfYQp4/XUv6pe+SI0poJl8GvJwZ8WJ6wH2Z0SHjL9+Wb9ZaYpukbLSwMA1Sts3SqDf/UM7z33FoODljn3ePjGJ8vXp21Jt92p/7YCXP1gDU0Ze+0MGwC/+FypRxkJlapkySy0Zgh0VXb5ZsN9ryUCrRJYUgCuapjKjRhTVUtwugWgeoUfPcGtyzcGH/wBbn8edhsMn/6I/f5kOrjyB/A/zyesDv7GwEUnuTr4q6rkir/knwvwXl7Jg8dWODy7zrH6pkYX3vIMZy2cal5iWnSNRkWPE6mKN3G2jF2+ka+EKXvrU5DK2e3Pjq78LXzT4fm1dhfVPn24x5F7VNWkQykAckXY1Bxs8G9qM9zyTIJnIhz8Be6pq+VjC6ealyJqMnK6AqAq2qRfyFBP+CMhX/tL5+HJVfbOA2y/8vfhL6EtacMdL9qNp/ceJpxxjF75U9VF5P0l/4CJcZdtMvx1SaRL/jkjXN0w3VTMVeNy0QBAVTSvlt8A+/WkjufW2AsAUm3tr/y5HvzmKcfqF1RtAi4d61FbMY8cK9Vzrgtb01AI8FkpufDYSodn1kW6UL1S4KyG6ea1KBuNiwYAqmJNuF7OAM7uaT1rGy10BsgXhbZc+xn5/Usc3rR8B/mcj3vsPUyX/lX1aCv4r/p5ARa1tqT953w3JSM8p264vcbl4nkzjMVTPJVNAwBVkcZdK6OAW23UlbcwM/c8aE23v4a3aovhgSV2ZyhH7SVMOlSX/lX1aM5AKmA+jMXrDQ8sS1h9RKsLaQMX1081d0TWYoXQAEBVnDP+LImmd7mL91/766n+tT2vozXjtpu55Epw69NOoJzkQQ2pgwtPdPV+rqoKJRe2JoO91Jkvwf1LE7y2IbrffiO8iuHM+mlmVWSNVhANAFTFaXqXq4Gxtuo7Ys+elW/LeeQL7Uf5/3s+waaUvS8rA/zHSS4772StSqVi0/Z+Br8gAfKGpOGuxQ5NmWiX/AcM4qKHLjQBjyNWHw0AVEWZOEuOFfihzTo/1oOEwSVXSHVw5e+FdYan37L7ZTXpEI+PjdJ9f9W7CdAScMlfgGfXOTy2wgn07r8lLSKcv2Ca+WtkLVYoDQBUxRj3axkkee5EsLBo79t1MIw/JFzZf1z5+9CYvC0Dv3ve7vH8PYcKZx+r+/6qdyu6/sM+hU6e6t4uW4T7XkuwfHOES/7wvOvw1YVTzLrIGq1gGgCoiuHkuAE4yGad35ngZ9ELI531KJb+dfQXgVueTpAJkJ88qBoHLj7Jo59e+VO9WOb9Jf8gOTDWNRvuWZygxfIjXZ0QI8xqGcz3X77QRPeiQIXTAEBVhImz5AsCF9is8zMfgRMPCFe2UBQy2fYz8geXOSzfZHfGcsbHPPbfRZf+Ve/kCTSnCRQUC/DcWodHVji40f3KNwqc1zDdPBJZi72EBgAqdqdeK3u6htts1rnnznDRKeHKetLxlb912wx/ec3ulb9Ddxc+fbgu/aveqVDyl/yDnPJPF/wl/ze2RHrH5UkM5yyYat6LstHeQnMBqHiJGLeW3wG72Koy4cD3JsOAfuHKJ9Nuu5SkBRduftLBtXg3eUA/uGSsi6N3/lQvlMzCptZgg/+aJsOcRTVRDv4ecO2IvZnYoIP/DukKgIrVxNlMEZhss85vnACH7RGubDbvkevgyt/tLzhstPwq2fnHu4wYaLVKpcrOE3+vvy3Ikr9A/WqHhjedQGcDLNmM4esNU828yFrspTQAULEZP1uOEOFnNus8ci8467hwZV1XSGbaL8e/9K6hYZXdxbJTDvQ4frTu+6vepVCCxpT/wE9XWrPwp1cTrNsW3RKXCPPF49yF3zWbImu0F9MtABWLyXOkzsBdQH9bdQ6sg2smE3pJvaWDK3/JHPzvs3aP5+82SDj3ON33V71LMgubW4MN/qsbDTc/XRPl4F8CfnRKmtN18A9OVwBULPJFrgMs5ejzXTERRg4JVzbd1sGVP+DWpxO0WryqlHDgkpM9drL20oFS5eWJP+vPFYL9bEP0S/7viMPZC6aYZxoia7I6aACgIjdhtpyGcJnNOiceBhMPDVe2UBLSHVz5e3y5w6vv2Z3BfPEoj4N21aV/1Tvkiv4p/w8fiu1ISxbuXpzgnZZIT7XOrTWc//gUsy3KRquFBgAqUmPnyK6myO8Fe/ludh0M3xkfrqwItKbar2mubzHcs9juDtnBuwmfP0qX/lXlEyDZBq0BX8l/fZPhL0sSZKN7YidvhKvqpzEHYzSiDkkDABWp2iK/Ewh5Rr89Y+CaT8HgkCcJkpn2V/5KHvx6kWM1HWn/GrjwRE+v/KmK53rQmPSz83Wl5MJjKx2eWRfpcbJVnsOZC6eYV5keZbPVRwMAFZkJ18vFwOds1nnOcXD03uHK5gpCNt9+8nD3yw7vWD689M3jXUYO0YmKqmzZAjSlaZf6uiNbM4a7F9u/Htspw31OgQsarjat0TVavTQAUJEYN1sORPilzToP3h3OPSFcWdfzH/z5sKUbDI8vtzubOW5f4aQDdPBXlUvEP+UfdMl/8XrDA8sSVlfJupA1wjX108yNkbXYB2gAoMpuzK1S66S5Exhkq87+tfD9T/uJdMJoTbvt8pSncv6pf5tD9fCBcMEJ0X1LKtVdJdef9ecD7N8XXJi7NMErlg/HdmGFYzhz/jSzNMpG+wINAFTZDUnzUyDk8zwdu2w8jBoWrmwm61Eoth/m//fvCZoD5DAPyhi46ESXgXX26lTKpmwemjLBlvw3pw13v+ywOR3pkv/tAwdy0UMXmoBrE6o7NABQZTVxtowVYZrNOk88ECYfGa5ssSSk29p/2zWscnhhnd0vts8d6XHEHrr0ryqPAC0ZSAUMeBevN8xdmqAY3SWWFMKFDdPM3ZG12AdpAKDKZtwNsrN43AFYe0pvxCCYflq4siLQmvbaLfFvShnufNHuvv9+w4UvHa1X/lTlKbn+Kf8g+/f5Evx1aYIlGyJd8n/ZM5y1cJpZHWWjfZEGAKpsHJdbMOxjqz4DTD8VhoS88pdq8yh9KAm568EtixxyAa48BdUvAZee7JGw+4KwUj2WyfuJfIK80re+xXD3Kw7b2iIb/MXATcNTzLh3pgnw7qDqKQ0AVFlMnC3niXCWzTq/PAaOGx2ubL4gtOXaz8jve9Vh9Va7X3DnHuex51Bd+leVo1sZ/IDn1jo8stIJ9AKgJa1GuKB+urkvshaVBgDKvtOuk9ElYY7NOvcbAd86MVxZz4PWTPv1zje2GP62zO7S/9GjhPEH69K/qhzFEjSm/b+7kinAva8leGNLpEv+L9R4nDVvhlkbZaNKAwBl2biZUlMy3AmETMvTXr8a/8pfv5C/ra0Zt90p57YC/GZRot1VwJ4Y0h8uPNG198axUj3UnSX/NdsM97ySIGkx+VUXxMBNLYOY/vKFJrpHhNU/aACgrHIG8wMg5PM8HbvwZNh/13BlMzmPfKH9t9//PZ+gMd3Djn2AAb59ostQa8mNlQqvW0v+Ak+tcXj8jUgz+G01hq/XTzWPRdaiakcDAGXNxFlyrMD3bNZ57H7w+Y+GK1tyO77yt+gtw7Nr7c7TTz/c45hRuu+v4lco+af8SwF2otIF+PMrCd5sjHTdakHR4ZxFU8zGKBtV7UWawUFVr3G/lkHicCdgLdP9zjvBd08PlzZQBFpSXrsZzdaU4Q9/t3s8f6+dhTM/pvv+Kn7JLGxqDTb4r240zHmqJsrBvwT86OQUk3Twrwy6AqCsMFluxnCQzTqnneY/pRtGR1f+RODWZxyrKUtrHLh0rEc/vfKnYuR50JQi0O+2J9Cw2qHhzQiX/A3rDZxdP9UsaoioSdU1DQBUj42fJf9uDOfZrPNzR8MnDwhXNl/s+Mrf3CUOKzbbne18dYzHvsN16V/FJ1+ExhSBruy15OCexQnWNUe45C88ZOr4Zv1lpim6RlUQGgCoHpkwW/ZCuM1mnfsMh4tOCVfWEz/Rz4etaTLMXWJ3x+sjewqnH65L/yo+ySy0ZgiUwGr5JsN9SxJWV8C6UAJ+dnKaH8+cbvSDUoE0AFChzZwpzlPwR2C4rTprHLj6U1AX9spfuv2Vv3wJfv2UE2hfNKjBeuVPxcj1/Ax+uQDv5ZU8eGyFw7PrHKuZLrvwtgdnLZxmntcl/8qlAYAK7anBzECYYLPOb50Eh4wMV7ZtB1f+/vB3h01Ju0P1Nz/hMmyA1SqVCiRX9Pf7gyz5N2YMdy922GD5979Thr96hvMXTjEt0TWqwtAAQIUy6Xo5xoMf26zzqFFwxphwZV1XSHVw5e+ldwxPrra79D/hYI9P7Kf7/ipaIu8v+QdMjPvKesPcZYlASX8syRnh6vpp5sbIWlQ9ogGA6rZxM6W/5y/997NV56A6uGYyOCEnKi3p9lf+mtvgtmftHs8fOVg4++O6nami5bqwNQ2FAPv3RRceX+nwzLpIb3mvNB5n1s8wS6JsVPWMBgCq25xB3AAcabPOKyfBboPDlU21eRRL7a/8/fbpBOkAL6EFlXDg4rEeO1l76UCprmUL/n7/h8+2dGRLys/gtykV6ZL/7TUuF8+bYTLRNaps0ABAdcuEWTIZw4U26zz9CBh/SLiyhaKQybb/Znx4ucOyjXa/BL/0UY8Dd9WlfxWd5gykssF+dvF6w9ylCYrRLVClDFxSP9XcEVmLyioNAFRgp10nu5UM/0e4x/k6tMdQuGx8uLI7uvL3brPhvlfsLn8evLvwb0fq0r+KRsmFrUl/Ob8r+RLcvzTBaxsivZPyuhjObJhqXo+yUWWXPgWsghExJYf/AXa3VWXCge99GgaEPEmQzLjtTkIXXfj1IifQF2dQA/rBpSe5oc8nKNUdbXnY1BJs8H+v1XDToogHf8PtWcOxC3Tw7/V0BUAFMuF6LsPwWZt1fu0TcPge4cpm80Iu3345/s4XHd61/MrZN4932WWQ1SqVakeAloBL/gI8t9bhkZVOoOuAliQNfLt+qrknshZVWWkAoLo0cZYcLoZrbdZ5yEg4+xPhyrqekMy0nx4tec8w/w27i1onHSB8crTu+6vyKrr+3f5CqeufbSvCva8mWLkl0iWpFx2Hs+ZPMWuibFSVlwYAqlOT50hdvshdwE626typFr4/2X/1L4zWDq78JfNw6zMJqy+dDR8IXz82ukvUqm/K5GFbmkCJed5t9k/5N2cjG/zFwE3DU8y4d6YJ8O6g6k00AFCdyhX5uYGjbdZ5+UTYa1i4sumsR6HY/pvytqcTtAQ8LR2EY+A7J7sMrLNXp1If5Ak0p/0AoCv/WPJf4eBGtyDVKHBewzTzSGQtqkhpAKB2aNINMsnzuNJmnScfBKcdHq5ssSSkO3jt75X1hsXr7c6IPn+Ux8G76dK/Ko9CyV/yD3LQL5OHP7+WYNXWSJf8n8RwzoKp5r0oG1XR0gBAdeik/5Jhrsf/Gos3RXYdDFNPDVdWxF/678gjr9vd999/hPCFo/TKnyqPZBZa2giUwu+tRsOfX02QtPigVRc84LoRe/P9e79idP+rymkAoDrUr5bfAnvbqs8YuOp0P4teGMmMR6mDtc9MHlZutjcz6l8Dl57ihT6foNSOeO9n8MsG2En3BBpWOzS86QQ6G2DJZgxfozRyKwAAIABJREFUb5hq5kXWooqVBgCqnQmz5AIMX7FZ51nHwjH7hCubKwjZfMcz8g1Jg2fxC/Lrn/AYOViX/pVd+feX/EsB5tStWbj71QRvb4tuyV+E+eJx7sLvmk2RNapip/Mc9S8m/FIOwDDbZp0H7QbfOCFcWdeDZAev/W0XZDYV1HH7CqccqEv/yq5kFra0Bhv8V2w23LioJsrBvwT86JQ0p+vg3/foCoD6h3EzpYYa7kQImZanvboa/7W/mpBJ+VrTbqcz/LCvCH7YsAFwwQm65ansccWf9ecCBKmuwBNvODz1lmP1KmsX3hGHsxdMMc80RNemqiAaAKh/cAYzEyHk8zwdu2Qc7DM8XNnMDq78fdDew4QaB0o9mLgbAxedpFf+lD25oj/4B3mlrzkLf1qc4J2WSE/5z601nP/4FLMtykZVZdEAQAEw/gY5EY+rbdZ53Gj4zFHhyu7oyt+H1dXAYSOFpT14C33yYR5H7qH7/qrnRPwl/9a2YD+/bJPhr0sSZIvl7dcH5I1wVf005mCM/tL3cXoGQDHpFzLUeNwBhFyob2/nAfDd08OlDdx+5S/ot1NPsvTtPUz4ysd031/1nOvBlmSwwb/kwt9ed7jz5UgH/1Wew/H1082NOvgr0ABAAV4tvwH2s1WfAWac5u+rh5Fq6/jK344csYdwcojDewP6weWneNRaC3tUX9VWgI0tkA8wmG9JG379bIJn1kX49Wu4zyly3MIp5tXoGlWVTrcA+rgJ18sZwNk26/ziMXD8/uHK5otCW677g/k3j/dobjOBtwLqauDKcS57DtWJkApPxJ/xJwM+Q714veGBZQkK0Z03zRrhmvpp5sbIWlS9hs59+rBx18oo4/AIFhP97DsC/t9nwyX68TxoTrmhHj5JOHD8aMH14K0m02kd+w4TZkzyOHBXHfxVeCUXGlPQFuCVvnwJ/rIkQcObkb7lv8IxnF4/zTwYWYuqV4n02KmqHDNnivPkEOqNMM5WnbUJ+PXZcMCu4co3p1zyhZ5/O25OGZ5abXjtPcPmlKHkwqD+cMiuwvGjPcbsLRj9zVc9kM1DY8AMfhuShrsWOzRlIvylM9w+cCAXPXShCXgcUfVF+jXYR024Xr4P/NRmnRefAl8eE65sW84jmdHDeKqyCdCSgVTAJf8X3nF46HWnR9dUuymJcFHDdHN3ZC2qXkvPAPRB42fJGOD/2axzzL7wpZCDf8kVUgGu/CkVp+1L/oVS1z+bK8JflyZYujHSOdbLnuGshdPM6igbVb2XBgB9zGnXycAS3AlYekPPT/Az47QeXvnT7XhVwTJ52BZwyf/dFsPdrzg0t0U2+IuBm4anmHHvTGPxcWxV7TQA6GNKDr8CDrFZ55RJfqrfMNJZj2JJR39VmTzxB/4gB/0EeG6twyMrIj3o12qEC+qnm/sia1FVDQ0A+pCJs+QLAhfYrPMzH4FTDg5XtlAUMlld+leVqehCY9L/uyvpAtz3WoI3tkR60O/vNS5fnTfDrI2uUVVNNADoI069VvZ0DbfZrHPPneGiU8KV9cRP9KNUJcrkYVuKQK9Rrmky/OnVBKlc2bu1nRi4qWUg01++0ET3jqCqOhoA9AUixr2B3yHsYqvKhAPfmxw+G18y7QZKlKJUlLq15C9Qv9qh4U0nyjMsW43h6/VTzWORtaiqlgYAfcDE2UwRmGyzzm+cAIftEa5sNu+Rs3DfXymbCiV/yT/Ilb3WLNzzWoK1TZGe8l9QdDhn0RSzMcpGVfXSXABVbvxsOULgZzbrPHIvOOu4cGVdV/S+v6o4ySxsag02+K9uNNz8dE2Ug38J+NHJKSbp4K9s0oeAqtjkOVKXL/ECQsikvO0NrIP/PhdGDglXvqnV1VP/qmJ4Ak1JAmXk8wQaol7yN6w3cHb9VLMoohZVH6JbAFUsX+Q6sDf4A1wxMfzgn27TK3+qcuSK/kG/ILP+lizcvTjBOy0RzpmEh0wd36y/zDRF16jqS3QLoEpNmC2nAZfZrHPSYTDx0HBlCyUhrVf+VAUQ/Ax+WwMu+b++yTBnUU2Ug7+/5J/mCzr4q3LSLYAqNHaO7NqvyGsCIY/ptbfrYLjtXP/Vv+4SgcaWkp76V7FzPf+UfzbAe3klFx5b6fDMukjnSW97cNbCaeb5KBtVfZNuAVSh2iK/szn4GwPXfCrc4A+QzOiVPxW/XBGaUgT6XdyaMdy92GFjMtKHff7qGc5fOMW0RNeo6ss0AKgyE66Xi4HP2azznOPg6L3Dlc0VhGxe9/1VfET8U/6tARPjLl5veGBZgkJ071TljHB1/TRzY2QtKoUGAFVl3Gw5EOGXNus8eHc494RwZV3Pf/BHqbi4LjSmIR/glH/BhblLE7zyXqQ7oyuNx5n1M8ySKBtVCjQAqBpjbpVaJ82dwCBbdfavhe9/GmpCboG2pl08nfyrmGQL0JQGL8CS/+a04e6XHTanI13yv73G5eJ5M0wmukaV+icNAKrEkDQ/BUI+z9Oxy8bDqGHhymayHoWijv4qegK0ZCCVDfbzi9cb5i5NUIzunErKwCX1U80dkbWoVAc0AKgCE2fLWBGm2azzpANh8pHhyhZLQrpNT/2p6JVc2Bowg1++BH9dmmDJhkiX/F8Xw5kNU83rUTaqVEc0AOjlxt0gO4vHHUDCVp0jBsG008KVFYHWtBcoi5pSNmXy0Jwm0LbT+lbDn15xaMpEu+SfhQufm2oCrk0oVV4aAPRyjsstGPaxVZ8Bpp8KQ0Je+Uu1eZRcHf5VdLqz5C/Ac2sdHlnpRHk1NWng2/VTzT2RtahUABoA9GITZ8t5Ipxls84vj4HjRocrmy8IbTld+lfRKbrQmIJiqeufzRTgviUJVm6OdMn/RcfhrPlTzJooG1UqCA0AeqnTrpPRJWGOzTpH7wLfOjFcWc+D1oxe+VPRyeT9V/2CJOZZs81wzysJkrny9+t9YuCm4Slm3DvTBHh3UKnoaQDQC42bKTUlw51AyLQ87fWr8a/89Qv5G9GacQNdt1KqpzyB5pQ/o++KCDy1xuHxNyLM4AeNAuc1TDOPRNaiUiFoANALOYP5ARDyeZ6OXXiyvwIQRibnkS/ovr8qv0IJGpPBkvikC/DnVxK82Rjdkr8YFtYUOeeJq8yGyBpVKiQNAHqZibPkWIHv2azz2P3g8x8NV7bk6pU/FY1kFlraIMgVk9WNhj+/miCVL3u3tnOBn+4yip/c+xWje2GqV9AAoBcZ92sZJHnuRKi1VefOO8F3Tw+XFlIEWlJelEurqg/yPP9FvyAZ/DyBhtUODW9GuuS/2Qjn1k83T0TWolIWaADQi5gsN2M4yGad00+H4QPDldUrf6rc8iVoSgklt+sQtSUH9yxOsK45wiV/Yb54nLvwu2ZTZI0qZUmkia5VeONnyb8bw3k26/z80XDC/uHK5ot65U+VVzILW1oJNPgv32SY81RNlIN/CfjRKWlO18Ff9VaRXohV4UyYLXshLAGG26pzn+Hw269BXYg1IE+gsaWkp/5VWbgCTSnIBVjyL3nw2AqHZ9c5Ub4++Y44nL1ginkmuiaVsk+3ACrczJniPAV/xOLgX+PA1Z8KN/jD+1n+dPBXZZAr+oN/kFf6GjOGuxc7bEhGOo+ZW2s4//EpZluUjSpVDhoAVLinBjMDYYLNOr91EhwyMlzZNr3yp8pAxF/yb20L9vPLNhr+sjRBrljefn1A3ghX1U9jDsboB0BVBd0CqGCTrpdjPHge6GerzqNGwfVngBPi/3nXFRpbXT31r6xyPf8533yAwbzowuMrHZ5ZF+nxpVWew5kLp5hXo2xUqXLTFYAKNW6m9Pf8pX9rg/+gOrhmcrjBH6AlrVf+lF1tBf853yBbSlvThjsXO2xORZvBz6vjkoWXmnR0jSoVDQ0AKpQziBuAI23WOWUS7DY4XNlUm0expKO/skPEX+5PBkyMu3i9Ye7SBMXozp5kjXBN/TRzY2QtKhUxDQAq0IRZMhnDhTbr/NQRMO6QcGULRSGT1VN/yo6SKzSlTaAl/3wJ7l+a4LUNke5WrnAMZ86fZpZG2ahSUdMAoMKM+6WMxPB7LJ7P2HNnuHR8uLKe+Kf+lbKhLQ9NaRNoK2lDq7/kv60twod94NacYcpzU03AtQmlei8NACqJiHFmcxuwm60qE46/7z8g5EmCZMYNdCVLqc4I0JKBVMBhddVWw12LE+RLZe3WByURLlow3dwdWYtKxUwDgAoy4Xouw/BZm3Weezwcvke4stm8kMvrvr/qmZLrn/IvBBzM1zYZ/vhSIsrA82XPcNbCaWZ1ZC0qVQH0KeAKMX62HIHhWpt1HrEnnH1cuLKuJyQzuvSveiaTh40twQf/lhzc/nJkg79guGFEik8unKqDv+p7dAWgAkyeI3X5IncCO9mqc6dauOp0fwsgjFa98qd6wBP/el9bN9Px/u31BNkoHvcRmozhG/VTzd8iaE2piqQBQAXIFfm5gaNt1nn5RNhrWLiy6axHoaijvwqnUPKf8y12cwHpnRbD65vKf+BP4Olaw9nzppl3y96YUhVMXwKM2aQbZJLn8TgWt2PGHQL/+ZlwZYsloalVl/5VOJk8bEsRKjHPva8mWPxemb+SDEvw+AWG6I4XqnbEUMDQiKGxv8O6Ry833VwrUjZoABCjiTfLCMmzBNjTVp27DobbzoXB/btfVgSaWl1Krs7+VfcI/kG/bMivcRH40byaKE/9q8qRBZ7H0OAk+OP8K8w7cXeor9BDgDGSAv+NxcHfGLjmU+EGf4BkxtPBX4XSk8EfYGPS6ODfd+0EjEf4iVdizcTr5b4JN8jH4u5UX6ABQEwmzJILEP7dZp1nHQtH7x2ubK4gZPN64V91X6HUs8EfYGvGTl9Ur5cQ+BIeL06cLbeeeK2EfLxcBaEBQAxO/aUchOEGm3UevDt844RwZV0PkvranwopyJO+XckWdDdS/QtHhG/XJXhx0g2yf9ydqVYaAERszK1S6ya4Axhkq866Gvjep6EmEa58a9rF05V/FZKxMHYb/SZSHTEc4nk8O36WjIm7K9VIP3YRG5rmh0DI53k6dsk42Dvklb+MXvlTPdS/tueniQfW6u+g2qHdjeGx066T0XF3pNpoABCh8TfIicDVNus8bjR85qhwZYslId2m+/6qZ2oSMKiHT1jtrju9qnO7lBwenjxHhsTdkWqiAUBEJv1ChhqPO4CQC/XtDR8IV30q3OxL5P3X/mx1RvVpwwbCzgPACbkUsMsgYVDIhFWqzzgsX+SncXeimujJm4hMuF7uBM62VZ8BfvoFOD7k8ZhkxqMtp7N/ZZeIf6g0zJmSO19ymP+GzklUp1zHcMz8qWZp3B2pBvppi8D42XI2Fgd/gC8eE37wzxdFB39VFsb4WwL9arr/5/TDxMqBQlXVEp7Hz+LuRLXQAKDMxl0ro4xws8069x0BF4wNV9bz/FP/SlWaPYcK4w/SwFR1wfDpcdfKqLi7UQ00ACijM/4sCaeGu4CQZ/Tbq03ADz7tX/0LozXj4ul3rKpQXx3jsYu1C7KqSiWcGs6JuxPVQAOAMtr2DlcBIefqHfuPsbD/ruHKtuU88gU99qcq14B+MH2CywA9EKg6FzLdmfogDQDKZPwsGSOGH9qsc8y+8O8hX8guuUJKr/ypXmDvYcIPTncZPjDunqgKdszMmaLjVw/p/4BlcNp1MtA43A1Ym8cM3QmuOr2HV/508q96iX2HCz/+dIljRukvrerQoIWDODjuTvR2GgCUQcnhVwgH2axz2qkwIuTeaDrrUSzpF6nqXYYNgOkTXb470eXIPUTvLKt/kXAIuRmqtgt5lEztyITZ8kWEC2zW+ZmPwIkHhitbKAqZrC79q97r6FHC0aNcmjKwfJNhTaMhmTOke5iBUIWTL9KjB8Q8gXXbTM/zj3iETHyuttMAwKJTr5U9XeG/bdY5apj/1n8YnuiVP1U9RgyEsQcIYw/Q1aw4bdgGpZBzivWthvuXOFaSj4mOXz2m/wPaImLcG/gdwi62qkw4cPWn/GQrYSTTLq5O/pVSlngSbvAvuNDwpsNTaxxrZ5GM8J6dmvouDQAsmTibKQKTbdb5jU/CYXuEK5vNe+T0yp9SyqJcoftlVmwxPLAsQWvWcl881tqtse/RAMCCidfJUQI/t1nnUaPgrGPDlXVdIZnRqb9Syq5UNwbxbW2GB193eGNLWY5vvv3MVSZVjor7Eg0AemjyHKnLl7gdoc5WnQPr/KX/sJnVWvTKn1LKsmwe8qWuf84V+Ps6h8ffcCiU6QiSER4uT819iwYAPZQvch1wlM06r5wIu4fMep1u0yt/Sim7ii40prv+uXXbDPcvc9iSKu+lTc9oAGCDBgA9MHG2fEqEy2zWOekwmHBouLKFkpDWK39KKYuyBWhK0+mqYlsRHl3h8PK7To+uCAa0RlLMK38z1U8DgJD+7VYZkElzC+Ee5+vQroPhsvHhyopAa0qv/Cml7PA8aGmDdK7zn1u60fDgsgTpEAcEwxDh2oUzTYDNCNUVDQBCyqT4MYb9bNXnGD/L3+CQT1skM3rlTyllRyYPzWk6va+/NW2Yu9RhzbZI32hc2b8ff4iywWqmAUAIp10nu5UMl9qs85xPwJF7hSubKwjZvO77K6V6puTCtjTkijv+maILT65xeHK1E/pBoJBKGM579HKjb0BaogFACCWHi8HeM5SHjoRzjw9X1vX8B3+UUiosAZJt0NrW+c+92Wh4YJlDUyaWzAw/aJhqXoij4WqlAUA4X7dV0U618L1P+6/+hdGadq08q6mU6ptyRX/WX+pkHpHMw8PLEyzZEE9KJoFfLphmro2l8SqmAUA3nfpLOciF/W3Vd+l42GvncGXbch6Foo7+Sqnucz1oyfj7/TsiAs+/4/DEGw7ZTrYFykjwB/+rY2m9ymkA0E2uwym26jr5IJh8ZPjyeuVPKRVGOucP/p2tHm5I+of83m2JLRFzsxG+VT/dzI2rA9VOA4BuEsNBNj4OuwyCKaeGL18oCp6O/0qpbii6sC3V+Yt+BReeWOXw7Fo7WfvCMIaHTYJL5l9h3omnB32DBgDdZIT9enrz3xi46lMwpAfHCAv62p9SKiAR/4BfKkunD/Us32R4cLn9xD3d8J7AFQ1TzV9i60EfogFANxlDXU+H3uNHw6A6WLU5fB2ZLOQKsS3NVaSdamHoTsJOIdMnK1WNsgXYlgG3k0N+LTl4cFmCFZtj+05xMdycL/KfmuQnOhoAdJNYePnvuTX+n54JeW2gDxg5RDh8pDB2f+Hg3XWlRPVNrucP/NlODvl5As+sdZi/qnyJe7pi4CVxuLBhilkcTw/6Lg0AuslAow4plW1T0rApaWhYBQfvJpz9cY+DdtX/11TfIAKpnH+vv7M9/HdaDPcvddiUjG3Wn0T4wfB9+M29XzH6mEkMNADoJoEez91VdFZtMfz40QRfPMrji0d7GN01UVWsUISmDBQ7OeSXLcJjKx1efNeJM234vYkSVz5xldkQWw+UBgDdZlgSRborZY8n8JfXHLZm4Nuf1CBAVR8RP3FPqovDe6++Z3h4eXSJezqwBuGyhunm0dh6oP5BA4BuyhdZWFdDAegXd19U9zy12mFgHXzt43p/UlWPtvcT97idTEyaMoa5yxxWN8YW/RYNzGoz/OS5aSa+OwbqX+hcKIQJ18s8oAe3+FVcDDB1osvHRukyjurdiq7/mE+2k9l8yYOn3nJY8JbT6VO/ZbbICBfVTzfLY+uB6pAeJQ9BDL+Ouw8qHAH++ELkWcyUskYEklnY2Nz54L+2yTBnUYInVsU2+Dcb4cqTU4zTwb8y6RZACLuM4m9N63kT4aC4+6K6b2vKsGi1w/iDNQpQvUu+CE1dJO7J5OHhlQleXW/iOq4kwB88YcbC6aaxPp4+qAB0CyCk8dfJZ4zD3+Luhwrn8D3gui91/+tRBEolIZv3NAujikygxD3Ai+84PLYytsQ9ACvEcPGCqebJ2HqgAtMAoAcmXi/3CXwp7n6o7jPA/ZfA4JDPMXseNKdcivoksyqzTB6aM3Sa+2NTyvDAUod1zbF9pWeBn41Icd29M018dwxUt+gWQA+YIudLLUcAh8bdF9U9AqzcBMfuF66848DOgxM0tpTivEutqlih5A/8+U5m80UP5q9yeGaN0+ktgHIy8Li4XNrwXfNWPD1QYWkA0APzrzatE6+XzwMLBfaIuz+qe7b28MXxhAN1/Qy5vEYAyp7th/xas3SauWflZsODrzs0Z+OZ9RvYiGFq/VTzp1g6oHpMbwH0UP00s0pcxgqsjbsvqnsyFhYqaxzdRVP2ZAuwscXP3LejwT+ZgztfTvCHlxJxDf6eEX5jihymg3/vpisAFjR817w1do58orbI74DPxd0fFUx/C1kD9SCgsqHkQWtXh/wEnlvnMG+VQ76Tp37L7BUMF9VPMy/E1gNljQYAliy63GwFPj/hevmGwI8N7B13n1Tnhg/oWXkRyBX0KqEKL2jinvWthvuXOGyIL3FPWoT/J2luWjjTxBd+KKt0/bIMxs2U/onBnA98Q+DjcfdHdexP/wG7Dg5fvjXtkc1rAKDCKZRgW9r/e0fyJXh8pcPz78SauOd+r8TlC68y62PrgSoLDQDK7NRfykFeDScDx4lwADAcGBpzt3qbXYEeDNXt7TsC/ve88OUzOY9URgd/1X2e+Hv86WynZ/xYstHwt+UJUrnIuvZhb2P4TsNU81BsPVBlpQGAqmjjZsmhjuFZYJjNei84Cb56XLiy+YLQnNL05ar7sgV/1u92Ejtua/NP97+xJbav5xLwqxqPmfNmmExcnVDlp2cAVMWaeLOMkAIPInYH/8H94bNHhStbLAktaR38VfeUPH/gz3Vy88QV+Ps6h8ffcCjE9yv2sme4aOFU81JsPVCR0QBAVaTJc6Qun+cBsJ9v4bwTwr0A6HnQknL14R8V2PZDfq1tdPp7s26b4f5lDltSsc36mw1cMzbFbTNnGt3b6iM0AFCVR8TkZvM/Bk60XfUnRsMXjgnTJf/p386WbpX6oHwJtqX8tL070laER1c4vPyuE1fiHgTudBJMq7/SbNbEPX2LBgCq4kyYzQ+Bc2zXu/cwuGZyuIMvrWl9918F43nQ0gbpTg7vCfDKesOjKxKk43s5/y0MlyyYaubF1gMVKz0EqCrK+NnyFSP8Ccu/m0P6w81fhb1CnCZIZTwyOZ36q65l8tCc7vxOf1PGMHeZw+rG2L5+i8BsL8XMhTNNfHcMVOx0BUBVjPE3yInG4w9YHvxrEvDDfws3+GfzOvirrpXc9w/5dZa4x4Un1zg8udqhFN+v1JOOw8Xzp5gVsfVAVQwNAFRFOO06GV3y+CsQMkFvxwww/VT4aIh3GQtFIZnWwV/tmOC/4tfa1vnPrWkyPLDMYUs6tln/NhGuWTCN2zBG97IUoFsAqgJMniND8kWeAY60XffXT/BP/XdXyRW2tbr61r/aoVzRn/WXOjnkl8rDoysTvLI+tq9awXCH5zF14XTTGFcnVGXSFQAVqzG3Sm0+zX2UYfA/5WA/AOguT6A55engrzrketDSVeIe/EN+Dy9P0NbJtkCZLQUuaphqno2tB6qiaQCgYjU0zY3AqbbrPWQkXPWp7i9xiUBz0sV1dfRX7aVz/uDfWXC4MWmYu9ThnZbYZv1twHUjUvz83pkmvjsGquJpAKBiM362zEC42Ha9I4fAz74AdSF+u5MZve6n2iu6/p3+ztLwFj2oX+WwaI0T2+qRMTzsGi5bOMWsi6cHqjfRMwAqFuOvk88YhweAhM16B/SDOWfB6F26Xzbd5pHO6qE/9U/yfuKeVBeJe1ZsMTy4LEFLNrKu/QsDGz24esE088d4eqB6I10BUJGbcIN8DI97sDz4JxyY+W/hBv9cQXTwV/8iW4BtGXA7OeSXzMFDyxMs2xjbXMozht/1q2HGo5ebZFydUL2TBgAqUqdeK3u6wgPAQNt1XzYexuzb/XKFktCqCX7U+1zPH/iznRzy8wSeX+cwb5XT6bZAmb2C4aL6qeaF2HqgejUNAFRkxv1aBnlZHkYYZbvuM8bA547ufjnXE03wo4B/Ju5JtnV+yO+9Vv+Q3/rW2Gb9rUb44fB9uPnerxiNXFVoGgCoSMycKc6iHHeI4aO26/7EaPj2yd0v55/49/B05b/PKxShKQPFTmbz2aJ/yO/Zt504A8a/1cAl86abd2PrgaoaGgCoSDw1hNkIn7dd74G7wX9+FpwQk7HmlEtJr/v1aSJ+4p5UF4f3lm70D/nFmLhnDcJlDdPNo7H1QFUdDQBU2U2YJRcgXGG73hGD4Kefh51qu182mfEoFHXw78va3k/c01kM2JQxPPi6w6qt8SXuMXBLwuN782aYTFydUNVJAwBVVuNnyekYbrFdb10N/ORzsOvg7pfNZD3aNMFPn1V0/cd8sp3M5l2Bp9c4zH/T6fSp3zJbJIaLG6aa12PrgapqGgCospk4Sw4Xw5+w/HtmDHz/M/5rf92VKwipNh38+6Lth/xauphHr20y3L/MYWt8iXuajfCjsWlumjnT6C+rKht9CEiVxbhZsotjeB44wHbdF58CXx7T/XLFkrAtqSf++6J8EZq6SNyTLcJjKx1efMfp9NGfMhIMdxRrmLbocrM1ni6ovkRXAJR142ZKfwcepAyD/+Qjww3+rode9+uDupO455EVCTJxHfIzvOkYLpk/xcyPqQeqD9IAQNklYpzZ/A8QIg9f5z6+L0yZFKZL7yf40cXUPiWTh+YMnV7z3Jwy3L/U4e3m2BZDs8Av62r4r0cvN52EKUrZpwGAsmr8DfwUONt2vfsM96/7JZzul21J63W/vqRQ8gf+fCdpeIsuPLnGYeFqJ87AcIEkuHjBleaN2Hqg+jQ9A6CsmThbzhPh97brHboT3PRV2Gvn7pdNZvTEf18hAskstGbpNHPPys3+1b7mbGxff5sErtLEPSrH1iOCAAAgAElEQVRuGgAoKybOlrEiPAHU2ay3Xw1cfwYcvkf3y7blPJIZHfz7gmzBn/V3dsgvmYfHViZ4ZX18iXsw3FkLVz4+1WyLqxNKbadbAKrHJt0g+3sef8Hy4G+A6aeGG/zzRdHBvw8oedDa1SE/gRffdXhkRayJe17z4KKFU83zsfVAqQ/RAED1yOmzZXjR41FgV9t1n/dJmHhY98uVXD/Bj6peQRP3bGg1zF3m8G5LbLP+NuDHI/ZmlibuUZVGAwAV2phbpbaY4V7gYNt1jzsEvnZ898t5nn/iX6/7Va9CCbal/b93JFeE+RWQuMep4dL5V5h3YuuBUp3QAECFtnOGm0WYYLveI/eCqz/V/QMqIn6CH73uV508gdY2SGc7PePHii2GB5Yl/MOA8XhP4IoF08xfYuuBUgFoAKBCmXC9fF+Eb9uud+RQ+NHnoDbR/bKtGZdiSaf+1Shb8Gf9nQV329r80/1vbIltub9k4Dduf76/8FKTjqsTSgWltwBUt02cJV8Wwz1AiFv5Ozagn3/db78R3S+bavPIZHXqX21Knj/w57pI3PP3dQ6Pv+FQiG+X/WURLlww3bwcWw+U6iZdAVDdMm62fFyEP2B58K9x/Jl/mME/m9fBv9psP+TX2kane/hvb/Nf8tscX+KeFiPM1MQ9qjfSFQAV2IRZsi+GvwO72657yiT47FHdL1coin/oz3aHVGzyJdiW8l/r25FsEerjP+R3b43HZfNmmC2x9UCpHtAVABXIidfKYBweROwP/l89Ltzgv/26nw7+1cHzoKUN0rkd/8z2xD2PrkiQjitxD6zGcGnDVDMvth4oZYEGAKpLZ/xZEk3vchdCiGG6c2MPgvNP7H45T6A55XV6B1z1Hpk8NKc7v9PflPHv9K9ujG3hsgjM9lLMXDjTdBKmKNU7aACgutT4Ljca+Kzteg/a7f3rfiG+z1tSLq4m+On1Su77h/wCJO55crVDKb5d9icdh4vnTzErYuuBUpZpAKA6NeF6uRK41Ha9IwbBTz4P/Wu7X7Y17VIo6uDfmwn+K36tbZ3/3JomwwPLHLbEd8hvs8B3F0zldozRXzpVVfQQoNqhCbNkMoaHgBC38ndsQD/41ZlwQIjHg9NZj3SbHrbuzXJFf9bfWeKeVB4ejTdxj2C4w/RjSv1lpimuTihVTroCoDo0frYcgXA3lgd/x8A1k8MN/rmC6ODfi7ketHSVuAf/kN/DyxO0dbItUFaGJQgXN0w1z8bUA6UioQGAamfsDbIHfoKfobbrvmQcfPKA7pcrloTWtOZS6a3SOX/w7+yQ38akYe5Sh3fiTdxz3YgkP793ponvjoFSEdEAQP2LE2bLTrUec4G9bdf9mY/AF4/pfjnXE5pTmuCnNyq6/p3+ztLwFj3/Tv+iNU6ctzr+5jl8Z+EUsy62HigVMQ0A1D/MnCnOU8KdwHG26z52P7hiYvfLiUBz0sPTlf9eRd5P3JMKkLjnwWUJWuJL3LNB4JoF08wfY+uBUjHRAED9w1ODuRb4ou169x0B//kZSIR4PLg55VLS6369SrYA2zLgdrJjk8zBQ8sTLNsYb+KeXIkfPHOVScXVCaXipAGAAmD89fItYLrteocPhP/6Igys637ZZMbT6369iOv5A3+2k0N+nsDz6xzmrXI63RYos8VGuKh+unkxth4oVQE0AFCMny2nGOEW2/XW1fgJfnYf0v2ymaxHW07X/XuD7Yl7km2dH/J7r9U/5Le+NbZZf6sRfjh8H26+9ytGT5SqPk8DgD5u3Cw51Aj3A/1s1muA6afB4Xt0v2y+IKT0ul+vUChCUwaKnczmKyRxz9+8EhcvvMqsj60HSlUYDQD6sIk3ywjJ8xAwzHbd558EEw7tfrliSWjR634VT8RP3JPq4vDe0o3+Ib8YE/esMYZL66eax2LrgVIVSgOAPuqMmdKvscB9Bg60XffpR/gZ/rrL8/w3/vW6X2Vrez9xT2dnM5syhgdfd1i1Nb7EPQZuSXh8b94Mk4mrE0pVMg0A+iIR0zSb/zHCONtVf2QvmDIpTJf8E/+urvxXrKLrP+aT7WQ27wo8vcZh/v9v786j7KiqxY9/T93uTGSAhHlSBkEBZRIFmdLdgERBEAURgoioQOAXSTphUNFGVASSRuO0EJ/PJz6VBAgBDELS3SEBoqCQCTIASUiAjD3ceazavz8q8aGSvrdu1626t3t/1nK5XKvPPmUacnadOnuf16xeW/1W2CIxXNc+2bwS2hMoVQM0ARiAGlv5LjDe77j77+4e+qsvo3lwT8ImX9BX/2q085BfT5H36HWdhtkrLLaFd3FPtwi3dDRzv17co1RxehnQANPQKpcY4U/4/LsfMQR+9kU4sIzTBPGkQ1JP/FelbB46i1zck87DX1ZZvLjB6rXpTwUJht/n62heNNFsC+cRlKo9ugMwgDTcK6cah9/h8+JfZ0HL+eUt/umsLv7VyMvFPXNXRkiGd8hvjcCEjsmmLbQnUKpGaQIwQJxzjxxScHgEKKMlT++az4Hjyrg5IJsXogld/KtNMgvdSXptv7wlbpi93OLN7tA2EdPA3YPrufPJiaaXNEUptSuaAAwA42bIyGyex4C9/Y49/uNwzlHexxVsIRrXcr9qkiu4C3+2l2t48zY8s9ZiwetWeAc2De1iMaHjRrM6pCdQql/QBKCfO/E+qc/EedgYjvE79hlHwJc/4X2cI9Add8K8+U29iwjE0hBN0+vNPau2uKV93elw3voNbHLglo7JenGPUn7QBKCfGxVnBoYyCvN6d+Q+cMu5YDyuBe7tfja2XvBTFdI5962/t0N+sSz8ZVWEl98KbbvfMYZfD6pj6pMTTSysh1Cqv9EEoB9rmiY3ieFav+PuOxJ+8Fm3179X0aSW+1WDggPRYof8BF7caDF3ZXgX9xhhiSNc2z7V/C2cJ1Cq/9IywH6q4R75tLGYA5RRlb9rwwbBjEvhkD29j02kHBJpPfQXplIv7nknanh0hcXGntD+ikgCd4w5iGl6cY9SlaE7AP1Q471yAg4P4vPibxn41qfKW/wzWdHFP2S5AnQl3P/elUwe5lfBxT1WHdfP/4bZENoTKDUAaALQz5x9l+xvC3OA3fyOfUMDnHyo93G5ghBN6ktcWByBaAoS6V7P+LFyq2HOioh7GDAcb4swsWOKeSS0J1BqANEEoB8Z+3MZbmeYi3Cg37E/fyJccJz3cbYtesFPiNI5962/t5K9rpR7un/11tC2+wsGfmEP4VsLrjeJsB5CqYFGE4B+oqVFrEUZfi9wrN+xP3YIXHOG93H/LPfTnf/AFRx34c8Uubjnb+stnlptkQtvg+Y5x+HaBVPNitCeQKkBShOAfmLhSFoRLvA77uF7wXfOc7//e9UTtylouV+gdh7yi6boddflzS63k9+W8C7u6TFCy+kJftrSYjRFVCoEWgXQDzROk69iuN/vuGN2g59fBnuN8D42lnRIaY//QGUL0BV3u/XtSjoPbeEf8ptV53DD01PN1tCeQCmlOwC1rmGafBLDL/2OO7gOvndBeYt/Mq2Lf5AcB3pSkMjs+md2Xtzz5MoIifAu7nndCBPapph5oT2BUuqfNAGoYU3T5Cgx/Amff4/GwDc/BR/c1/vYTE6Ip3TxD0oyC92J3mv6O5NuTf/r20Pb8MsB9w6u57t6cY9S1UMTgBo1dprsKYbHgN39jv310+G0w72PyxeEaELL/YJQsHcc8ivh4p5nXrcohJeTPeMI1y6YYlaF9gRKqfekCUANOqVVhkaExwUO8zv2uGPgko96H2c7aLlfAAS3i1801fvPre00zFlhsTW8Q35bBG7qmMwDGKP/VChVhaywH0B5JGKGCv8lcLLfoY89EG5sKueRdlzwozv/FZXJw6bu3hf/eBZmLo1w/18jYS3+guEBM5ijO5rN73TxV6p66Q5AjWlq5QcCX/Q77sGj4fbPQF0ZzYN7ElruV0m2Az3FLu7BPeT351cjpHr5LFBRhmXGcG3bJLM4pCdQSnmgZYA1pKlVrhTht37HHTkEfnYZHFDGaQIt96usRMZd/Hs75LcpZnh0ucWG8C7uSQH3jInzw1ktJrwaA6WUJ7oDUCOaWuV0Ee7zO25dBFrOL2/xT2V08a+UvO3W9Pd2DW/ecWv6F621ek0QKuwJhBvap5g3Q3sCpVRZNAGoAWfdK4c6Dg8Dg/2Ma4Cp58CxB3kfm80LsaQu/n6THRf3xEu4uOex5RF6eqn9r7B3BG7taDa/C+0JlFJ9oglAlftkq4zOOzwJ7OV37C+dAmd9yPu4wo4LfpS/0jnoSoLdyx9tLAOPvxphxaZwL+7JFPj2czebeFgPoZTqO00AqtiJ90l9Psks4Ai/Y489Aq44xfs4x3FP/Gu5n39sB7qTkOrlkJ8j8Nf1Fk+vsXr9LFBhLxnh2rYp5sXQnkAp5RtNAKrYqAQ/Bxr9jnvM/nDLOO8nQEWgO67lfn7ZeXFPLNX7Ib+3o+4hv7eiob31R43w3dEH87NZlxjd+lGqn9AEoEo1tsq3Eb7md9x9R7nlfvVllPtFEzb5gr76+yGXh84k5Ht5m6+Si3uecApct+Bm81ZoT6CUqggtA6xCTdPk82J4EJ8bNQ0bBDMuhUP29D42nnJIpvXVv69E3It74unef275JsNjK0K9uOcNEa7vmGKeCu0JlFIVpTsAVWZsq3xUhP/B58W/znLf/MtZ/NNZXfz9kNpxcU9vPZM6k4bHXrFYsy203DwPtDpxWha0mPBqDJRSFacJQBVpnCbvQ3gCGOZ37Bsa4YSDvY/L5YVYQhf/vsjbbjOfdC9v87bAs2st5r9mUQjvK/tCI1zXNsW8GtoTKKUCowlAlTj1LhmBxWMI+/gd+wsnwfkf8T5uZ7mffvUvz85Dfj3J3n9uXadh9gqLbeFd3NMlwq0dzdyvvfuVGjj0DEAVuHimRDo38ihwnt+xTz4U7rgALI+/aUegM2pja4//smTz0Jmg17f5dB7+ssrixQ1WWEmWYPi94zB5wRSzPZxHUEqFRXcAqsD2jfzEVGDx/8DecNunvS/+gnu1ry7+3nm5uGfuygjJ8A75rcHhuvappj20J1BKhUoTgJA1TJNJBq73O+6Y4e6b/5B672NjCZtcXhd/r5JZt6GP08uRiS1xw+zlFm92h7b5lgbu1ot7lFL6CSBEjdNkHIbHgTKq8ndtaD38+FI4vIzmwYm0QyKlh/68yBXchT/byzW8eRueWWux4HUrzEZKc+scbnh6qlkX2hMopaqG7gCEZOw9cgyGP+Hz4m8M3Pqp8hb/TE508fdABGJpiKbp9eaeVVvc0r7udDj5toFNDtyiF/copd5NE4AQnH6v7Gcc5gIj/Y494Uw49TDv43IFIZrQLq+lSufct/7eDvnFsvCXVRFefiu0jTbHGH49qI6pT040sbAeQilVnTQBCNgprTK03uFRoIxLeHv3qQ/DRSd4H2c7O8r99LN/UQUHosUO+Qm8uNFi7srwLu4xwhKxuKZtsnkhnCdQSlU7TQAC1NIi1kLhD8DH/I590vvhxibv40SgO+b0enBNlX5xzztRw6MrLDb2hPbWnwTuGH0w0/TiHqVUbzQBCNDCEdwFXOh33PeNgW9/GiJlNA/ujtsUtNyvV7kCdCXc/96VTB7mV8HFPXUw4elmszG0J1BK1QxNAALSMF2+AkzxO+6oofD9C2D4YO9jY0lHy/164QhEU5BI93rGj5VbDXNWRNzDgCEQWAfc0NFs5obzBEqpWqRlgAFoaJUzjfA0MMjPuIPqYPrFcNR+3scm0w5xPfG/S+mc+9bfW8leV8o93b96a3gX9xj4pT2Eby243iTCegilVG3SHYAKGztNPmiE2fi8+BtgyjnlLf7ZnOjivwsFx134M0Uu7vnbeounVlvkQvrKLvCsOFy3YKpZEc4TKKVqnSYAFXT6DNnLyvNnYA+/Y191KjR90Pu4fEHo0XK//7DzkF80Ra/f8N/sNjyy3GJrPKS3fqHTWNzcPonf6MU9Sqm+0E8AFTK2RYZYI2gDPuF37HOOgpvP9T7OcaAzWgizE11Vyu445Jfv5ZCfCCx4w2L+GqvXKoAKEhF+VxjE1EUTzbZQnkAp1a/oDkAliBirlfupwOL/4QNg8tnlPJJ74l8X///jONCTgkSm958T4LFXLP76ZhllFv543QgT2qeYeWE9gFKq/wntb7T+rGE6LcB4v+MesAd87wKoL6N5cE/CJl/QHeOdkll4p7v44g/w9OrQFv+MwHfGxDm6TRd/pZTPdAfAZw2tcokRbvM77ogh8MMLYeQQ72NjSYdsThd/cFv3diXcuv1SrO8yPPNG8Iu/GBaIw3ULpphVgU+ulBoQNAHw0VnT5DRH+B0+n62oi8Dt58OBZRwlTGcdUhnd9xfcLn7RlIcxArNXBN7YZzPC5I5m88dAZ1VKDTiaAPik8W45zDHMBspoydO7yWfBsWXcHJDNC9GELv6ZvPvW39vFPe/llS0myNP+DnCfY/HNBZNMT1CTKqUGLq0C8MFpd8oegwbxPFBGYV7vLvsYXH2a93EFW+iK2mGdWK8KtuPe2Jfq5eKe3vzu7xFWbgnsX5F3RHg1qMlKYQwCbAe2G1iPsMhO8PKCFhPSFUdKKT9pAtBHJ94n9aOS/AWh0e/YZx4Bt53n/ZfkCHRGbewB3OM/b8PWaO+d/HpTsOF7T9eR1w2UfxcDHhT4eUezWRr2wyilyqdVAH00MsEvK7H4f3Bft9bf6+Lv3u43sBd/BLbFyl/8AbYljS7+720k8DUDSxpbZW7j3XJY2A+klCqPJgB90DRNbjJwtd9x9xkJd1wAg8s4oRFNarlfOu/9e/+/6/ZwWHDAEsYRYXnTNLkJEd1NVKrGaAJQpoZpcpEY7vQ77rBB7u1+o3fzPjaecshkB/biD317898pp2//pRoqhrsap/OnsS1SRpGqUiosmgCUYWyrfNQYHsDnP7+IBbd9Gg7dy/vYdFZIpnXVAqjz4bdSr/9meGO4xBrBYyfeJ/VhP4pSqjT615xHZ98l+1swGxjmd+wJY+Fjh3gfl8sLsaRe8LPT4HqIlNEt8d328P23OyCcPSrOfWE/hFKqNJoAeHDqXTLCrmMuwoF+x77oeLjwOO/jbNu93S/gZjVVzRjYcwRYffgqvc9w8WUnYcAxXNXYKteG/RhKqeL0r7gSXTxTIkPq+SNwrN+xTz4UrhvrfZwj0B13cHTn/z8MroN994CRQ2FIPQyq8/afoYPg8L00qyqLcGfTj2WfsB9DKdU77QRYoq6NtAp82u+4h+0F3/pUeW+rPXGbwkAu9yuizoLdyzhMudPZRzqs2tLHbwkD0+5i8yPgqrAfRCm1a7oDUILG6fI1gYl+xx29G3z/Qvfkv1expEMur4t/JZ30PuHA3fXPuEyXn32X7B/2Qyildk0TgCIap8k44Bd+xx1c5y7+e4/wPjaR1gt+ghCx4PKP6p9zmertOt0BUKqaaQLQi7Na5cMY/oTPn0qMgVvHwZFlfCXN5IRESheloHzkAOG8o/XPu0yXhv0ASqld0wRgF8beLfs6wuO4rU999bXT4PQPeB+XLwjRhJb7Be0LJzqc8n79FFCGo067U8q4xFopFQRNAN7DKa0y1IowB3if37HHHQNfOMn7ONuB7riW+4XBMnD9GTafPtrR27O8sQbVc3LYD6GUem+aAPyblhaxhsLvgI/5Hfv4g+HGs7yP23nBj5b7hccYuOyjDt8612b/UZqFlUosymhtpZQKgpYB/ptFI/g+wuf9jnvwaPjueeW1qe1JaLlftfjQPsLdF9gsedvQ8ZrFys2GVC7sp6peRtBPAEpVKU0A3qWxVa4S4Va/444aCj+4EEaUcVVKLOmQzeniX02MgeMPFI4/0MYR2BwzRDMQT0O1/KYSGcjkyx+fyhvmr7ZI9D25KaPORSkVBE0AdmhqldNF+KXfcesi8J3zYP/dvY9NZrTcr9pZBvYfJew/Kuwn+VfbY5S9M/H6dsMTr/qy+COGzr5HUUpVgiYAQOPdcpgIjwCD/YxrgClnw3EHeR+bzQvxpC7+qjzZgvcxBRvmv2axcK3l32FTYYtPkZRSPhvwCUDTz2SM5HgSYU+/Y48/Gc4+yvu4gi30xLXcT5Unm3erRrzYFDM8+LLFloS/dQ4GXvc1oFLKNwM6ATjxPqmXBLOAMqrye3fmEXDlJ7yPcxz3xL+W+6lyxVKl/6wAi9dZPLnKouD/hlNqTJy/+x5VKeWLgVsGKGJ2T/BroMHv0EfvD7eci+eacRG31t/r25tSOyWzkC7x8F80Df/1twiPv1qRxR/g2VktRmsklKpSA3YHoKGVbwt8ye+4+46E2z/jXinrVTRhky/oq78qTzoHnfHSfnbFJsMjyyMlJwtlEX5bwehKqT4akAlA0zT5vMDtfscdNsi94GePYd7HxlMOGS33U2UQIJ6CaAlb/9kCzF1p8cKGym7+Gdg0OsHDFZ1EKdUnAy4BGDtdThZ4AO879L2KWNByPhxSxlHCdNYhmdZ9f+VdwXbf+ks59b++yzBziUV3OoCGxsJduv2vVHUbUAnA2Hvl/ZbDo0AZLXl6d0MDnFjGzQG5vBBL6OKvvEtloStJ0RbRjkD76xbtr/lY3tcbwzI7zs8DmEkp1QcDJgE460cyynF4AijjEt7eff5E+Myx3sftLPfTjX/lhSPQlXATgGK2Jty3/rejgV1jlMZw1YIWU0YnAqVUkAZEAnDxTIl0buT3wNF+x/74IXDNGd7HOQLdcQdHV3/lQSbvbvmXUiny0luGOSsi5IJrKeEIXNExybwU2IxKqbINiASgcwM/w3Ce33E/sLfb5tfy+HIlQE/cxtYLfpQHPUmIpYv/XCIHDy+LsGpLoJcXOwYmtjcbPfinVI3o9wlA03SZLHCt33HHDIc7LoAh9d7HxhI2ubwu/qo0edvt7Z8v4U1+zTbDw0sjxEr4POCjhBGuaJtiHg10VqVUnwT6ihC0xlY5H2E2EPEz7tB6+PEX4PC9vY9NpBwSeuJflSiRge4kRQ/v5R144hWLFzdYQZ8pWeE4fHHBVLMi2GmVUn3Vb3cAzpouxzvCH/B58TcGbv1UeYt/Jie6+KuS2A50xUvr6vdW1DDzZYttyUDzeTGG+4ftxqTHrzEemg8rpapFv0wATr9X9rMd5hgY7nfsa8+AUw/zPi5XEKIJveBHFZfOQmcJ5X0isHi9xdxVVtDto7eIw9XtU82fA51VKeWrfpcAnNIqQ+vdWv8yLuHt3bhj3JI/r2xnR7mffvZXvXDEPeiXyBT/2Z40zFwaYV1nwF/xDI84DtcsmGq2BzuxUspv/SoBaGkRa6G77f8xv2N/9H0w6Szv40SgO+YUfZtTA1u24G75l3LQb/kmw+xK9/H/TykjfLOt2fwk0FmVUhXTrxKAhcO5G7jQ77gHj4bbznPb/XrVHbcpaLmf2gURiGfcPv7FdogyeZjzSoQlbwd+dveFiM34eTeZ14KeWClVOf0mAWhqlatFaPY77qih7gU/wwd7HxtLOlrup3apYMP2BORKeJN/Y7th1rII0RL6APioAEyPDue2f1xjgt1vUEpVXL8oAzzrHhnrWDwFDPIz7qA6mH4xHLWf97HJtEM8pfv+6r0ls9CdoGgnSFugI8g+/jsIrIsIX5o/xTwb3KxKqSDV/A7AWffKhxyH2fi8+BtgytnlLf6ZnOjir96TI+63/lQJ9+RtjRseXGrxTnB9/F2GB2QwE+ZfbxLBTqyUClJNJwCn3Sl77LjgZ3e/Y1/5CWj6kPdxeS33U7uQzrlv/YVi5X3A8+ss/rLaohDsP0rbjfC1tmbt6KfUQFDTCcCgwfwa4VC/4449Esaf7H2c46Dlfuo/CBD10Mf/oaURVm8N/OvcPAxXtTWbt4OeWCkVjppNABpb5SqEi/yO++ED4JZzvR+OEIGumB10QxZV5fIF6ExAroTLcVdsNsxeFiEV7HG7NIab2ifxc4zR1FWpAaQmDwGe0ipDh8IahAP9jLvvKPj5ZbD7UO9ju+M22Zz+/an+TywNPSko1pw/W4C5Ky1e2FBGnWnfrDAOl7dNNcuCnlgpFb6a3AEY4nAtxt/Ff8QQ+NFF5S3+saSji7/6J9t23/ozJbzJv9ltmLnEoisV7NW9AtP2jHPbrBZTwnFEpVR/VJMJgDFc5We8Ogu+cx4ctIf3samMQyqj+/7KlcpCVwl9/B2BRWst5q22CLJPlMBGC65sbzYdwc2qlKpGNZcAjL1XjsPhw37GvPEsOOFg7+PyBSGW1MVfuQt6d8Kt7y+mM2l4cInFxp7Av8D9USwmtE0yPUFPrJSqPjWXAESEJj9fmL74MfeSn3JEE7r4K8jmoTNevLwP4KW3DHNWRMgFW94XE2FqxxTzq0BnVUpVtZpLABzhJL/em07/AFx9anljs3nRHv8DnIh70C+WKnrOj0QOZi+P8OrmgN/6hcU4XNFxk3kj2ImVUtWu5hIASzhSfPg79Mh94dZxYMqMpYf+Bra87b71l1Let3qr4eFlEeIlfB7wUQ7hu2ckuLulxehWlVLqP9RcAiCG0X2NMWY43H4+DO7D/3t9+x+4EhnoTha/va9gw/zXLBauDbaPP7AKi8vbJ5mX2gOdVilVS2ouAQCG9zXAEXvDo0v6FiOdtXCK3eTSB8MHwx7DhEPGwH6jpDYbNvQz9o4+/ukSCufeiRr+tMRiWyLQ35wY4ZcpiymLJ5lg7w1UStWcWkwAYtC3XYDFa93/9I0hqD5Kew6H0w9zOOdDDiPLuJZY9V0m59b2F+v0KAIL11rMW2MF3RVys8DV7VPM3EBnVUrVrJp7sWycLn8HTgz7OcIwbBBc9BGHc492au8XV6ME6ElCvIT36Z4MzHo5wtquwH87j+Xr+eqiiWZb0BMrpWpXze0ACKwyAzQBSOXg93+3WLHJcMOZNkPrw36i/i1XgO1xSspa24YAAB2OSURBVLqRb8k7hsdWREgH28c/KcJkLe9TSpUj8ObjfWUMfw37GcK25G3D3fMDX2wGjJ3lfVuixRf/dB7+9HKEB18O/PfxgoETdPFXSpWr5hIAAW1hCqzZarj/+UjYj9HvFGxha9Td9i92cn9dp2HGwjqWvhPolr+N8P3ocE5razZrgpxYKdW/1OSn5Kbp8qLAR8N+jmpw7Wk2px+mJYl+SGbddr7FijtsB55eY7Eo4PI+gXVYXNExyTwX3KxKqf6q5nYAdvh12A9QLWa+HHhb2X5HxG3q0xkvvvhvjRt+8XyEhW8EXtv/2yH1HKeLv1LKLzV3CBBgdJz/7hzBVOCwsJ8lbF1JWLzO4szDtdlbOTI7+vgXLe8D/vqmxZMrLfLBJlxdRrimbYp5KNBZlVL9Xk1+AgBomiafF8OssJ+jGpxwMNzzee/jRNwbDRMph1xhYH1GECCadA/7FRPPwkNLI6zZFuy/LiLMNxZfbp9s3g50YqXUgFCrnwBom2IeEuF/wn6OarDindJK1f6dMTCo3jB6VITBg2o2F/QsX4At3aUt/mu2GX66qC7oxT8L3HJmgk/q4q+UqpSa/ASwU71wfcFwAvDhsJ8lTLkCvNkFh+1VfoxRu0XYli8E/V07cLG0e8K/mJwNT7xq8eKGwHPk5Zbh8vmTzXLt46+UqqSa3QEAeHqqSdY5nAUsD/tZwhbtY+d3y4L6uv67C2A7sDVW2uL/Vo/hp4siQS/+Ygy/2m04J8+fbAb8P89Kqcqr6R0AgKenmq2nz5CmujyPGDgt7OcJS8aHJjRWP13/U1n3sKRT5KCfI7DgdYu216yi1QA+e9uy+PL8SWZ+oLMqpQa0mt4B2GnRRLNN4jSI4YfAgCyKGzmk7zECPt1ecY5AV8Jt51ts8e9KGe57PsK8NQEv/oaH6g0f0cVfKRW0fvfO19AqRxuHOzGcH/azBOnBr7u3BpYrkxN64v0nA8jm3cW/lKTmH29ZPP6KRbZQ+ed6l5gxTGybbPQgq1IqFP0uAdipaZoc5RiuBC42cEjYz1NJ+4yEP3y1/PG2LXTG7KJvybVgZx//WMot9etNKg+zl0VYsTnwfw2eq3O44umpZl3QEyul1E79NgF4t9Pvlf3qHE7CcCDCGAO7hfEcBvYT+JLfcT97PNzQUN5YR6AralOwa//4f8Fxm/pkSzgP8dp2w6ylEeKZyj/Xu+QxfG/Mgdw56xLTf7ZblFI1aUAkANVg3AwZmc2zADjez7gGuO+K8koARaArZpPvB02Akll3y79YGWPBhidXWyxeZxXdIfDZGiOMb5tiXgx2WqWUem81XwVQC068T+qzCWbh8+IPcOaR5df/9yRqf/F3BLrikMoV/9ktCcODL1tsigWc9xoecAYzYcH1JhHsxEoptWuaAFSaiBnVym+Ac/wOPWIIfP308sZGEw7ZXG0v/pkcdCZK6OMv8Ox6i6dXWRSCPeewTeCrHZPNY4HOqpRSJdAEoMIaW7kTGO93XGPgpk+6BwC9SqQc0tnaPfEnuA194iU0P4qmYdayCG9sD/xr11wT4SvtN5otQU+slFKl0ASgghpb5VqEmysR+9oz4BNl3IWYyjgk0rW7+OcKbl1/KXcfrNhkmL08QsqHJkkeZIxwS1szMzCmtrdYlFL9mh4CrJCG6fIZA48AEb9jX3AsTGzyPi6bE7pruNY/loaeFEXr+7IFmLvS4oUQ+vgbh/FtU82yoCdWSimvdAegAhrukY8b+CMVWPzHHgn/r9H7uHxB6EnU5uJfsHeU95XQqGdDj2HmyxadqUBzWzHw09Fxps5qMSUcR1RKqfBpAuCzpmlylBjmAsP8jn3sgXDLue73fy9s233zr8Wb/rz08W9/3aL9NSvo/58bLIcr5081CwKdVSml+kgTAB+dfZfsb7uL/2i/Y79/DNz+Gaj3uKfgONAVd2quy9/OPv6pbPGf7UoZZi6xeLM78C9as3I5rnn2VtMd9MRKKdVXmgD4ZNwMGZnL8WfgfX7H3nM4/Ogit+zPCxHojtvYNdblL5N3t/yLlfcBvPSWYc6KCLlgv27EEG5on2IeCHRWpZTykSYAPtjR6OchDMf5HXu3wXDnZ2GvEd7H9sRrq9HPzj7+0VTxn03k4JFlEVZuCfyt/3nL4or5k8zaoCdWSik/9YvrgEMlYnZP8GvgbL9D10Wg5Xw4tIxOf9GEQzZfO4t/3obNPaUt/mu2GX66sC7oxT8P3D7mIM7QxV8p1R/oDkAfNbZydyUu+DEGvjUOTjjY+9h4jTX6SWSgO1m8j3/ehqdWWTy/PvA+/iuxGN8+ybwU7LRKKVU5mgD0QeN0uQ6YUonYE86EM47wPi6VcUjWSKMf23H7+KdLaNTzVtQt79uWDLi8z3B/xGby080mGeTESilVaZoAlKlhunwG+GklYl96Elx0gvdx2ZwQS9bG4p/OQmcJ5X0isHi9xdxVVkmHAn201cDVbZPNE4HOqpRSAdEEoAyN0+QM4EEq0Oin4Uj46mnex9VKox9H3D7+iUzxn+1Jw8ylEdZ1BnvQT+AvYnPVgpvM5kAnVkqpAGkC4NGORj+PAh6L8oo77iC4uYxGPwVb6I5Vf6OfXMEt78uXkKcs39HHv5TPAz5KG+HW9inmJ4HOqpRSIdAEwIN3NfrZw+/Yh+xZfqOf7piNU8WLvwjEM+4J/2JJSiYPc16JsOTtwMv7XjQwvm2KWRP0xEopFQZNAEo0boaMzOaZSwUa/ew1wq31Hz7Y27h/Nvqp4s/+BRu2JyBXwpv8G9sNs5ZFiJZwza+PbGBadDi3/eMaE+x+g1JKhUgTgBJc3CKDtud42BiO9Tv2yCFw9+fKa/TTXeWNfpJZ6E5QdHfCFugIp4//emP4UttksyjQWZVSqgpoAlCMiOm8l18b4Sy/Qw+ugzsugIPLuDkgmrDJVWmjH8eBzgSkS7gXb2vc8OBSi3eiAW/5Gx7I5rn+uZtNPNiJlVKqOmgCUETjvUxHuMLvuMbArePgmAO8j3Ub/VTn4p/OuW/9hWLlfcCLGyyeeMUiH+wnjB6ECe3N5o+BzqqUUlVGE4BeNLTKBIRJlYh9/Vg4/QPex1Vrox8Bokm3l38xiRw8vCzCqoD7+Isw31h8ub3ZvB3oxEopVYU0AdiFhla5xEhlGv2M/zh89njv46q10U++4G755wrFf3bFZsPsZRFSwR63ywAtZya4p6XFVN8foFJKhSDwWqta0NAqZxrhKcDjufzimj7kbv17/YPP5YXuePXV+sfSbmOfYrIFmLvS4oUNgd8/9YrA5R3NZmnQEyulVDXTHYB/09AqRxthNhVY/I8/GG46x/viX7CFnipb/G3bfevPlPAmv7HH8OASi86g+/jDTwfVc9OTE002yImVUqoWaALwLo2tcgBSmUY/R+zjnviv6weNflJZ6Cqhj78jsGitxbzVFnawz78Z4SttU8yTgc6qlFI1RBOAHcbNkJHZAnOBMi7g7d2+o+AHF8LQem/jRKArVj2Nfrz08e9OGWYusVjfHXh530NmENe23WA6g51YKaVqiyYAuI1+OvM8AnzE79ijhsKPLoLRu3kbJ7iNfgoBvzrvSjbv9vEvVt4H8NJbhjkrIuSCvZsoJsLUjmbzq0BnVUqpGjXgE4CWFrEWjuD3QJPfsXc2+jmojA8KsSpp9CPiHvSLpdykpDfJHDyyPMKrm4N96zfwV9twxYJm83qgEyulVA0b8AnAwhFMBy72O65l4FufgqP39z42nqyORj8FG7bHSyvve327YebSCPESPg/4qAD8YPRB3DHrElP9dyErpVQVGdAJQEOrTEW4sRKxb2iAUw/3Pi6Zdkhmwv/on8hAd7L47X0FG+a/ZrFwbeB9/NcCV7Q3m+cDnVUppfqJAZsANLXKpSL8qBKxv3QKXHCc93GZnBBPhbv42wJd8dL6+G+Ou+V9m2PB9/F3BjNhwfUmEezESinVfwzIBOCse2SsI/wW8L0rzbhj4MpTvI/L5YVoItxd7EzOre0vVnUgwOJ1Fk+usko6FOijbQJf7ZhsHgt0VqWU6ocGXAIw9h45xrEq0+jn44fApDLuDAy70Y/glvfFS+jj35OBmUsirOsM/KDfU1aBr8y72bwT6MRKKdVPDagEoLFVDhC30c/ufsc+ch+47TyIeNxTsENu9JMruAf9CiVsPizfZJi9PEI62D7+aSPc2tbMDIwJ/2SkUkr1EwPmLoCzfiSjnEEsRPyv9d9/d5hxKewxzNs4EeiMhlPrL7hv/D0pitb3hdXH38DfnQjjO240qwOdWCmlBoABsQMwtkWGOPU8XonFf9RQuPOz5S3+YTX6KdhuU59sCeV9G3oMD75s0ZUKNFd0DPxsdJyps1pMCccRlVJKedXvE4CWFrEWjuQBhNP9jj24Dr5/IRxYRqOfaEiNflJZ96BfsfMGjkD76xbtrwVe3rdBDF9qn2yeCXRWpZQaYPp9ArBwJK0In/c7bp0FLefDUft5HxtLOmRywa6qItCVgGQJ9+JtTbhv/e8EXd4Hs3I5rnn2VtMd9MRKKTXQ9OsEoHG63IzwDb/jGmDS2fCxQ7yPTaYdUgE3+sns6ONfSnnfixss/vyqFXQf/6iBG9qaze8DnVUppQawfpsA7Gj088NKxL7qVDj3aO/jMtlgG/0IEE26vfyLSWbhoWURVm0NvKlPe53w5aebzcZgJ1ZKqYGtXyYATdOlQSrU6Oe8j8DlH/c+LpcXosngXqvzO8r78iVMuWab4eGlEWIlfB7wUR744RkxvtfSYsLvfayUUgNMvysDPKtVPuwIC6lArf/Jh8L3PuO91r9gC13R4Gr9Y2m3sU8xeRueWmXx3Ppgy/uAVy0YP7/ZvBz0xEoppVz9agdg7F1yoENlGv18cF+47dPV3ejHdtwT/pkSCufe6nH7+G9PBpoDijHcP2w3Jj1+jUkFObFSSql/1W8SgE+2yui8MA/hQL9jH7A7/OBCGFLvbZwj7uJf7PCdH1JZ6EqCU+ygn8DCtRbz1liBPNe7bBGHq9unmj8HOqtSSqn31C8SgFNaZWhOmGPgg37H3n0o3HkR7F5Go5+eWOUb/TjibvcnMsV/tjvt9vFf3xX4l5/ZjvD1BVPN9qAnVkop9d5qPgFoaRFrkfCAwGl+xx42CO76nLsD4FU0YZMrVHbxz+bd2v5SDvqF1Mc/ZYRvtk0xPwl0VqWUUkXVfAKwaAT3CnzO77h1FnznPDh8b+9jK93oR8Q96BdLFW3jTzoPj62IsOSdwN/6X4jYjJ93k3kt6ImVUkoVV9MJQNM0+abARL/jGqD5HDjp/d7HJirc6Kdguwf9siW8yb++3TBraYRYCZ8HfFQApkeHc9s/rjHB7jcopZQqWc0mAA2tcpkI369E7K+eDucc5X1cJiskKtjoJ5mF7gRFKwoKNsx/zWLh2sD7+K+3hCvmTzHPBjqrUkopz2oyAdjR6Oe/qUAfg/M/Apee5H1cLi9EE5Vp9OMIdMUhVUJ535aEYWYYffwNDziDmdB+vUkEO7FSSqly1FwCsKPRz2xgkN+xP3EYTGzyPi5fELrjdtHv8eXI5NyDfoUS+vgvXmfx5Cqr6M/6bLsRvtbWbB4NdFallFJ9UlMJwDn3yCEF4WlglN+xP7QffPvTYHl8cbadHYu/z6u/4Jb3xUvo4x/PwsPLIqwOuI+/CPONxZfbms3bgU6slFKqz2omAWj6mYwpZJkL7Ot37PeNgTs/C4M9/mm4jX6cos13vMoV3Lf+XKH4z67YbJi9LEIq2ON2GaDlzAT3aB9/pZSqTTVxF8AprTJ0qDAPONXv2GOGw08vhX1GehsnAl0xm7zPtf6xNPSkKFrfly3A3JUWL2wIvI//CuNwedtUsyzoiZVSSvmn6ncALp4pkc63+D0VWPyHDYIfftb74g9uox8/F3/bhu0llvdt6HEP+nWmAu7jDz8dVM9NT040wd4bqJRSyndVnwB0buTHwEV+x62LQMv5cPhe3sf63ein1D7+jkD76xbtrwVb3iew0YIr25pNR3CzKqWUqqSqTgAaW+XbCDf4HdcAU86GE9/nfayfjX4ccb/1p0p4n+5KGWYusXizO/DyvocGwTVPTTZdwU6slFKqkqr2DEDTNLlcDA9QgWe87kz4/Inex6WzDtGEP4t/Jg+dcUq6ke+ltwxzVkTIVabNwK7ERJjaMcX8KtBZlVJKBaIqdwAa75FGMfyGCiz+Fxxb3uKfzYkvi//OPv7RVPGfTeTgkWURVm4JOE8TFuNwRcdN5o1gJ1ZKKRWUqksAGqbJiRjmUIFGP2OPgP/X6H1cviD0+NDlL2/D9lhpt/e9tt3w0JIIsWCP2xWAH4w5mDtmXWKC3W9QSikVqKpKAM65Rw4pGJ4Ahvsd+9gD4ZZxYLw2+rH9afSTyEB3kqJx8jY8tcri+fVWRToL9mKVCOM7pph/BDutUkqpMFRNAjB2muxZgCepQKOf94+B2z8D9RFv4xyB7njfGv3YjtvHP11Ced+WuOGPL1tsiQffx7/O5rqnp5pksBMrpZQKS1UkAKe0ylBLmAMc6XfsPYfDnRfBiCHexolAd8ymYJf/Hp7OuVf3FksgRGDxeou5q6ySDgX6aCuGr7ZPNo8HOqtSSqnQhZ4AXDxTIp0b+V/gE37H3m2w2+J37xHex/b0odGPiNvNr5Q+/j0ZmPVyhLVdwb71G3gqZ3HVoklmU6ATK6WUqgqhJwDbN/ITA5/1O+7ORj+HltHoJ5pwyJbZ6CdXcMv7Sjnot3yTYfbySEmfB3yUNsKtbc3MwJiAjxkopZSqFqH2AWicLt8FWvyOawzc9mk48wjvYxMph0Ta+z68CMQzbnlfsYN+mTw89kqEl98O/K3/706E8R03mtWBTqyUUqrqhLYD0DRdxgt8txKxrzuzvMU/lSlv8S/YQmfClNTH/43thlnLIkRL+DzgI8fAz0bHmTqrxeQCnVkppVRVCiUBaJgunxL4byqwA/GFk+BzJ3gfl80JsaT3xT+Zhe6EwSny1m8LdITQxx94E+FLbVPMwkBnVUopVdUCTwDGtspHjfBgJeZuOBK+dpr3ceU0+hFxy/uSJbxPb40bHlxq8U408C8us3I5rnn2VtMd9MRKKaWqW6AJwFn3yqGOU6FGPwfBzecG0+in1D7+Ary4weKJVyzywZb3RY1wfdsU87+BzqqUUqpmBJYAjJ0mezoOTwL7+B37kD3he+U0+nGgy0OjHwGiSbeXfzGJHDy8LMKqoPv4Q5tT4MsLbjZvBT2xUkqp2mEFMcn598kwCx4Dyjia17u9Rri1/sMHexsnAt1xG7vERj/5AmzpKW3xf2Wz4cfP1AW9+GeBW86Ic44u/koppYqp+Ap18UyJdG3kYYEL/I49cgj85FI4eLT3sd0xm2y+tMU/loaeEprk5h14aqXFc+sDyave7VXH4vIFk8ySoCdWSilVmyr+CaBrAzPE+L/4D66DOy4ob/GPJpySFn/bcb/1Z0oo79vYY3hwiUVnMtC3fjGG+4ftxqTHrzElXDCslFJKuSqaADRMk9vFMMHvuMbArePgmAO8j42nHNLZ4h/9U1noShbv4+8ILFprMW+1RR+uDSjHFoGvtE82cwOdVSmlVL9QsdfVxulyMTCzErFvaIDPHu99XCrjFK31d8Td7k9kisfrTsODSyK8GXAffwyPmEF8ve0G0xnsxEoppfqLiuwANE2XIwR+XYnYl32svMW/lEY/2R3lfYUSqgJe3GDxxKsWOW/tA/oqDkxsn2x+G+isSiml+h3/EwARI638Bhjpd+imD8JXKtDoR8Q96BdLuaV+vUnm4JHlEV7dHPhb/98cGL9gsnk92ImVUkr1R74nAI2tfBU41e+4J70fbjrX+zeLYo1+CjZsj7u3+BWzZpvh4aURYlmPD9E3BYHv7XkgP5x1iQl2v0EppVS/5etr7CmtMnSo8Dqwv59xj9gHWi+BofXexjkOdEYLu+zYl8xCV6L47X0FG+a/ZrFwbbB9/AXWYXFFxyTzXHCzKqWUGgh83QEYKlyPz4v/vqPgBxd6X/z/2ejnPRZ/e0cf/3QJffw3x93yvs2xwLf8H5DBTFhwvUkEO7FSSqmBwLdVraVFrIUjWAcc7FfMkUNgxhfhoD28j40nHZKZ/1z9MznoTJTWx3/xOosnV1klHQr00TYxfK1jspkT6KxKKaUGFN92AJ4ZwbnGx8V/cB18/8LyFv9cQf5j8Rfc8r54Ca18o2mYuTTC2s7A+/jPixT48rybzTtBT6yUUmpg8fMTwGV+BbIM3HYeHF3mx4RY4l8X/1zBPehXKOEI3dJ3DHNWREiX0P3PR2kDU9sm8wuMCbadkFJKqQHJl1fci2dKpHMDWzCM8SPexEa44LjyxubyQlfMXekF942/J0XR+r5sAeautHhhQ+B9/FcYh8vbppplQU+slFJq4PJlB2DbWxxv+bT4X3Fy+Ys/8M+t/4LtNvXJllDet7bLMGtJhJ4SPg/4yAHuGRPnO7NaTAnHEZVSSin/+JIAWPBRP+KcfChc+Ynyx4u4Hf9SWfegX7GSPduBeWuCL+8DNojhSx2TzTOBzqqUUkrt4M8ZAIdj+/oxYVAd3NjUt28SuYKwPe5e5FPMtoThTy9bvBN0eR/8wcozYf4tJhr0xEoppdROviQAYnh/X5fR0w6HvUb0LUZnTIou/oLbx//PwffxjyHc0D7FPBDorEoppdR78CUBMIb9izbRL+ITh/X9OdK53h8inoWHl0VYvTXYt34xLIhEuHL+N8yGQCdWSimldsGfI+/C8L6GOHh03x+jt+Y+K7cYZiysC3rxzxnh5jNjNOnir5RSqpr41Qegz3EG+fAk9nts6edteGqVxfPrrb5uUni1EovxbZPMS23BzquUUkoV5VcC0Oe2OfFM3x8iEvnX/72xx+3j35kM9K1fgJ+nDTctnmSCLSxUSimlSuRXAtAF9Okr/qpNcNR+fXuIQXUGEERg4VqLeWusoj3/fbbVwNVtzeaJQGdVSimlPPKr7d2WvgZYvLbvDzG4HrpShvsWR/jLqsAX/0fz9Ryji79SSqla4M8OgLAaw3l9CfHSBli5CT7Uh12AF9403LfIKqn7n48SwOT2ZnN/oLMqpZRSfeDPDoDFK36EmT4PMmWcJohl4PYnYEaHCXbxN/wtYnOCLv5KKaVqjS8JQKTAs37EWbcd7viztyTgH2/C134HC9f48QQlK4jwPSfGafNuMq8FOrNSSinlA9+Oxze2ykaEA/2IddhecNMn4fC9d/0ziSz85jl4bEnRi/78tta45X2Lg51WKaWU8o+fCcCPEb7hVzxj4OOHwJlHwAf2ht2HuTsDb3bC39+Eea+6SUCghP/O2nzjuZtNPOCZlVJKKV/5lgCMnS4nW9A/34qFTjFc09FsHg77UZRSSik/+Nohp3G6/AM4wc+YVaANw5Xtk83bYT+IUkop5Re/+gAAIIbpfsYLWQa45Yw45+jir5RSqr/xdQfg4pkS6dzIy8CH/Ywbglcci/ELJpklYT+IUkopVQm+7gDMusTYONzoZ8yAiYEZg+s5URd/pZRS/VlFbslpnC7/C1xWidgVY3hLhC93NBu9vE8ppVS/5+sOwD+D5pkAbKhE7Eow8LAZxHG6+CullBooKnZPbsM0OdEYFgLDKjWHD2IiTO2YYn4V9oMopZRSQarIDgBAxxTzDzFcBQR7J1+JBJ6tczhOF3+llFIDUcUSAICOyWYmwnjAruQ8HhWA2/c8iLFPTzXrwn4YpZRSKgwV+wTwbg2tcpkRfgMMDmK+XRJWOxbjF0w2fw/1OZRSSqmQVXQHYKeOyeYPxqLBwKYg5nsvAvftNoITdPFXSimlAtoB2Omce2Rv2+IXAp8Lak6BjcC1Hc1mblBzKqWUUtUu0ARgp4ZpcpEx3AUcXsFpssAvswW+o7f3KaWUUv8qlAQA4OIWGdQ5gquBG4EjfAydBn6P8IP2KeZNH+MqpZRS/UZoCcBOLS1iPTOcs4EvGsMFwO5lhLEFFlvCQ9k8v3v2VtPt82MqpZRS/UroCcC7jW2ROrMbJ1oRThM4FjgC4UBgJDACSCOkMGwG1mFYIQ4vFgaxaNFEsy3Uh1dKKaVqyP8HPgxgBVQ52LMAAAAASUVORK5CYII=;" parent="1" vertex="1">
          <mxGeometry x="203" y="231" width="30" height="30" as="geometry" />
        </mxCell>
        <mxCell id="_SaHxXhYvdPaZlUhFqMO-1" value="" style="rounded=0;whiteSpace=wrap;html=1;dashed=1;verticalAlign=top;fillColor=#647687;strokeColor=#314354;fontColor=#ffffff;fontStyle=1" vertex="1" parent="1">
          <mxGeometry x="677" y="228" width="247" height="528" as="geometry" />
        </mxCell>
        <mxCell id="_SaHxXhYvdPaZlUhFqMO-2" value="Apex&lt;br&gt;Controller Class" style="rounded=1;whiteSpace=wrap;html=1;fillColor=#1ba1e2;strokeColor=#006EAF;fontColor=#ffffff;" vertex="1" parent="1">
          <mxGeometry x="695" y="281" width="120" height="60" as="geometry" />
        </mxCell>
        <mxCell id="HkrrA9YoYlj2VY17bmsr-12" value="" style="shape=image;verticalLabelPosition=bottom;labelBackgroundColor=default;verticalAlign=top;aspect=fixed;imageAspect=0;image=data:image/png,iVBORw0KGgoAAAANSUhEUgAAAgAAAAIACAYAAAD0eNT6AAAABHNCSVQICAgIfAhkiAAAAAlwSFlzAAAOxAAADsQBlSsOGwAAABl0RVh0U29mdHdhcmUAd3d3Lmlua3NjYXBlLm9yZ5vuPBoAACAASURBVHic7N15fFxV/f/x1+dO0qRAy1qgSyZNoaCsfhVUQERExAUVv2JVoEkKKG5fFH5+VVzr16/7jmvZkkkKahVcUED0yyK4YVHZRCg0yUxakH3vksz9/P6YFlpIMndm7sydSd7Px6MP2uTMOR+SmbmfOfeczwERERERERERERERERERERERERERERERERERERERERERERERERERERERERERERERERERERERERERERERERERERERERERERERERERERERERERERERERERERERERERERERERERERERERERERERERERERERERERERERERERERERERERERERERERERERERERERERERERERERERERERERERERERERERERERERERERERERERERERERERERERERERERERERERERERERERERERERERERERERERERERERERERERERERERERERERERERERERERERERERERERERERERERERERERERERERERERERERERERERERERERERERERERERERERERERERERERERERERERERERERqUeWdACSsPNyOxGEOwDQ5C2Ets1W308FjzIShrTmn8RTG5mTfpwjbTSJUEVEJD5KACarnoFWmoMFjHoHQTAfZz7YfPDdgZ3BdwbbBQhK79zvA7t/03/vAbsf9yECuwPjTubNG1SSICJS35QATAbnZ+eQ4iAC9sc5AOwA8IVAKqGINoIPgP0L7O8Yf6UpdQMnzHkgoXhERORZlAA0mqUesMea/QnDwzA/FLfDgPlJhxWJsZqQGzD/M87v6G6/LemQRESmKiUAjSAzvDOWfyUEr8L9WGBO0iHFw++D4Fo8/B1Nqcs4ad5w0hGJiEwVSgDqVd/aNIy+Fed44MWUda++oTjwF5wVhKmfcvLcXNIBiYhMZkoA6kn/4Gzc3oazCOylTN3fj4P9CcIVjNpPOCW9NumAREQmm6l6gakfSz2gI/tKCN4FfhzQnHRIdSYErsL8HNrSP9PuAhGReCgBSErPwO4EwbvBTgHmJR1OY7Ah8PMZ5XzNCoiIVEYJQK315BaS4v24vxOYnnQ4DWoE7Ed4+CXtJBARKY8SgFrpzb4c42PAq9HPPS4OXArBF+ma96ekgxERaSS6EFVbZvgQCP8HeFXSoUxy1xLwSRanr0s6kClvqQcstTDpMERkYkoAqqV/8IWEwf8Cr006lCnFuRT8LN0aiMnZq1rYfno7FnYQsgCzdtx3w2wXCDeXk96ZwnvJdmy9iNWBRwDHeAQnBB4E/o2TA+7FPIfbPXg+y/z5d2mRp0jtKAGIW//gbPLB5zE6mfx79+tVHsiQCj6t4kIl6FubJhx9AcaBmB+I2wuADmr3PN4I/k/gVjy4BeMW4Ga62tbUaHyRKUUJQFx6BloJUmcCZ1H4JCTJW4fxOVof/wqL9t2YdDB1xd3oz+1LyOEYLwNeTv3uRrkbuBb3a2nOX8uJC4aSDkhkMlACEIf+oaNx+wHOgqRDkTHdjtl76Gy7NulAEnX+/TNoXn807q8HXgfsnnRIZRrE+T8If8ZjI7/j9IUbkg5IpBEpAahEZnhnCL8GdCUdihTlQB/55v/m5Nn3Jx1MzSy7e3umN78Z5x3AK4BpCUcUt8dwLiPwS2idfjmLdn0i6YBEGoUSgHJlsm8DPxts16RDkZI8gNlpdLZdknQgVbPitmk8NfMNmJ9A4ZN+a9Ih1cg64Je4n0tX+irMPOmAROqZEoBSLV81k7D1K7i/K+lQpBL2E8LRd7Gk45GkI4nN+dk5NPlisPdTv/fza2UY7ELywXd1sJTI2JQAlKI/ezih9YO3Jx2KxGIA8046269POpCK9ORegfmZGK8DUkmHU2dGwH4BfIWuthuSDkaknigBiGKFp3gq+ynMPo7eYCebPNhnGZj32YYqXrPUAzqG3wT+EeAlSYfTGOz/sPzn6Zx/VdKRiNQDJQDFFBb6XQgck3QoUkVmvyY/elLd3xJY6gHzc2/D7FPgz0s6nAb1Z8w/z+L0r7ROQKYyJQAT6Rl+AUF4CYViKDL53QX2Frrabk46kDFlhl6F25cwXph0KJPESgLOVPlomaqUAIwnkzsJ/FymzgpqKXgS41Q60z9KOpCnFcpKf4NCsR6JlwM/wcKP0jl/IOlgRGpJCcCzuRv9w5/EfSn6+UxVDnyCrvTnE43ivNxONPnnMN6J1p5U2wbcv0XTxs9x0sLHkg5GpBZ0gdvSitumsX7GuTidSYcidWEZ09vexyLL13TUQhJ6Ku5foHDQjtTOGszfQ2f7pUkHIlJtSgA2W75qJvlpPwc7MulQpI44lxJMeweduz9Zk/H6BjtwO1/Pw8T9kHzzB6ZU1UiZcpQAwOaV/lcAByUditSlGxix13Jq20NVG8HdyOTejfFldJhUvbgf5wN0p3+YdCAi1aAEoGdgd1KpK3H2TzoUqWf2d7Cj6Zr3YOxd9wzsjqX6MI6OvW+Jgf2E9RvfyWl7PJp0JCJxmtoJwAVr2kjlfwfslXQo0gj8HzQ3H80Jcx6Ircve7KuBPozdYutTquFugnARi+f/LelAROIydROA/sHZhMG1wMKkQ5GGcjP55ldVfG/4am8iO/xZ8A8DQTyhSZVtAPsQXW3fSToQkThMzQTgorW7MDJ6DbBv0qFIQ7qVETui7DUBmeGdwX8MflTMcUlN2E8ZbT2ZU2Y9nnQkIpWYegnAsru3p7X5d2jBn1TmL9i0o0reHdC/Zm/C0V+A7V2luKQWjFug6Vg652STDkWkXFNr6nFFbjqtzb9GF3+p3EvwjRdxtTdFfkTf0BsIR/+qi/8k4OyPj/6J3qEXJR2KSLmmTgLgbqzz84DDkg5FJo03kh2+APfiM2l92W7cLgGbUYO4pDbmYHYt/dnjkg5EpBxTJwHoy30ZOCHpMGSy8cVksksnbJIZWorTA0SfLZBGsS0hF9M7dHrSgYiUamqsAejNvgfje0mHIZOWgy+iq/2nW311qQd05L4HnJZMWFJT5mfR2f7FpMMQiWryJwC9Q4dhdjXQnHQoMqk9QWiHsqTtFqBw8Z+fOx+jO9mwpLbsS3S1fTTpKESimNwJQGGv/43A7KRDkSlhkOamg7lz9kN05C4AupIOSBLg/mW62z+SdBgixUzeBODsVS1s33It8JKkQ5Ep5UqMe3Wi5BTnfI3u9IeSDkNkIpM3AejNfh/j3UmHISJT1sfpSn8+6SBExjM5E4BM7s3glyQdhohMaY7ZO+lsOz/pQETGMvkSgExuLvhNwM5JhyIiU14es0V0tukDidSdyVUHYKkHQAZd/EWkPqRwX07f0MuSDkTk2SZXAtCR+6AOWBGROjMdt5/RMzA/6UBEtjR5bgH0DXbgwS3AtkmHIiIyhptY33Qop815KulARGCyzAC4Gx6cgy7+IlK/DqR19NykgxDZbHIkAH3DpwCvSjoMEZEiTqBv6INJByECk+EWQM/A7gSp24Edkg5FRCSCUcxeRWfbtUkHIlNb4ycAmez5wMlJhyEiUoJhmvwATmx/OOlAnuPsVS3s0DwHT83C2IUw3AWzXYCdMdsOaAUg9JmYpZ55oIeYPbrprxswewJ4sPDHH8RTDwAPMt1zLGpbV+P/KxlDYycAvUMvwuwGJsutDBGZSn5IVzqZI8qXrWxmm933Ie/7YewJ3oGzAKMDmEu1rw3OvzEGcAYxGwTuBm5mfepWLZKsncZNANyNvtzvAe2vFZHGZLyDzvSPqjrG2ata2GHawcBBhHYgZgeC7wtMq+q45QmBu8Buxv0m4Aby0//EKbMeTzqwyahxE4BM9m1AdV84IiLV9TCp4ABOmjccW4/n3z+D5nWHAi/DeTnwYjZP2zemPNjNEF4P9geaR6/hhAX/TjqoyaAxE4CrvYls7p/AwqRDERGpiPNbutqOwczL7qNv8Pl46ljwY4FDgabY4qs/jvN34HLwy9km/WcWWT7poBpRYyYAmezJgA7YEJFJwhbT1bY8cvOlHtCx5gjMjwM/FmdBFYOrdw8BVwAreHTDFZy+cEPSATWKxksAlq1sZvqu/5riT3gRmUycf+P557Gk45EJ2/UO7YvxVrBOoKM2wTUQ41HcfomFP6H1id+waN+NSYdUzxovAejNvgfje0mHISISL/82Xe2nP+fL/YOz8eBknBOB59c+roZ1P04fqdS5LJ57R9LB1KPGSgCu9iayw3eBtycdiohIzPIQHkzX/L8Dm7Y5Bx8AfzvQnGxoDe9G3M9hQ/NybTN8RmMlAH3Zt+P8MOkwRESq5M84fRjvBfZLOphJ6AHcv0c47TucPPv+pINJWmMlAJnsXyhsaRERESnXBrAVWP4LdM6/PelgktI4CUBf7gjcr0k6DBERmTRCsEvwcCnd7bclHUytNU4JXfczkg5BREQmlQD8eMxupm9oOT25KVVbpjFmADK5ueCDTO7iFiIikqxRnAxh6jOcPDeXdDDV1iAzAH4yuviLiEh1NWGcQip/B5ncF1lx33ZJB1RN9T8DsNQDOnJ3A/OTDkVERKaUNbh/jK50f0WlmutU/ScAfdljcK5IOgwREZmyfo+F755sOwbq/xaA05l0CCIiMqW9HA9uKtwWuK0ej1EuS33PAPQMtBKk/g3MTDoUERERjFtwO5WuthuSDqVS9T0DEDS9Fl38RUSkXjj7g/+BvuznWbayoUs013cCUKiBLSIiUk+acM6iddc/khneK+lgylW/twBW5Kazzu8Htk06FBERkXE8gXM63emepAMpVf3OADzJEejiLyIi9W07jAvozf6w0eoG1G8CkOK1SYcgIiISifF21q1bSd/g85MOJar6TQDclQCIiEgDsb1x+wuZ3JuTjiSK+kwAerN7AFPqUAYREZkMbAb4T8nkPo17/a6zo14TgICjkw5BRESkTAH4Uvqz/Zy9qiXpYMZTnwkA/rKkIxAREamI24ls33oVF63dJelQxlKfCYDbYUmHICIiUjk/lJHRP9Gf2zPpSJ6t/u5P9A/OJgzWJh2GiIhIjO7BeDWd6VuTDmSz+psBCPXpX0REJp3ZOL8nk3tx0oFsVn8JAMFBSUcgIiJSBTuC/4ae4ZcmHQjUZQLgByQdgYiISJXsQJC/kr7cEUkHUocJAAcmHYCIiEj12AzcL6M/e3iiUSQ5+HNkhneG8IGkwxAREak641FCP4ru9huTGL7eZgA0/S8iIlODsz1ml9Mz8Lwkhq+zBCDfsOcqi4iIlGEWQeq39AzMr/XAdZYABB1JRyAiIlJj8wiaLufCoR1rOWidJQA+P+kIREREas+fx6j9vJZnB9RZAsD8pAMQERFJyMuZ2fKDWg1WXwmAKwEQEZEpzOgmk/1YLYaqnwTgam/C2DXpMERERBL2v/Rnj6v2IPWTAOTu3ol6q0sgIiJSe0bIBfRm96jmIPWTAATNdXlesoiISAJ2xLiEZWu3qdYA9ZMAjJoSABERkWccwPSRc6rVef0kACl2SjoEERGRuuJ2Ir1DndXoun4SgLzPTDoEERGRumP2Xfpze8bdbf0kABZMSzoEERGROrQdofeywlNxdlo/CQCuBEBERGRsh7E+99E4O6ynBKA56QhERETqlvNp+gdfGFd3dZQA0Jp0ACIiInWsmTC4gGUrY/nAXE8JgIiIiEzsQFp2/UAcHdVRAmAjSUcgIiJS94zPxFElsH4SAGND0iGIiIg0gG0wvldpJ/WTAISuGQAREZFoXk1v7i2VdFA/CUBgG5MOQUREpGGYf4WegbIX0NdPAuD+RNIhiIiINJAOgqDsBYH1kwCQejDpCERERBrMx+kfnF3OA+soAXAlACIiIiWxGYT2mXIeWT8JwKg/kHQIIiIijcdOJjO8V6mPqp8E4MkNmgEQEREpXQrCj5X6IKtGJGXLZB8Gdkg6DBERkQaTJ0jty+K5d0R9QP3MAADgg0lHICIi0oBS+OgnS3lAnSUANpB0BCIiIg3J7R30r9k7avP6SgCMwaRDEBERaVABYf6M6I3riWsGQEREpAJdXLR6tygN6ysBCFmVdAgiIiINrJXR5tOiNKyvBCDglqRDEBERaWgevo8VuenFmtVXAtDVtgZQPQAREZGy2a6s97cVa1VfCQAAfnPSEYiIiDQ059RiTeovAXC7KekQREREGtxhLB/aZ6IG9ZcA4H9POgIREZGGl7dTJvp2HSYA9oekIxAREZkEujh7Vct436y/BKA7fTdwb9JhiIiINLidmdl67HjfrL8EAAC7PukIREREGp75ovG+VZ8JgIW6DSAiIlK5Y+m7d9uxvlGfCUA+dU3SIYhIXVgPrAFuxvknMAhsSDQikcayDeGG14/1Dat1JJG4G325YWBO0qFITeWBP1F40x/P84B5tQlHaux+4Fe4/R8+eiMbW7KcNuepMVtmcnMJ/GCcl+McBRxQ00hFGon5xXS2H/+cLycRSyS92fMwJtzCIJONfYmuto9O2OTCoR0ZtQeo19krKZ3zNwL/Iuvu/zmnHTRS+uPd6MutAvaIPziRSeEp1jfNenZCXb9vooFdlnQIUmPuDxRtc2L7w8Bo9YORGngMOIXBtoPpbP9JWRd/gB8O7Aq0xxqZyOSyDS0bj3z2F5uSiCSSYP3vyLeMAM1JhyIisbsT53Wbtv1WZjT1Dur5vUykHljwGuDXW36pfmcATlr4GHBV0mGISNzsX9jGw2O5+AOEtjiWfkQmt2Oe/YX6TQAAjB8lHYKIxMnvo2nkNXTueV8s3fUO7Yvxwlj6EpncFtKb3WqdTH0nAOtGfoa2/IhMFo4FSzhxwVBsPVqgT/8iUQW8Zut/1rPT9ngU5/KkwxCRWPyMzrbSF/e6GxcO7Yj71ruWlnoAfmJcwYlMem5HbPnP+l84U7gNcFzSYYhIRUYJUh+L3Lovux/Yf+H+Cvpye4FBX26ETPY+4DbgesjOAFNNCJHI/LAt/1X/CcB0+yXr/CFgp6RDEZEymV3A4rl3FG3nbvQPfxL3T4M/e4ayGZi76c+r67mMiUidmkPPwHyWdAxCvd8CAFjUtg4jk3QYIlKBMDw7UrtMdinun6ER3ptEGpE1PT0L0BgvMkstAzzpMESkLDfS3X5b0Va9g6/H7JM1iEdk6jI/dPNfGyMBWDz3DvBrkg5DRMpgvrxoG3fDgq+geX2RanvJ5r80RgIA4KaiQCKNx8mHxet59K15KfD86ocjMuXtwwpPQSMsAuwZ2IFU05dwf2fSoYhIqewOlnTcW7ydv7H6sYgIMJ0Na/cE7qjvGYDe3IkEwR24vwtNDYo0IP9TtHbha4q3EZFY+OgBUK8zABesaSOVPxf8GF33RRqY+5+Ltlm+aiZ5278G0YgIQMh+wE/qLwHI5N4M+fPQvn+RxudB8RmA0WkHY6RqEI2IAFgh4a6fBGBFbjrr/Wu4vyfpUKrgMYwHcB4AHsNpwdiRQpKzE9CabHhPc+AR4HHgSeApYCb49mDbAy1JBpeQEHgUeApjA84MYFtgm2TDeo6NwINb/BkBWnF22uK5Vuvf33rmz7u9aCuzA2sQy3gew1mH0UzhdVhvv9d6th64B+MJnI2FL1mA+fY4rcBukFhit25TfI+ABeAzgZkJxlNv9oB6SQB6h/Zlnf8I2C/pUGJyE/iVuF/Lhvz1nLbHoxO2Xnb39rQ0HUTAwbgdDBwK7F7F+DYCN4BdD76K0FaTSq1m9exhllo47qN6Blqh+Xmk8vvjvBzs1UC6inHW2lM4f8C4Bmclod9FRzrLkTb6nJbLh+cxmt8bC14GfiTwMmr75rIR5zeFWP1atkn/g0WWn/AR52fn0MTBOAdjHAwcRiGZqcQDwNiH+zirxvzZPZsxHefGCGPNB3YuJbgtgnkcgmvBr8b9Jprzd7GqI/ec5/uK26axYYcOfHSvTa/FV1LYNlWN98pB4K7xQ2anCU46HMH5MwHXgw3gDGMegs/EbQZGB3gHbgcC+1D5jq8Q+CNwNYFfx0jTv1gyZxiz8euzXO1NZId3I/AFuL8It4MxXoqzoMJYni2HcTXY78nbbXjqbk6eff9zWq24bRobt9uT0A4g5AiMo9l0IZx6vAPq4QZ7b/aNGBcC2yUdSoVC4BcEfIPF6esq6mmpB3SsOQLy7wB7C/HcDhnG+TFBeBmtqT+xqG1dxT26G5nsoZi9F1hEpW+Szn/Tnf5q0XaZ7AZgWkVjbe1GzJYx0vojTpn1eFk99A/OJh+ciHE60BZjbM/2ENg5jPq3OSW9tqKe+u7dlnDjG4F3YBxD6T9TJ59q5+S5uYriiCozfCSEJW4Htj9i4Q9oDX5a9nP+otW7sbG5C/N3Ax1l9fFcIWF+Z5Z0PDJhq0z2r8BBW3zlHrBvkG/qHfMiN5YLh3Zk1C5ni/3fJViD8X1GU32x/Z4zw3uBvwl8CeVv/RwB+xHG+Sye9/sJE5GJ9A8eShicAiymUGp6Cgl2STYB6Bv6KG6fo5HqEYztTrDFdLXdEHvPK26bxvoZJ+B8itLffEYx/zEE57J63nUTfrqvVP+avQnz3wFeVXYfNU8A/A4s+BiL5/2s7DeQZzt7VQs7TDsDt6XEP+X+Y5r8PZzY/nDM/UJmeGcIzwROJ2oybqymM127T1C92XdgXBSx9U2E9lGWtF0R2/jLVjbTsuupwKcxdquwtxG60sWfw33Zy3FeA2zA7PO08pWyEplM9joKs1RRPYj7/+DhOSzpWF/yeJFiyr0Y/C8lPsqBH+F8ku703bHF0jfYgQffB46Jrc96535QMglAz0ArQXAu2EmJjB+vC7Bpp9O5+5NVHWXZymZaZi3B7DNEuz1wPUHq1EgHsMTF3egb/hD4FyhnOrx2CUAe/OuE4aeq9ubWP3wgYfhzCtPWlXoK7DS62opX1KvUBffMIjXyYeAMiv0OnZ/TnX5z1WPaLJP7AvhHi7QaAT5Luu0LkW4/lBXH8M4Qfhd4WwW9lJIA7A12HF1tN5c1Us/AfILUaqLP+K7ANv4XnXveV9Z4UWWyHwM+V8Ij1oC9k6626hwR7270587E+RJTYa2A2/G1XwNwXm4ngvBXYIfUfOzY2RfpajurJkOddtAIcA692UGM3xRp7di017C4yknJsxU+RX+FvmwOp596WWOyFX+cMFjEknR8nwzHsnjeTVy0+qVsbLpsgvu4UTyF81q6234fW2wTKUwr/zeZ7DbAeydu7OVdkMoWHlDkGvYAAf9Z8S24YrrmPQi8nUzuD+DfoJoXC+cumke7OWHBv8vuI5U6EY908R/BOIPO9HfLHqs0JXwAtD+Sbzou8m2PchTev75Gb3YVxo+pn8XZ1RGEbbWdeu8Z2J1pfs3kuPjzQzrnRT/fPD77Rmhj2MZKLjqV6Uz/CKPYJ7UkPECQOjzWaeGJnLDg34za0Th/K7MHx62T7nRtLv5bj1x8X75xSw0i2XLAiWJaQ2iHVv3iv6Wutm8TcDyFWYfqeHTDhyq6+AM4J0ZotR7n2Jpd/HuHXkTU+//OpYSjR1X14r+l7vQvwf4T2FCT8ZIS2i61SwD61qYJUr+P9MZS92yI1IZ3x3bfuKSh6YrULh+xXbUsbvs61NP5Df44Ia9j8bybajrsqW0PkQqPBcpYsOfn0912cewxFXPB0AIsyv3iVO1mAC4c2pHxF1c+iPsxLGlbVbN4Nluc/jlm3RQWAcfv9IWVXYSiXWhHwP6T7vSVFY1VCgsWR2vHNXh+UdVu1Y2nq+1yjHfXdMza27k2U7SZ4b3w0d8yWbaMuZ/FSQsfi9z+wqEd2RgcSCqchdtGAh7C/EHWB/dyattDkfvpGX4BhNH2TBtvZdna0zltzlOR+99s+aqZ2LQUD258quw3IDOnJ/dBAv5BPSzyNE5hSfqvJT9u2d3bs23TXPKp3fAwT8rW0jJvoOiWuy0tnn8PfYOL8eB3RL4P64/T3Fza7aWe3ELMn09ha9+T4A/i4YOkpudKWqOSojNCnE8xMHf8LWxxywcHjHMieEhoJ7EkXfy44fGcvaqF3fccLel3uqXOtovoy+6HU5vbgSWJsM7KOIPOKt1XH8vV3sRQ7u0RXglZNtpbOLXEi/8KT/F4bjeamYP7DljwOE2puzlhzgMl9dOZ7iWTeyV4tGSl0ZjtXP1FgP25PQn9Oqq7r712jNWsblsYaUV939DL8GAp+CsZ/w11AGwlzkpS+d+xeP7408W92W9gfDByrG4n0d124Zjfu9qbyA2/CMJDCG0/jOdhzMaZw9b3vkZwVmHchNmvoPkXJV1MMtnLgNdGi7dqiwCX0ZWOns33rU0Tjp6O2fHg7WO0eATzX4N9k870ysj9ZobOBTs1UlvjG3SmzyzabqkHLMi9B+cMxt/TnMf4J85KjBug6TI652THbFlYCHVXhL3aG3AWga8Z87vhtGzRKdsVt03jqe2KzwgGQRPuHwPGODDIv0JX+4eL9vH0mJ5iXe5YsLfg/iKM3Slssw1x7sdsLYTXY8GFdLZFX6F+tTeRzV0HvDTiI6ItAoyi8AFjHil2wllHPriHjjn3cPfwTJr9X8CsCR79Q7rSJ5Q03lIPaB9+OSl/IyEHFXZE+GywGZtaPAY8CpbDPYv5P4AbmR78gUVt68gMHQt2aZFR8hAcTte8iGdJAH3ZY3DeQ2En0hj1Lexf4BcxYt+N/MGrsODzdib+GTYou6q6CcDy4Xnkw+uIZyV0nbCldLV9pmizTO6/wL9F6bUWBoFLcL+I7vZniqMsW9lM66xhsF0j9+T8lu70q5/+d89AK9b0eoy3FQ5fefoFW4oHMTuLzrZzI7Xuzb0F859GjDf+BMD5NxtG9i5ajAm2XAX8WWB6pN7h+0x//AwW7buxaOv+wdmEwd3R+rYDi676PntVCzu0Xoz76yPEuiUHbsT8Yjzop6vtmYt4f/ZwQuJYc3AcXelfTNiiZ/ilBGH0N/jnyrK+6fmRZ7kyw4dAeC7R1tGAcQU0nTZusvRsPcMvIAhXEm1RYGUJIddX9gAAIABJREFUwAVDC0gFp4O/FthrjBabK+HtOEEvD5Jvfn5J99b7cv+J8znw55UWMBTisT+A7wPMnrCl8X0600UWoW5ywT2zaBrp27RdMor7MT+FzvZiSUhBb/YMjK9H7LuR3FS9qdmL1u5CPrySSXXxB0IrtgJ/8/7Wb1JeoaX5wJmYrSQzdBWZ3GtxN1p2e2NJF38A4yh6Buaz7O7t6R06C0sNFi7G/tYyL/4AO+N+Dpns1yK1zrdeSZKLacw+EeniD9CX+yrOV4l28YfC7/e9PDXjp5vP157Q4vn3YPwgQr9r6ZxXfIHd9tPOKuPiD4W4D8LtC+Cr6c320DtUuCiGnFJGf2OMEBZfH2D5Ayoaw+1jkS/+vUOLILyGqBd/AOc1+OiNZAb/I1L7JfP+gdMbuf9yLFvZTG/2G6TsTvAPMPbFHwrP4Yku/uB8MvLFf8Vt0+jLZnC/uMyLP0Ar+FEUu/jDI2y0T0TqMTO8M6mRP5Zw8QeYhdvP6Rt6a6TW29gPgAhHWjcYY0Z1EoDlq2YyMnoF5Vd5qld5GPlH0VaF8wxi+NnakeCX0ZdbReDnl9FBQJD6E9ObhzD7fAzFS7Z0Jr3ZVxdtVais9/cYxy3FMNMf64vUsi/bDRSfch+L8QbWZb8QqW3g5xXvz/5edIGpu4FF+4Q0sWkY3ZjdQiZ7K9AZQ5+Psbh9sGgrq6j09wDt834cqWVf7iWYLae82hG74MHl9A8Wu2gVWPBlqrUgcPmqmbTs+n+bbgNWuvUwxzaPR3tPWeEp1s+8BI/luRGBLYs0Rb9sZTPkfwLsWcYgAW6Zwoe1IgqFl6pfg6PWnGnxJwBXexP5louBF8Xed/LuibQa1WJPfPbA2b7Mx+5ewWMnZkWLshREq/MeP7dvR5qa7xvswPl+ZYPZf9OXO6Jos5Pa/wk2cULkPlC0n557dyHe+5JG4dNxDLcF7dZIO2SsgiOAnW9HKvSz1APcz6OSMq/GboTBNyO17Zp3J9hlZY81HncjP+2HGIfH1OM3I702ANbnlpY501SOUUb97Egtp+/64cKHpLJNh7CPq734YvggmHwJALTEnwBks1+nknKw9cyJtvLfiL9Ua12yQzh7VZRyt/GV7IwupMkilo21zxJH0Q/nk9GG818XaVH8efbEE48B1al0VymPWCCo/C3BIXmiffpfkD2ReA4Ze2ukT4sA5mMvvK1EZvgEsNfF1NsItjHaBa13aF+c6IssK3dVpDMuMsM74/6RyoezvRkaLl7RcfG8m8DGPvSqccWcAPTl3gn2X7H2WU8s6qcju6S6gdSNVmZMLz7bEfhwDWJ5tj9y0rzi415wzyzcjo9nSH8lfWujbHW9fuJvW/HX5ekLN+D8KlpcNVc8Acjk5lL2yX5cH/kgJA/iKtZlEPWCM+1SINqn6yjcjSCOi90mZldGLvMb2HeI9+CtYqIldh4uqWAd09Ys6ja/sHZFpmojxlsA/dnDcf9ObP3Vpx0itWqddwGworqh1AnLF38TNyY+8aw6ohU1SY2+nfgO7TE8X3xdRD4/8fYy82i3bPK8D6h98ZtiAi++gDGsoCCY89tI7Xpy+1ewYG0sr+f8+4tfdDp3fxKn1ENuxtc7fEysBdTco92iyOQOwHlFbONGEmGRNYB5lOqGUb2SFbkIC3+D+H6n9SGmBGD58DxC/ym1zRSTsHukN4BFlmd62wmYn0VhO87kFQTFL1aewM/APVoVQvO4plU39cfBRdsUjoC9Z9zvu423sntrp6TXQnAIcBHjVMlJgLNutHgCEFRyQfOrIzUL/LjyxxhTC81PRVttHnBtbKOaV3Lo0HN50bNENgmj1ayIz51bbUkdT//gbLBoBdGiaebJKP2F/4pxzHqQr7wS4FIPyGf7St6i1piM1LpDiPLpslBV7ItctPY8Rkbfg/O+mFfhx+khnBsxVoM9AuHDwCM4TsA2OC2YNREym8Dm4z4fPA02g9CLf3rOp0YJqncS8Vgjsk1QvP6+u9GXOzTWkd33idhyFeNuh/KDWXHbtEiLtAoH05zI8qHPkeeMTZXfkjzEZCjStkvz/cpMWUKCluI7cQqDvCL2vCi0VwI/KdrO7W+xjW28Mp6OAHiohGN04008ijGPVqnT7WXEslh1y7HD5wN/nrhN8514fS67KdOGyhOA+dmPVLgSs7EE9haiTi8Dm8pPfpazV32ZmS3/WSjCwzEk+yb9CNilePgrPLyBJR2DZfVy4dCONE+v3kEo5bs70pnpy4f3AGbGPPa8iO0enOB7M3lq26OBYosFn3FS+z+Bd9J318fx5ndAsAj8EOJ+oywu4gJAL3ay39iMwciVKN33rcL/fbQ6AiG3xlIAe/mqmeTHPQOhDEV2oGx2wdCCBD7U3RqpldsLYh85sOI/49amh1inBOAZfbmX4F68Kt5k4n4SF63+VMkndBVq6v8Q+CHL7t6elqY3gR2P8WriuwddzF1gX2J96qKyzgh4thPb63O3g3NHpHaL2+6i9hfIAufRCUc2+3+UkgBsVljc9S3gW4UFiaNvxTkeeAm1+H/1CCcEFsrmlrdV1ol2/sCFQzsyWoUZNyPaDM/8eQNkc3kq3a+fb96DOH9v7tHWjDTZi2t+U8mDaK/brvTHgY9XN5gxvHXWk/TlRqnLY87LsrH8HHX5qpm4X0gl+2sb0zaMNH+loh5O2+NRutv76E6/kdSGXXE7CedSqret6wmw01l/3z50tZ0Xy8W/FCmv7VuJlXPyXo0FVmSrnx0ZuVLZeDrnZOlMf42u9CHkU+2YnwFEP7ugLBG2AK7J7kW5Sa9H/N1utHKKw0Sx86aTCSdWqFEQbaX9hJqiLTyOKiDqjpzKqjSWp/j9/yQVals8nnQYMdpQfgIQtnyR8Q8fmeR8cWHLYwxOWvgY3W0X0p1+I6O0U8hsY7yA+T/I+4F0tX2b0w6qx+n6KrDxF9jVC/cnirexc+gZiGcV+8lzc3S2f5Ou9MEEwQuA7wHxJ4IeoQRwvoICQGbRZt7M476184x8c8TtZ17aLOGYwnj/P3yCxadbt9sp1nGjyAf1/7qF4q/bxrGuvASgZ/ilOKfFHExjcf8Bfdn3xdrnKem1dKU/z6MbFgDvg8jZ+niuZH3zYZzcvjqG6BqHRbi4Ji/KGpAdCFK/33Sme3wWz7uJrvT7aB5dAP4V4tupso5t5xefYq5kS5tFTFrMtit7jGKCkYh9W/RTM8ftIuZEJurPL+qW5zi1jE6W122jeKj0BGDZymaCcBn1cMZ7sgKc75DJfi3aHtISnL5wA13p7zE6fR8Kn9TKmEK3PzLdjqv5dH99KO388ER41CImszCupjf7jthDOGHBv+lq/zCBHQCxbFv756bdLxOzSmoAhNEOljIb4zjYmIRBxN+dxfA8tLgTgKgx1T4BaA4a4HVLPMWH6sODpV/EW3Y7g2TuD9WrM1nnN0c6GKdUp8x6nK70+wonXXkJ9578PoL88ZFWwo9n2d3bc+HQjpyX24lla7cpu58khFU6jCVWQQlvsDYD4yIyQ7+mNxv/bbfFbXfR2XYk8KkKe4q2A4CKZgCSWbS5pbxHfX5VHmsY4ZTJUniEKpMAFuGchbjdu76+X7c9A61MrhmAB0tbzdgzMB/zT1cpmEa2J8ZvyAz9CbcvMtj2K5ZafE/m7vSV9GVfiXM5sEvxBwT/j8Vt0e+nrchNZ134eiw4Gg9fDOwBNoNRoNmheRQy2RB4FONhnBzGEKEPkgr6N62mrycN8CL1BaU/xl6H8Woy2RVgX6KrLeoFN0LX5sBn6cvej/Ndypnhi7ID4Pz7Z8C6+SX3/cwY0X63oT9RtVShKRXtTJB6fB6GUY+6Dh+p+QaZlqCVJI8OL6Y5WEDx+a1GUmICEKQ+BzTWp8GaskMwfkFHLkdfdjmBL9+0P7tynemV9A2+DQ9+y4Rvzv4POtsupCtCn2evamGHaWewzs8Em4U7E7zoA2BHnB2BBThgBmF4C0TcmlUrFvFNrnfoMCz4QJWjeRYfAbYDXlhmB03ACeAn0Jf9K2792IYfR67tXkxn+gf0ZXfG+d/SHxxhB0DThv2o7MoS7f0nCJ/Aq3SXcmM+4mycV28dQrmCiD8/t+LFnOK2TWoboPi4vUNnYcF/VD+gLbg/SZ6X1HTMajMvIQHoH3whIW+vYjiTSRvOWeTtLDLZVcAvCPglLW1/jHSPdDyd868ik/068KEJWn0z0lGs5+V2oplLcY+3Et5YvMY7is2i7f9OsQ2hV7bVLknOweAH49O+SSb3Zwh/SRj+giUdlZUsXd32BTpyb4AS3/DCacUTAM/vj1X0yXKc6onPYjxStWdd87SIF0ffPakyE+Ny5kRqZzxU++LSTbsyUYnszQJ7Hl7j122d/Rpj4dwTPUXOB19EC//KsRD4ECG/Z112LZmhc+jJvYYVt5V3boJNW8r4VeRGWD/686J9uBvNfgnU4OKfiHBupGajwb1VDqRWgsLv0r5IkLqdTPaf9Gb/l/7B8mYZllqIhaWeoncPJ8++v2grq2ALIABBxAvYyF1U53yE4UiVCFfcNg1sVhXGr1AYrVJlaBHLLcfIPdrrNvTJ8rpNlgWD0S7o/UNHYxxd5XCmANsV7J0EfjnrZvybTPYHZAZLm8rq3P1JsHHO8vaVkeqw9+UWAUeUNG4j8SDi/fXRHPVziE6cno/xccLgRvqyd9OX+1ThAJUSdM6/itJOGix+/7+gwgTAox2UdNLCx6h8G+1Yot3Se2q7hdTl58aIB03l/U9VDuS5PGJdGQtyVY5kikgNFE8A3I28fbEG0Uw1OwCnQfA3+nK/oj8XvXLZeMd5WhDtTdgn+60c34dlK4tXqCycyndb9eNJkLMA988QBqvJZL9G373Rt8eZXV7CSNXfAVAwj56BaDsorAq/26h9BpXOdFSJcSDuxROTU9JrwYZqENEWwoi7y/J/qG4cU8IIrbPXFE8AeoePwcpesCRRuL+e0G8iM3RspPbTRm8a8+uhR8uMJ//vs4Vpu0c7tAWuqWYgdaQVOBPf+DeWD0ebBnYf+3k2FouwADCTmwsxVJgLgoMitXN+W/FYzxZyRcSx4y3eFBdne5avjTYLYPyiytFszS3a+9JA+01AfZ5D0iiMHIssXzwBCPjvGoQjsA3YT+gZmF+05Ts67oOxNqR41O1JdXhvMmYWRjuhMrSLqxxJvdmLfHhxpE+BZtHvteZTUWafYqofEvH0UY/5AmY8yjaPXxOx9StiHTtO+dFjorXjPGp5i8w4kPNyxRPEwhbrn1U/oEnMbQCKLerryx4EHudZ1DKxVix1atFWhVX+zy3yE71ISuUlSutdQLTCTEvargFuqGos9efF9OeKf0LNRy4bO8Lj624v2qqSEsBbi/a77U7fjfO3mMYE5xIW7buxaLsL7pkF1HabWinMXhep3ZK2W4CfVDeYraSYFh4VqaWFX4VGKPhVpzbdypo4AXB9+q85o/gCtsKntzH280Yuf1rb0/LCGp8GCOAcRd9d0c4zD/wTTLU3kzBCISLLR30+3bHpuOsi/bFfxP6KOShyRUSzMuoZjClPkPpSpJbByPFUegxwdR0VeVHoKGcAD1U3nC24RVuf1Dn/dqC/usFMarfCRAlA32AH8JZaRdM47O8QvhDnfKoyPWbFC7r03LsLY/3ujIj3dvlrqVE1oGZoPiFSy8XtvwX/bJXjKY3xDSw8CvhLVfoPgggn1QXREqjIOwDC+BbGmZ0UqV3nvJ9jcTzfvYfFc6OdV2++uPLxqqoJtyilwgqLAd0XUbsKfcdy0doI1U4Bm/Y+LPLuE9lS3m6BiRIAD06lvrPYZLh/m675f6c7fSoBRxQSghhFWWTUvGHh2LHZ3pHGcPsWMPmPBvbgg5HrLQyk/wfnm1WOKKoRmpo+T+f8qxhoOxTnvcADMfb/MI+s/3PRVhZxy1iUBYDLVjaDPT9Sf5GE7410CFfhdtnJVHL0sbGaJj4cqW1m+BCwQ8oeq1bcTo98iFl3+//hfhR4PNUmJzaNjaMfjNSyc/cnSY2+Abz2NQsam7PttAlmAFZ4CiIVk51q1tG04ZlFY4vT1zEw7yCck4GByru3/6N73m+KNgtTh439DX9JpAvekrZbcH8/Yy4knEy8nfUzTo7UdKmFdKfPAN6OE8M57k+7C/cvg0f79AiA/YYT5jywRVzfJ8wv3NRPCYdCjesTkabs3cd5nj1bUDwBaJm1F9ASrb8obFfWUXy9DEBn+lacN1PW2hcbIuTVnNgecdW5l1pAKSmzWe/vjdy6u/0PNOVfjHMp1V4YaPxX5FmAExcMMT04FFgGxHWAUR64ctNR2bU/FKnajAEW7foEjJcArB8+BohWlWlquXRTgZFnFN6ge5jethC344HfUc6F1bmOcPT4SGV88deP841tWTcz2iKa7vZz8PBNwGDUEBuS8zkuWh2tNDBAV/rHbGMdGO9n032yEoXAzRhfIAwOobNtL7rbP4KVsp7Gn1voaUnHI3S3f4T1o22b1uaUGZstpSv9vaItL1q7C8ZLI/U6GqH+RFX2xfvSyBeK7vSVuL8E7I9ROwcuAnsR3em7Iz2iJ/ca8GhbeeuB86nIW0KhcLHtTr8R94OBi4DilR83j+T8E/gqxsE0jc4vksjOZCT/9chxLWpbR1f63eR9bwqJQDmzZU8BlwPvA2unK30MXe0fBpt8uw3cnl4YO/ZZAM6SmgXTSGyMN+bNCjX+LwYupu+uXfFpx4K9AvwgYAFjf/oJgZUY32egrS/SCYKFxU+Hj9/A303hiVxc9/xfs8KvYN3wGzE/DucQYA/GTAz9cbBhzFYDd4PfjoU305KK9xZI/HZipOn7uL8lWnIFm45R/i7wXS5avRsjTa/AfR/MdimUdw23heBJjIfBn8R5AmM1cCtMu32rUrGbX0nr7r+C1l0foPhpjo8x3X457ncLlR6/CnyV5UP7ENprCTli0wK7NGPftnsC+DXGV+lsWxnpZzAyciJY8WJK8DAnzy1efyJkvyrUxdtp04WiM1Lr7vbbgMPozb4c463AwRQ+6OxKIWlfC6zBuQ7PLy/pTIXz759BsO47pf4PJGwm+fwy3I+N/NoA6G6/ETgRd6N3zYGk8vsDOxPaLpg1YR4S2iMQ3kvgw3jTTXTP27p8eSb7U5joOuOLyWQvpisdfSvnye2rgXez1N9Lx/B+mB+OezvYLsDOOCGBP4nbE2CPYOEjmP0L7Fbunrd67PdfvxBo3PNCxmLh04WUnvuSvGjtLoyMrgHKq1U/eT3A+vvmcNpBpd87X+oBCwfayKfanj7ONLRHad5wx3NmFIrJZM+ncE9zPA72UrraytvadvaqFrZv3YWA6YyEIS35PM3N9226KJanL3tQpIWHzn/Tnf5q0XaZ7AZKfX4an6Az/bmSHhO3vuz3cN4zYRunl+50eQn4itumsW77+cDOkN+WwDbg4QO0tt9Z0iFUPQOtBKlVEGlR6bV0pV9RtFVv9pcYb4gcQymMJXSme6vSd1SZ7IVAtEWnBSN0pYs/h3uHTsfsW2XHFYXZp+ls+5+qjvFsmeEjIbyqSKvHSPkhsZ2oWo4Vt01j3Yx7iKOAVb0IeTFL0n+FsWYANo78J2a6+D+H/6ysiz9sLlwxtOlP+foHDyWku0grAz+HnoGXsqRjfcljFO4NryknvLrm/A+Z7D10pS9ILIbQL8Rs4gQgsPL3XRf2qN9Z9uOfjqHp0+ARp4YjLAAEsNhqAIwRAt8nMzxE17yrqzbGRPpyn8K9lIt/fXH/NJncarraxp/hjNvA3GvpyGUpzFqNZyZ5+zUXDB216dN97S3adyN9uZ/i/q5Exo/fU2y87+lFk2NtJXtTTcNpFMZOkerLV8sF98wiDJYT7UTGAwlSP4hU7W3qCIDz6B06PbEIutJ/pOhiUZ/oDbH6Cvexo69XiHL+xPJVM4H2CqIqphXyv6A3+/IqjjG23tyHcf9MzceNVwDeS1+2u2YjLrUQ48IILeeTsmvpHYpa2jt+oUeJszEYN2z5QXbri8mK+7YDU+W/sbi9hZZd/0FP7hU1H/u83E6kRi4DOkp4VBd92WVc7WOv85iaDLNv0Te0vPBcr/Xo5hg/mrCN830y2Z9HKgkdt76hlxH4jylt+2/xGQBv3o+qn4xnMzCuJDNUm91Ly1Y2k8n+APNoxYHqXwqnh97sN2r3QSeMWshnHmZ/oXco2lqPuHW1XUd1TpZMwvVb/mPrBOCpDcfApnvU8lzGPgR+FZnsRfTkxt6LH7flQ/vQ7NcD0Q5A2Yq9k2zud1wwFPF43CoJqc3PKiq3E1m3/jZ6hxbVfOwwUsXBNxGkbiMztDTyyXeV6htajNsVwMwSHhVCc/HdCGHNTsZrAeslk72IzPDOVRslkzuA1lk3AKdVbYykGB+kdbe/0DsUcQtoBTrn315CIZ9tMcuQyV1as/fezc65Zzr45Cifbly59T+3lMn1Qd1XsaoXeZyfEPh36Wy/vnjzEhUWYp0JfAKIVrBjfE+BfZt809c4eXbUrTvl6xvsgNR/4H4IxhE4LyTKp8pqLgIc31/Av8r09M9KWihXimUrm2nZ9bUYHwZKfWN9DPcfgJ0TeTtaKXoG5hOkvg68uYxH30VXuvibcW/2OxjvK6P/SjwAfIHp9v2KFrBu6fzsHJr5BM6pQKWfkkfpbJtWdPV9ZugDYEkUqHLgZ7h/ne72+I/fPXtVC9u3vAY4Hyg1WduI0w/+jU07O6rjgntm0bTxFNw+AOxetXFqxXiUtrZdONJGn/nSZks9oCN3H6X/MsT5J2a/xP1y2tv+uOUPuGTLh+cRhl047yf+J90GsEtxv4Sw+XcVJwNLPWCPtQvJ519YOGLY/gP8hcCO5XVovyIcfSfTgvGL1OSDQ3D/dXn9TyiHczEpLuGp+/5c9oLPzTK5uRgvwTlu097wMn8mTwuB68B+jfnldKbLqQPwjP7BQ8kH78Q4kfIvZivoSr+taKve7O+xibauVpPfB7acIOhj8bzoxxtvVkjejsToppAkxTdD6v6xicsUB83gnwZeEtuYZfF/gF0C9gsG5t0aabvyWHpyCwnCQzGOxu0NlDbbNGZgwB8wv5hRflnxQsFlK5uZvuveuB+F2XE4hzOZquGaX0xn+/Fbfenpv/Xk9ieIuKJXJvIIcC3GP3G/Awv+heWzBLZ+q2piffduy2h+J1Iju+C2P9ghGIcC+xFtoV8choF/gd8OwZ0QPo7xFM7DGOtxWnHbhsBbCNkRgh0IfD7OfHj6T6WzE/VoXaHEs/8NZzXmOYx7CVmHh0/iwUYs2BYLpxUOYPLdsWA3CjUU9gc/kOon0lngD5j9C/c7ILyT0eDftPq6p59nKzzFE/fuRHO4E/n8bhgHUZiBOASIdhjMhOzDdLV9ZcImV3sT2dwjQNSDharpXpxrCPwmnLsgyGL5xxm1QsKZCrYjyG9H3vbEbE/gxcDLqI/Y64PxaGFLr92G+xD4GoyHcNu4aZp8B7BtCdiG0NIE7IGzR+EcCIt6tkS57qVwsuet4Fnch/HgvkJdAh4mMAMv3FKzYFc8nIUxu1Ci2g4A35fJvP3d7F10tp271Zee/lsm+14KxU+kutZRuMDHWBZV5Dk2Uu03s9CO3HSc8vh6hl9AENZ7sSiRyc7Jp9qfXbSraYtvH17tdboCTM5PzFJ/qv1JJqR5/d+KtrKw/g/GEZn8/jpWxc5nppqt5MVJIjJ1/S1SFUtL+v61iOCMWWCskAAUtom11TIeEWlg7pdFa2hKAESS5Xj+p2N9o5AANPGimoYjIo3NU8UPnMrk5oLvXYNoRGR8N7CkY3CsbxQSACe5Mosi0mhyDM2NcNiUv4mqVwAUkQnZ2NP/sDkBKBwlKiISxbkR94KXU1xIROIzygg/HO+bm2YAAs0AiEgUGxjl/KKtLhzaETii+uGIyAQu45T02vG+GXD2qhbwPWsZkYg0KOMrE72hPG2EN1B5uVwRqYT5eRN9O2BG615sWQ9ARGQsxi202uejtQ0m30E5Io1lLW3pCRfrBlg+2fPHRaQR3I6Fx0Q6WKcvexD4oTWISUTG11vsXJqAIDWnVtGISJ1x/klor8X4As7fgAe3+O6DwG9w/wDT7UUsnn9PpD5DPlWNUEUkslGaRs8p1qgJRwmAyJTl32JJ+grgCuBjAKzITYd5G8s6HjkzfCSEx8Ybo4iUxPkpJy4YKtasCTyGU8FEpAFtoHmMPcJRpvnH0nfvtvjGc9Def5FkOV+P0iwAm1vtWESkHtmlWx1RXQl3I9x4HqAdRSLJupYl6b9GaRhgvlu1oxGROuTeH1tf/bnPYbw9tv5EpDwRP/0DNBGyrSbsRKacB9hwX/F6/sWs8BTrcl/GOTOGmESkMjcz2ParqI2bMJ1PLzLlOD/mtINGKupj+fA81uXOB14dT1AiUhlbGrFMN1AoANRaxWhEpD6Vf/G/4J5ZpEbfSz78ELBdfCGJSPns73TO+zld0R+hBEBkKjI+SCZ7LNivCbmC0G8et8TvhUM7MsI+GAdh9hp85EigpbYBi8iELPw0Zl7SQ8hk16EkQETwxzG7H2cDeIBZM87uwDZJRyYiE7qBzraXlpoANAHTqhSQiDQUm4EzY9PfoaS3EhFJTMCHSr34Fx4GE9YKFhERkbq1gsXp68p5YABsjDkYERERqb71hPmPlPtgJQAiIiKN6ess6Rgs98EBsCG+WERERKQG1jA6/YuVdBCAPxZXNCIiIlIDAe/nlFmPV9YFwYPFm4mIiEiduITF6Z9X2kmAuxIAERGRxvAY2OlxdBQASgBEREQagfNRutrWxNFVAH5fHB2JiIhIVf2OrrYfxNVZgNlQXJ2JiIhIVTxMPnVyORX/xhNgNhhXZyIiIlIF7u/m5Lm5OLsMCMLBODsUERGRWF1Ad/uKuDsNeLJ5EB37ISIiUof8Dkanf7AaPQecNucpjIFqdC4iIiJlewJZy0P+AAARw0lEQVTnLZUW/BlPAIBzSzU6FxERkTKZv5fu9tuq1X2w6b83V2sAERERKZHxDTrb+6s5RCEBMNcMgIiISH34PevuK/uY36gKCUA+/Gu1BxIREZEijNXkm4/ntINGqj/UZpnsMDC32gOKiIjImB6E4FC65t1Zi8GCZ/5qf6rFgCIiIvIcGyF4a60u/rBlAuD+x1oNKiIiIk8Lcbrpmnd1LQd9JgGw8JpaDvz/27v7KLnKwo7j32d2l2QjYpUEMWRmNxqsFRQ1UqoFK6D1pYL0xVUgmck2COVINSpaq1TAF045R6CAR41KYBdEG5S2FhMEbaJgKRYoirwoCSG7mwQDISW8JNmduU//iCkBkrCbzMwzL9/Pvwtzv3uSk/vbu/fOSJIkAP6WeYVv1/ugT98DEGNgcHgN8LJ6R0iS1JZC/HuKPf+Y4tA7XAEIkcCNKSIkSWpD56U6+cMzbgIEMq5P1CFJUhsJF1MqfCZlwTMHQDn8EKj5s4eSJLWvcD6lfE0+4GcinjkATsk/CvwoTYokSa0unE8p/6nUFfDsAQAQuSZBhyRJrSwSOLNRTv6wswHQFf8VGK1/iiRJLWkMOIVi4YLUITt67gA4uWcjsLT+KZIktZxNRN5DqbAodcizPXcAAIR4WZ07JElqNesgeyvzCjekDtmZnQ+AfGEpsKa+KZIktYp4Jx25P6TU+z+pS3Zl5wPg6FAmckV9UyRJagnfJkw6kjkzRlKH7E7Y5VcG1xaI5ZVAZ/1yJElqWmVC/ATFnn9KHTIeO78CAFCcPgR8r34pkiQ1q7ieEN7WLCd/2N0AAAh8qU4dkiQ1qfBjyuH1FPM/SV0yEbv+FcB2A0M3AUfWPkWSpKaylcBnmJu/kBBi6piJ2v0VAADCebXPkCSpmYT7IHsTxcIFzXjyh/EMgFJ+KcRb6tAiSVKjqwBfYkvH7EZ+xG88xneHf46zyWjINzKQJKkuAncRwymU8j9PnVIN4/gVADC350bgp7VNkSSpIW0hcBab189ulZM/TOgZ/2wB5G5jvKNBkqSmF64jxgWUCitTl1Tb8z8FsKOB4UGIc2vUIklSg4i/htxHt90H15om9tN8R/g08FRtUiRJSu5hCB+mUDi0lU/+MNErAACDQ58h8oUatEiSlMpG4Et0T76EvgOeSB1TDxMfAMtiJ0PDtwGHVT9HkqS6ehLCl+nMzufkno2pY+pp4gMAYGDkTZDdjDcESpKaUlwP4cuQ+wqlGRtS16SwZwMAYGDoUuCM6qVIklRz9xO4kMlhgL785tQxKe35ABh86AXErbdD+P0q9kiSVG0ZgRsILGRl/vucE7LUQY1gzwcAwBWrZxPCLUBXdXIkSaqadRAGCZWFFHtXpY5pNHs3AACuGDqLwOer0CJJ0l6KjxP4Pln8NlN6rqcvVFIXNaq9HwCLYwebR26AeEwVeiRJmqjNEH5A5DtMYUm7/25/vPZ+AAAMrjiAuM/twIyqvJ4kSbv3IIGlEJfCpP+geOCTqYOaTXUGAGx/NHA5sE/VXlOSpG0ehfCfEJcRsqUUe+9NHdTsqjcAAK4YOp3AV6r6mpKkahgDOmiO92/JgBUQbiVmNwM/o1S4hxBi6rBWUt0BAHDF0EUEFlT9dSVJeyHOY0vXNXSXX03Ga4BDCLxm26PccQbbxkG9ZcAaiCsIubuI3EUWf8Fo592cNt3Pnamx6g+AxbGDzcPXAsdX/bUlSXviZor5t+zyJ+iFt3XRPXUGsbOXmPUSYg8xTAX2JzAV4lQI+wP7QuyE8MJdHyo+DqHMtg+O2wBxA4SHgUeADcQ4QgerILeKSZuG6DtktOrfrcal+gMAfvcmQaPLgTfW5PUlSeNVJgtvoD9/V9VfeeHaKew7NonKpFFvwms+tRkAAFevncpYeTlwSM2OIUnavcgFzCucmTpDjad2N4OcNP0RyvwpsLJmx5Ak7UZYTaX73NQVaky1vRt0fmEtIXs7MFTT40iSni0jYx7zpz2eOkSNqfaPgxR7VxE6jwJW1PxYkqTfiRfQn1+eukKNqz7PgxanD5FVjgLursvxJKm93U2WfTZ1hBpb7W4C3JmrH3gpY11LIb6+rseVpPaxBcIRlPK/TB2ixlbfd4Q66eW/JXQdRQg/qOtxJaldhHCGJ3+NR/3fErJ44JNMnvFeIl+r+7ElqaXFSynmL0tdoeaQ5j2h+0KFeYXTCZwJlJM0SFJr+SlbHv546gg1j/reA7Azgw8eQ8x9B5iWOkWSmtQwYfSNFGetTx2i5pF+AAAMri1A+btEDk+dIklNZiOBt1As/Cp1iJpLYwwAgGWxk6GhsyD8A83xcZWSlNpmcryDuYWbUoeo+TTOANhuYORoyK4EDkqdIkkNrEIIfRTz16YOUXNqvJ+0SzOWQe4wCFemTpGkBhWJfNCTv/ZG410B2NHlw+8kFxcChdQpktQgKsCplAqLUoeouTXeFYAd9eevp9x9KIGLgLHUOZKUWJnIXE/+qobGvgKwo4GRVxLihcT4Z6lTJCmBUUI40cv+qpbmGQDbDa4+jhjOAw5NnSJJ9REfJ8v10Z+/PnWJWkfzDQCAc2KOlw/9JTF8AXhl6hxJqqE15LLjmdt7R+oQtZbmHADbLYudDA/PIeMTBF6dOkeSquznZJX30j/zodQhaj3NPQC2izEwsPrdhNwngD9JnSNJey9cQzcl+vKbU5eoNbXGANjR5SOvoyM7lcjJwH6pcyRpgkYhfpJi4RJCiKlj1LpabwBsN/jQC4ij7wdKwJE0+iOPkgQrCXyAYuG21CFqfa07AHY0MHwQIXsfMbwfOIJ2+b4lNZPFdGz9IHMO3pQ6RO2h/U6Ei9ZNo3P0rcTccRDfA7w4dZKktraRGD/FvJ6vpw5Re2m/AbCjZbGToTWHE7M/JnAU8GZgauosSW0ixG/R2bWAk6Y/kjpF7ae9B8CzxRi4auQVVDgMstdCeC2BQ4EeoKuGR94CrATuJsY7If6SrOuXdFT+HTishseVlMYQIZxOMb8kdYjalwNgPBbHDsZWzWC0aya5rAc4EMJUYH8iUwl0Ay8EOoEuAvsSw2MQMwhbIT5F5AlgAznWAxuI4bfEbBUd8QHm9q7b6XEHVp8G4Wv1+jYl1dwm4Hy6w0U+3qfUHACNbPH6fdmyZYTIi1KnSNorZUJYRKV8tm/qo0bhAGh0A0OXAmekzpC0RypEriGXfY5i772pY6Qd+Wx8o+uIX02dID2PewnhFCL3pA5pIFshfoNceBXzCid68lcj8gpAMxgYWo5vcaxGFeinWLiCGANXjryLyMchHpM6K5GNRBYRwkWU8mtSx0i705k6QOMQw6WE6ABQIxpi8/pvAfzubWuXAEsYHDqUjPkE5tD6j9ZG4CZC/CaTc9/15j41C68ANINzYo6Zw78ADk2dIj1TXECp5+Jdfnnx3fuwed/jCbl5xPh2YJ/6tdXcELCYXMc3mXvQr1PHSBPlAGgWA6v/CsI1qTOkHWyge3IvfQc8Ma7/euHaKXSPHUvMvQ+yEyC8sMZ91Rd4AMJ1kF3D3MLP/LAeNTMHQLOIMTA4fCfw2tQpEgAhnE0x/7k9+n8Xrp1Cd/kosngMIRwDvB7oqGpfdTwC3ATxJ3RwI3N6vNFRLcMB0EwGh/+CGL+XOkMCHqUzzuLkno1VebVvrX4xFY4kMpsY3kBgNjC9Kq89fqMQ7gZ+RYi3ksXllAr3+FO+WpUDoJnEGBgcugPC61KnqN09z+/+q+HyVQdC56vIMQuYRchmEUMP8FJgGjB5D151I7AWGCGyjhBXE7mHXLyLfM/9HB3KVfwOpIbmAGg2VwwdT+DfUmeorf2GLesP5bQ3jiWtWLx+X7Y8NY0svASAjjCFLE76/69HNhJiRiU8RmdXmcmVh71DX3qaA6AZDQwtAd6VOkNt6wRKBUeo1OR8J8BmlIWPAFtTZ6gNBZZ78pdagwOgGfXn7ydwYeoMtZ2MLJ6ZOkJSdTgAmtXk8HngwdQZaitfYV7P7akjJFWHA6BZ9eU3E8LHU2eobTxIufvTqSMkVY8DoJkV89dCXJI6Qy0vEuMpzJ/2eOoQSdXjAGh2YayfyG9TZ6iFRRYyr+fHqTMkVZcDoNkVZ60ncFrqDLWsISrdn0wdIan6HACtYNtjWQtTZ6jlZOS89C+1KgdAq9jS+TEI96XOUEv5InN7bkwdIak2HACt4rTpT5GrnAyMpk5RK4jL6M6fm7pCUu04AFrJ3N47IPr7Wu2tNYSxD9AXKqlDJNWOA6DVbPuENu8H0J4qE+IHKM5anzpEUm05AFpR9+MfBn6aOkNNKPJJij03p86QVHt+GmCrGhjZH7JbgVekTlGTCOHrFPM+Uiq1Ca8AtKrSjA2E7DgCj6VOUTMI15Gf8aHUFZLqxwHQyoq99xLjHKCcOkWNLN5CN30cHfx7IrURB0CrK/VcB/FEHAHauRWEsRPoy29OHSKpvhwA7aDU810ipwIxdYoaylqyytu9419qT94E2E4Gh+cT4zfwz13wEB3xWOb03JM6RFIaXgFoJ8X8ZRA/mjpDyQ2RC0d58pfamwOg3ZR6Lob4Kfx1QHsKPEBn+S3Mza9InSIpLS8Ft6uB1SUI3wC6Uqeobn5DR+5Y5swYSR0iKT2vALSrUs8AMftz4MnUKaqDyB3ksrd68pe0nQOgnc3r/QEZR0P0LvCWFpfQufVo5vauS10iqXE4ANpdf+G/qfAm4P7UKaqBEC5hVeE45hy8KXWKpMbiPQDaZnDFAcRJV0M8NnWKqmIUOJ1SYVHqEEmNyQGgpy2OHTw1fC6BT+PfjSYW15Pl3k9/fnnqEkmNy3/k9VyDw+8mxiuBl6RO0UTFZZTDHOYX1qYukdTYvAdAz1XML6HS8Trgv1KnaNzKEM9lVeFtnvwljYdXALRrl9w/if0mfZHAAqAjdY52aRVZ7iT6ZzjYJI2bA0DPb3D4CGK8DDgkdYqeLV7FlvIZnPaKx1KXSGouDgCNz8Lbupg87WMQPgfskzpHrCTwIYqFH6YOkdScHACamMuHX0NHvIzI4alT2tQYhAvJyufQP3NL6hhJzcsBoIlbFjsZGj4V4tkQDkid00Z+Qlb5G/pn3pc6RFLzcwBoz111/35UJv0dsACYkjqndYX7iJxFaca1hOCnOEqqCgeA9t7A8EEEPkuM8/FpgWoaIcbP01NYxNGhnDpGUmtxAKh6rhw5jCz7LHACvsfE3niYEM/jf0e/yocP3po6RlJrcgCo+i4fPpgQP0agBHSnzmkagQcgXsrYlMuYP+3x1DmSWpsDQLWzaN00Okb/GsJHgJelzmlgPyPEi8kX/sVL/ZLqxQGg2lu4dgrdlZOJsQS8Gf/eAWwm8s/E3MX0z7gzdYyk9uM/xKqvwbUF4tiJEE4BZqXOqbMMuIUYB+kc/Q5zDt6UOkhS+3IAKI0YA1cNH0kWixDeC0xLnVRDtxLj1cRsMf0zH0odI0ngAFAjOCfmePnwG8h4J4F3AkcAnamz9sKjEH5MzH5EzG6gf+aDqYMk6dkcAGo8l6/6PXK5twHvgPBHwB/Q2O8v8BSBnxO5kYwbeUH+DvpCJXWUJO2OA0CNb+FtXUya9kpgNrncbGKcDRxOmg8l2gTcRQi3k2W3A3cz5Ym76DtkNEGLJO0xB4Ca0+LhbkazmVRyPZAViCFPCAVi7CWQJ/BiIi/ag1d+FFgHcTUhN0IWhyEOETqGCeUHKfauqva3IkkpOADU2i5fNZl9ct1Q2Y+sq4tKtm0UhJhRCY/RkdtKZ/YUXU886U/xkiRJkiRJkiRJkiRJkiRJkiRJkiRJkiRJkiRJkiRJkiRJkiRJkiRJkiRJkiRJkiRJkiRJkiRJkiRJkiRJkiRJkiRJkiRJkiRJkiRJkiRJkiRJkiRJkiRJkiRJkiRJkiRJkiRJkiRJkiRJkiRJkiRJkiRJkiRJkiRJkiRJkiRJkiRJkiRJkiRJkiRJkiRJkiRJkiRJkiRJkiRJkiRJkiRJkiRJkiRJkiRJkiRJkiRJkiRJkiRJkiRJkiRJkiRJkiRJkiRJkiRJkiRJkiRJkiRJkiRJkiRJkiRJkiRJkiRJkiRJkiQptf8D4ym3QFzF3fAAAAAASUVORK5CYII=;" parent="1" vertex="1">
          <mxGeometry x="677" y="229" width="48" height="48" as="geometry" />
        </mxCell>
        <mxCell id="_SaHxXhYvdPaZlUhFqMO-3" value="Sales Force Lightening Framework" style="rounded=1;whiteSpace=wrap;html=1;strokeColor=none;" vertex="1" parent="1">
          <mxGeometry x="272" y="190" width="564" height="30" as="geometry" />
        </mxCell>
        <mxCell id="_SaHxXhYvdPaZlUhFqMO-7" value="" style="endArrow=none;dashed=1;html=1;dashPattern=8 8;strokeWidth=2;rounded=0;exitX=0.198;exitY=1.003;exitDx=0;exitDy=0;exitPerimeter=0;strokeColor=#FFFFFF;" edge="1" parent="1" source="_SaHxXhYvdPaZlUhFqMO-33">
          <mxGeometry width="50" height="50" relative="1" as="geometry">
            <mxPoint x="527" y="470" as="sourcePoint" />
            <mxPoint x="283" y="348" as="targetPoint" />
          </mxGeometry>
        </mxCell>
        <mxCell id="_SaHxXhYvdPaZlUhFqMO-8" value="" style="endArrow=none;dashed=1;html=1;rounded=0;strokeColor=none;entryX=0.5;entryY=1;entryDx=0;entryDy=0;" edge="1" parent="1" target="uX3nckn37POY2VgG7rPa-3">
          <mxGeometry width="50" height="50" relative="1" as="geometry">
            <mxPoint x="527" y="470" as="sourcePoint" />
            <mxPoint x="577" y="420" as="targetPoint" />
          </mxGeometry>
        </mxCell>
        <mxCell id="_SaHxXhYvdPaZlUhFqMO-10" value="" style="endArrow=none;dashed=1;html=1;dashPattern=12 12;strokeWidth=2;rounded=0;entryX=0.5;entryY=1;entryDx=0;entryDy=0;strokeColor=#FFFFFF;" edge="1" parent="1" target="uX3nckn37POY2VgG7rPa-5">
          <mxGeometry width="50" height="50" relative="1" as="geometry">
            <mxPoint x="570" y="690" as="sourcePoint" />
            <mxPoint x="577" y="420" as="targetPoint" />
          </mxGeometry>
        </mxCell>
        <mxCell id="_SaHxXhYvdPaZlUhFqMO-11" value="" style="endArrow=none;dashed=1;html=1;dashPattern=8 8;strokeWidth=2;rounded=0;entryX=0.5;entryY=1;entryDx=0;entryDy=0;exitX=0.5;exitY=1;exitDx=0;exitDy=0;strokeColor=#FFFFFF;" edge="1" parent="1" source="_SaHxXhYvdPaZlUhFqMO-32" target="uX3nckn37POY2VgG7rPa-4">
          <mxGeometry width="50" height="50" relative="1" as="geometry">
            <mxPoint x="527" y="470" as="sourcePoint" />
            <mxPoint x="577" y="420" as="targetPoint" />
          </mxGeometry>
        </mxCell>
        <mxCell id="_SaHxXhYvdPaZlUhFqMO-12" value="4.Helper functions queries action, Lightning Framework&lt;br&gt;Calls Apex method()" style="rounded=1;whiteSpace=wrap;html=1;fillColor=#dae8fc;strokeColor=#6c8ebf;" vertex="1" parent="1">
          <mxGeometry x="605" y="354" width="120" height="72" as="geometry" />
        </mxCell>
        <mxCell id="_SaHxXhYvdPaZlUhFqMO-13" value="3.Controller function&amp;nbsp;&lt;br&gt;Invokes&amp;nbsp;&lt;br&gt;Helper function" style="rounded=1;whiteSpace=wrap;html=1;fillColor=#dae8fc;strokeColor=#6c8ebf;" vertex="1" parent="1">
          <mxGeometry x="438" y="354" width="120" height="60" as="geometry" />
        </mxCell>
        <mxCell id="_SaHxXhYvdPaZlUhFqMO-14" value="2.Browser raises&amp;nbsp;&lt;br&gt;onClick event" style="rounded=1;whiteSpace=wrap;html=1;fillColor=#dae8fc;strokeColor=#6c8ebf;" vertex="1" parent="1">
          <mxGeometry x="300" y="354" width="120" height="60" as="geometry" />
        </mxCell>
        <mxCell id="_SaHxXhYvdPaZlUhFqMO-15" value="1.user clicks &lt;br&gt;button or link in&lt;br&gt;markup" style="rounded=1;whiteSpace=wrap;html=1;fillColor=#dae8fc;strokeColor=#6c8ebf;" vertex="1" parent="1">
          <mxGeometry x="138" y="346" width="120" height="60" as="geometry" />
        </mxCell>
        <mxCell id="_SaHxXhYvdPaZlUhFqMO-25" value="" style="endArrow=none;dashed=1;html=1;dashPattern=12 12;strokeWidth=2;rounded=0;entryX=0.5;entryY=1;entryDx=0;entryDy=0;exitX=0.811;exitY=1.001;exitDx=0;exitDy=0;exitPerimeter=0;strokeColor=#FFFFFF;" edge="1" parent="1">
          <mxGeometry width="50" height="50" relative="1" as="geometry">
            <mxPoint x="756" y="754" as="sourcePoint" />
            <mxPoint x="754" y="338" as="targetPoint" />
          </mxGeometry>
        </mxCell>
        <mxCell id="_SaHxXhYvdPaZlUhFqMO-28" value="" style="rounded=0;whiteSpace=wrap;html=1;" vertex="1" parent="1">
          <mxGeometry x="266" y="636" width="34" height="54" as="geometry" />
        </mxCell>
        <mxCell id="_SaHxXhYvdPaZlUhFqMO-30" value="" style="rounded=0;whiteSpace=wrap;html=1;" vertex="1" parent="1">
          <mxGeometry x="738" y="438" width="34" height="204" as="geometry" />
        </mxCell>
        <mxCell id="_SaHxXhYvdPaZlUhFqMO-31" value="" style="rounded=0;whiteSpace=wrap;html=1;" vertex="1" parent="1">
          <mxGeometry x="549" y="438" width="34" height="54" as="geometry" />
        </mxCell>
        <mxCell id="_SaHxXhYvdPaZlUhFqMO-49" value="" style="endArrow=none;dashed=1;html=1;dashPattern=8 8;strokeWidth=2;rounded=0;entryX=0.5;entryY=1;entryDx=0;entryDy=0;exitX=0.198;exitY=1.003;exitDx=0;exitDy=0;exitPerimeter=0;strokeColor=#FFFFFF;" edge="1" parent="1" source="uX3nckn37POY2VgG7rPa-2" target="_SaHxXhYvdPaZlUhFqMO-33">
          <mxGeometry width="50" height="50" relative="1" as="geometry">
            <mxPoint x="292" y="758" as="sourcePoint" />
            <mxPoint x="293" y="342" as="targetPoint" />
          </mxGeometry>
        </mxCell>
        <mxCell id="_SaHxXhYvdPaZlUhFqMO-33" value="" style="rounded=0;whiteSpace=wrap;html=1;" vertex="1" parent="1">
          <mxGeometry x="276" y="414" width="34" height="54" as="geometry" />
        </mxCell>
        <mxCell id="_SaHxXhYvdPaZlUhFqMO-50" value="" style="endArrow=none;dashed=1;html=1;dashPattern=8 8;strokeWidth=2;rounded=0;entryX=0.5;entryY=1;entryDx=0;entryDy=0;exitX=0.5;exitY=1;exitDx=0;exitDy=0;strokeColor=#FFFFFF;" edge="1" parent="1" source="uX3nckn37POY2VgG7rPa-2" target="_SaHxXhYvdPaZlUhFqMO-32">
          <mxGeometry width="50" height="50" relative="1" as="geometry">
            <mxPoint x="428" y="756" as="sourcePoint" />
            <mxPoint x="430" y="341" as="targetPoint" />
          </mxGeometry>
        </mxCell>
        <mxCell id="_SaHxXhYvdPaZlUhFqMO-32" value="" style="rounded=0;whiteSpace=wrap;html=1;" vertex="1" parent="1">
          <mxGeometry x="413" y="426" width="34" height="54" as="geometry" />
        </mxCell>
        <mxCell id="_SaHxXhYvdPaZlUhFqMO-53" value="" style="endArrow=none;dashed=1;html=1;dashPattern=12 12;strokeWidth=2;rounded=0;entryX=0.5;entryY=1;entryDx=0;entryDy=0;strokeColor=#FFFFFF;" edge="1" parent="1" target="_SaHxXhYvdPaZlUhFqMO-29">
          <mxGeometry width="50" height="50" relative="1" as="geometry">
            <mxPoint x="566" y="750" as="sourcePoint" />
            <mxPoint x="566" y="341" as="targetPoint" />
          </mxGeometry>
        </mxCell>
        <mxCell id="_SaHxXhYvdPaZlUhFqMO-29" value="" style="rounded=0;whiteSpace=wrap;html=1;" vertex="1" parent="1">
          <mxGeometry x="549" y="636" width="34" height="54" as="geometry" />
        </mxCell>
        <mxCell id="_SaHxXhYvdPaZlUhFqMO-55" value="" style="endArrow=classic;html=1;rounded=0;exitX=1;exitY=0.5;exitDx=0;exitDy=0;" edge="1" parent="1" source="_SaHxXhYvdPaZlUhFqMO-33">
          <mxGeometry width="50" height="50" relative="1" as="geometry">
            <mxPoint x="570" y="548" as="sourcePoint" />
            <mxPoint x="414" y="441" as="targetPoint" />
          </mxGeometry>
        </mxCell>
        <mxCell id="_SaHxXhYvdPaZlUhFqMO-57" value="" style="endArrow=classic;html=1;rounded=0;" edge="1" parent="1">
          <mxGeometry width="50" height="50" relative="1" as="geometry">
            <mxPoint x="451" y="450" as="sourcePoint" />
            <mxPoint x="547" y="450" as="targetPoint" />
          </mxGeometry>
        </mxCell>
        <mxCell id="_SaHxXhYvdPaZlUhFqMO-58" value="" style="endArrow=classic;html=1;rounded=0;exitX=1;exitY=0.5;exitDx=0;exitDy=0;entryX=0;entryY=0.132;entryDx=0;entryDy=0;entryPerimeter=0;" edge="1" parent="1" source="_SaHxXhYvdPaZlUhFqMO-31" target="_SaHxXhYvdPaZlUhFqMO-30">
          <mxGeometry width="50" height="50" relative="1" as="geometry">
            <mxPoint x="643" y="456" as="sourcePoint" />
            <mxPoint x="739" y="456" as="targetPoint" />
          </mxGeometry>
        </mxCell>
        <mxCell id="_SaHxXhYvdPaZlUhFqMO-59" value="" style="endArrow=classic;html=1;rounded=0;exitX=0;exitY=1;exitDx=0;exitDy=0;" edge="1" parent="1" source="_SaHxXhYvdPaZlUhFqMO-30">
          <mxGeometry width="50" height="50" relative="1" as="geometry">
            <mxPoint x="732" y="642" as="sourcePoint" />
            <mxPoint x="582" y="642" as="targetPoint" />
          </mxGeometry>
        </mxCell>
        <mxCell id="_SaHxXhYvdPaZlUhFqMO-60" value="" style="endArrow=classic;html=1;rounded=0;exitX=0;exitY=0.75;exitDx=0;exitDy=0;entryX=1;entryY=0.75;entryDx=0;entryDy=0;" edge="1" parent="1" source="_SaHxXhYvdPaZlUhFqMO-29" target="_SaHxXhYvdPaZlUhFqMO-28">
          <mxGeometry width="50" height="50" relative="1" as="geometry">
            <mxPoint x="456" y="672" as="sourcePoint" />
            <mxPoint x="300" y="672" as="targetPoint" />
          </mxGeometry>
        </mxCell>
        <mxCell id="_SaHxXhYvdPaZlUhFqMO-61" value="5.Apex action method() is invoked and data is returned" style="rounded=1;whiteSpace=wrap;html=1;fillColor=#dae8fc;strokeColor=#6c8ebf;" vertex="1" parent="1">
          <mxGeometry x="790" y="499" width="120" height="72" as="geometry" />
        </mxCell>
        <mxCell id="_SaHxXhYvdPaZlUhFqMO-62" value="6.JavaScript callBack functions are invoked upon retrun from Apex action method()" style="rounded=1;whiteSpace=wrap;html=1;fillColor=#dae8fc;strokeColor=#6c8ebf;" vertex="1" parent="1">
          <mxGeometry x="605" y="552" width="120" height="78" as="geometry" />
        </mxCell>
        <mxCell id="_SaHxXhYvdPaZlUhFqMO-63" value="7. JavaScript callback function process logic and/or adjusts component display" style="rounded=1;whiteSpace=wrap;html=1;fillColor=#dae8fc;strokeColor=#6c8ebf;" vertex="1" parent="1">
          <mxGeometry x="393" y="589" width="120" height="72" as="geometry" />
        </mxCell>
        <mxCell id="_SaHxXhYvdPaZlUhFqMO-65" value="Actor" style="shape=umlActor;verticalLabelPosition=bottom;verticalAlign=top;html=1;outlineConnect=0;" vertex="1" parent="1">
          <mxGeometry x="30" y="261" width="30" height="60" as="geometry" />
        </mxCell>
        <mxCell id="_SaHxXhYvdPaZlUhFqMO-66" value="" style="endArrow=none;dashed=1;html=1;dashPattern=8 8;strokeWidth=2;rounded=0;entryX=0.5;entryY=1;entryDx=0;entryDy=0;strokeColor=#000000;" edge="1" parent="1">
          <mxGeometry width="50" height="50" relative="1" as="geometry">
            <mxPoint x="49" y="744" as="sourcePoint" />
            <mxPoint x="49" y="335" as="targetPoint" />
          </mxGeometry>
        </mxCell>
        <mxCell id="_SaHxXhYvdPaZlUhFqMO-67" value="" style="endArrow=classic;html=1;rounded=0;entryX=1;entryY=0.75;entryDx=0;entryDy=0;" edge="1" parent="1">
          <mxGeometry width="50" height="50" relative="1" as="geometry">
            <mxPoint x="270" y="683" as="sourcePoint" />
            <mxPoint x="41" y="683" as="targetPoint" />
          </mxGeometry>
        </mxCell>
        <mxCell id="_SaHxXhYvdPaZlUhFqMO-68" value="8.User sees redisplayed view" style="rounded=1;whiteSpace=wrap;html=1;fillColor=#dae8fc;strokeColor=#6c8ebf;" vertex="1" parent="1">
          <mxGeometry x="120" y="600" width="120" height="72" as="geometry" />
        </mxCell>
        <mxCell id="_SaHxXhYvdPaZlUhFqMO-69" value="" style="endArrow=classic;html=1;rounded=0;exitX=1;exitY=0.5;exitDx=0;exitDy=0;" edge="1" parent="1">
          <mxGeometry width="50" height="50" relative="1" as="geometry">
            <mxPoint x="54" y="431" as="sourcePoint" />
            <mxPoint x="276" y="431" as="targetPoint" />
          </mxGeometry>
        </mxCell>
        <mxCell id="_SaHxXhYvdPaZlUhFqMO-74" value="" style="rounded=0;whiteSpace=wrap;html=1;dashed=1;verticalAlign=top;fillColor=#647687;strokeColor=#314354;fontColor=#ffffff;fontStyle=1" vertex="1" parent="1">
          <mxGeometry x="1979" y="272" width="450" height="528" as="geometry" />
        </mxCell>
        <mxCell id="_SaHxXhYvdPaZlUhFqMO-75" value="Component&lt;br&gt;Markup(html)" style="rounded=1;whiteSpace=wrap;html=1;fillColor=#f0a30a;strokeColor=#BD7000;fontColor=#000000;" vertex="1" parent="1">
          <mxGeometry x="2009" y="326" width="120" height="60" as="geometry" />
        </mxCell>
        <mxCell id="_SaHxXhYvdPaZlUhFqMO-76" value="JavaScript&lt;br&gt;Controller" style="rounded=1;whiteSpace=wrap;html=1;fillColor=#f0a30a;strokeColor=#BD7000;fontColor=#000000;" vertex="1" parent="1">
          <mxGeometry x="2146" y="325" width="120" height="60" as="geometry" />
        </mxCell>
        <mxCell id="_SaHxXhYvdPaZlUhFqMO-77" value="JavaScript&lt;br&gt;Helper" style="rounded=1;whiteSpace=wrap;html=1;fillColor=#f0a30a;strokeColor=#BD7000;fontColor=#000000;" vertex="1" parent="1">
          <mxGeometry x="2282" y="325" width="120" height="60" as="geometry" />
        </mxCell>
        <mxCell id="_SaHxXhYvdPaZlUhFqMO-79" value="" style="rounded=0;whiteSpace=wrap;html=1;dashed=1;verticalAlign=top;fillColor=#647687;strokeColor=#314354;fontColor=#ffffff;fontStyle=1" vertex="1" parent="1">
          <mxGeometry x="2453" y="272" width="247" height="528" as="geometry" />
        </mxCell>
        <mxCell id="_SaHxXhYvdPaZlUhFqMO-80" value="Apex&lt;br&gt;Controller Class" style="rounded=1;whiteSpace=wrap;html=1;fillColor=#f0a30a;strokeColor=#BD7000;fontColor=#000000;" vertex="1" parent="1">
          <mxGeometry x="2471" y="325" width="120" height="60" as="geometry" />
        </mxCell>
        <mxCell id="_SaHxXhYvdPaZlUhFqMO-81" value="" style="shape=image;verticalLabelPosition=bottom;labelBackgroundColor=default;verticalAlign=top;aspect=fixed;imageAspect=0;image=data:image/png,iVBORw0KGgoAAAANSUhEUgAAAgAAAAIACAYAAAD0eNT6AAAABHNCSVQICAgIfAhkiAAAAAlwSFlzAAAOxAAADsQBlSsOGwAAABl0RVh0U29mdHdhcmUAd3d3Lmlua3NjYXBlLm9yZ5vuPBoAACAASURBVHic7N15fFxV/f/x1+dO0qRAy1qgSyZNoaCsfhVUQERExAUVv2JVoEkKKG5fFH5+VVzr16/7jmvZkkkKahVcUED0yyK4YVHZRCg0yUxakH3vksz9/P6YFlpIMndm7sydSd7Px6MP2uTMOR+SmbmfOfeczwERERERERERERERERERERERERERERERERERERERERERERERERERERERERERERERERERERERERERERERERERERERERERERERERERERERERERERERERERERERERERERERERERERERERERERERERERERERERERERERERERERERERERERERERERERERERERERERERERERERERERERERERERERERERERERERERERERERERERERERERERERERERERERERERERERERERERERERERERERERERERERERERERERERERERERERERERERERERERERERERERERERERERERERERERERERERERERERERERERERERERERERERERERERERERERERERERERERERERERERERERqUeWdACSsPNyOxGEOwDQ5C2Ets1W308FjzIShrTmn8RTG5mTfpwjbTSJUEVEJD5KACarnoFWmoMFjHoHQTAfZz7YfPDdgZ3BdwbbBQhK79zvA7t/03/vAbsf9yECuwPjTubNG1SSICJS35QATAbnZ+eQ4iAC9sc5AOwA8IVAKqGINoIPgP0L7O8Yf6UpdQMnzHkgoXhERORZlAA0mqUesMea/QnDwzA/FLfDgPlJhxWJsZqQGzD/M87v6G6/LemQRESmKiUAjSAzvDOWfyUEr8L9WGBO0iHFw++D4Fo8/B1Nqcs4ad5w0hGJiEwVSgDqVd/aNIy+Fed44MWUda++oTjwF5wVhKmfcvLcXNIBiYhMZkoA6kn/4Gzc3oazCOylTN3fj4P9CcIVjNpPOCW9NumAREQmm6l6gakfSz2gI/tKCN4FfhzQnHRIdSYErsL8HNrSP9PuAhGReCgBSErPwO4EwbvBTgHmJR1OY7Ah8PMZ5XzNCoiIVEYJQK315BaS4v24vxOYnnQ4DWoE7Ed4+CXtJBARKY8SgFrpzb4c42PAq9HPPS4OXArBF+ma96ekgxERaSS6EFVbZvgQCP8HeFXSoUxy1xLwSRanr0s6kClvqQcstTDpMERkYkoAqqV/8IWEwf8Cr006lCnFuRT8LN0aiMnZq1rYfno7FnYQsgCzdtx3w2wXCDeXk96ZwnvJdmy9iNWBRwDHeAQnBB4E/o2TA+7FPIfbPXg+y/z5d2mRp0jtKAGIW//gbPLB5zE6mfx79+tVHsiQCj6t4kIl6FubJhx9AcaBmB+I2wuADmr3PN4I/k/gVjy4BeMW4Ga62tbUaHyRKUUJQFx6BloJUmcCZ1H4JCTJW4fxOVof/wqL9t2YdDB1xd3oz+1LyOEYLwNeTv3uRrkbuBb3a2nOX8uJC4aSDkhkMlACEIf+oaNx+wHOgqRDkTHdjtl76Gy7NulAEnX+/TNoXn807q8HXgfsnnRIZRrE+T8If8ZjI7/j9IUbkg5IpBEpAahEZnhnCL8GdCUdihTlQB/55v/m5Nn3Jx1MzSy7e3umN78Z5x3AK4BpCUcUt8dwLiPwS2idfjmLdn0i6YBEGoUSgHJlsm8DPxts16RDkZI8gNlpdLZdknQgVbPitmk8NfMNmJ9A4ZN+a9Ih1cg64Je4n0tX+irMPOmAROqZEoBSLV81k7D1K7i/K+lQpBL2E8LRd7Gk45GkI4nN+dk5NPlisPdTv/fza2UY7ELywXd1sJTI2JQAlKI/ezih9YO3Jx2KxGIA8046269POpCK9ORegfmZGK8DUkmHU2dGwH4BfIWuthuSDkaknigBiGKFp3gq+ynMPo7eYCebPNhnGZj32YYqXrPUAzqG3wT+EeAlSYfTGOz/sPzn6Zx/VdKRiNQDJQDFFBb6XQgck3QoUkVmvyY/elLd3xJY6gHzc2/D7FPgz0s6nAb1Z8w/z+L0r7ROQKYyJQAT6Rl+AUF4CYViKDL53QX2Frrabk46kDFlhl6F25cwXph0KJPESgLOVPlomaqUAIwnkzsJ/FymzgpqKXgS41Q60z9KOpCnFcpKf4NCsR6JlwM/wcKP0jl/IOlgRGpJCcCzuRv9w5/EfSn6+UxVDnyCrvTnE43ivNxONPnnMN6J1p5U2wbcv0XTxs9x0sLHkg5GpBZ0gdvSitumsX7GuTidSYcidWEZ09vexyLL13TUQhJ6Ku5foHDQjtTOGszfQ2f7pUkHIlJtSgA2W75qJvlpPwc7MulQpI44lxJMeweduz9Zk/H6BjtwO1/Pw8T9kHzzB6ZU1UiZcpQAwOaV/lcAByUditSlGxix13Jq20NVG8HdyOTejfFldJhUvbgf5wN0p3+YdCAi1aAEoGdgd1KpK3H2TzoUqWf2d7Cj6Zr3YOxd9wzsjqX6MI6OvW+Jgf2E9RvfyWl7PJp0JCJxmtoJwAVr2kjlfwfslXQo0gj8HzQ3H80Jcx6Ircve7KuBPozdYutTquFugnARi+f/LelAROIydROA/sHZhMG1wMKkQ5GGcjP55ldVfG/4am8iO/xZ8A8DQTyhSZVtAPsQXW3fSToQkThMzQTgorW7MDJ6DbBv0qFIQ7qVETui7DUBmeGdwX8MflTMcUlN2E8ZbT2ZU2Y9nnQkIpWYegnAsru3p7X5d2jBn1TmL9i0o0reHdC/Zm/C0V+A7V2luKQWjFug6Vg652STDkWkXFNr6nFFbjqtzb9GF3+p3EvwjRdxtTdFfkTf0BsIR/+qi/8k4OyPj/6J3qEXJR2KSLmmTgLgbqzz84DDkg5FJo03kh2+APfiM2l92W7cLgGbUYO4pDbmYHYt/dnjkg5EpBxTJwHoy30ZOCHpMGSy8cVksksnbJIZWorTA0SfLZBGsS0hF9M7dHrSgYiUamqsAejNvgfje0mHIZOWgy+iq/2nW311qQd05L4HnJZMWFJT5mfR2f7FpMMQiWryJwC9Q4dhdjXQnHQoMqk9QWiHsqTtFqBw8Z+fOx+jO9mwpLbsS3S1fTTpKESimNwJQGGv/43A7KRDkSlhkOamg7lz9kN05C4AupIOSBLg/mW62z+SdBgixUzeBODsVS1s33It8JKkQ5Ep5UqMe3Wi5BTnfI3u9IeSDkNkIpM3AejNfh/j3UmHISJT1sfpSn8+6SBExjM5E4BM7s3glyQdhohMaY7ZO+lsOz/pQETGMvkSgExuLvhNwM5JhyIiU14es0V0tukDidSdyVUHYKkHQAZd/EWkPqRwX07f0MuSDkTk2SZXAtCR+6AOWBGROjMdt5/RMzA/6UBEtjR5bgH0DXbgwS3AtkmHIiIyhptY33Qop815KulARGCyzAC4Gx6cgy7+IlK/DqR19NykgxDZbHIkAH3DpwCvSjoMEZEiTqBv6INJByECk+EWQM/A7gSp24Edkg5FRCSCUcxeRWfbtUkHIlNb4ycAmez5wMlJhyEiUoJhmvwATmx/OOlAnuPsVS3s0DwHT83C2IUw3AWzXYCdMdsOaAUg9JmYpZ55oIeYPbrprxswewJ4sPDHH8RTDwAPMt1zLGpbV+P/KxlDYycAvUMvwuwGJsutDBGZSn5IVzqZI8qXrWxmm933Ie/7YewJ3oGzAKMDmEu1rw3OvzEGcAYxGwTuBm5mfepWLZKsncZNANyNvtzvAe2vFZHGZLyDzvSPqjrG2ata2GHawcBBhHYgZgeC7wtMq+q45QmBu8Buxv0m4Aby0//EKbMeTzqwyahxE4BM9m1AdV84IiLV9TCp4ABOmjccW4/n3z+D5nWHAi/DeTnwYjZP2zemPNjNEF4P9geaR6/hhAX/TjqoyaAxE4CrvYls7p/AwqRDERGpiPNbutqOwczL7qNv8Pl46ljwY4FDgabY4qs/jvN34HLwy9km/WcWWT7poBpRYyYAmezJgA7YEJFJwhbT1bY8cvOlHtCx5gjMjwM/FmdBFYOrdw8BVwAreHTDFZy+cEPSATWKxksAlq1sZvqu/5riT3gRmUycf+P557Gk45EJ2/UO7YvxVrBOoKM2wTUQ41HcfomFP6H1id+waN+NSYdUzxovAejNvgfje0mHISISL/82Xe2nP+fL/YOz8eBknBOB59c+roZ1P04fqdS5LJ57R9LB1KPGSgCu9iayw3eBtycdiohIzPIQHkzX/L8Dm7Y5Bx8AfzvQnGxoDe9G3M9hQ/NybTN8RmMlAH3Zt+P8MOkwRESq5M84fRjvBfZLOphJ6AHcv0c47TucPPv+pINJWmMlAJnsXyhsaRERESnXBrAVWP4LdM6/PelgktI4CUBf7gjcr0k6DBERmTRCsEvwcCnd7bclHUytNU4JXfczkg5BREQmlQD8eMxupm9oOT25KVVbpjFmADK5ueCDTO7iFiIikqxRnAxh6jOcPDeXdDDV1iAzAH4yuviLiEh1NWGcQip/B5ncF1lx33ZJB1RN9T8DsNQDOnJ3A/OTDkVERKaUNbh/jK50f0WlmutU/ScAfdljcK5IOgwREZmyfo+F755sOwbq/xaA05l0CCIiMqW9HA9uKtwWuK0ej1EuS33PAPQMtBKk/g3MTDoUERERjFtwO5WuthuSDqVS9T0DEDS9Fl38RUSkXjj7g/+BvuznWbayoUs013cCUKiBLSIiUk+acM6iddc/khneK+lgylW/twBW5Kazzu8Htk06FBERkXE8gXM63emepAMpVf3OADzJEejiLyIi9W07jAvozf6w0eoG1G8CkOK1SYcgIiISifF21q1bSd/g85MOJar6TQDclQCIiEgDsb1x+wuZ3JuTjiSK+kwAerN7AFPqUAYREZkMbAb4T8nkPo17/a6zo14TgICjkw5BRESkTAH4Uvqz/Zy9qiXpYMZTnwkA/rKkIxAREamI24ls33oVF63dJelQxlKfCYDbYUmHICIiUjk/lJHRP9Gf2zPpSJ6t/u5P9A/OJgzWJh2GiIhIjO7BeDWd6VuTDmSz+psBCPXpX0REJp3ZOL8nk3tx0oFsVn8JAMFBSUcgIiJSBTuC/4ae4ZcmHQjUZQLgByQdgYiISJXsQJC/kr7cEUkHUocJAAcmHYCIiEj12AzcL6M/e3iiUSQ5+HNkhneG8IGkwxAREak641FCP4ru9huTGL7eZgA0/S8iIlODsz1ml9Mz8Lwkhq+zBCDfsOcqi4iIlGEWQeq39AzMr/XAdZYABB1JRyAiIlJj8wiaLufCoR1rOWidJQA+P+kIREREas+fx6j9vJZnB9RZAsD8pAMQERFJyMuZ2fKDWg1WXwmAKwEQEZEpzOgmk/1YLYaqnwTgam/C2DXpMERERBL2v/Rnj6v2IPWTAOTu3ol6q0sgIiJSe0bIBfRm96jmIPWTAATNdXlesoiISAJ2xLiEZWu3qdYA9ZMAjJoSABERkWccwPSRc6rVef0kACl2SjoEERGRuuJ2Ir1DndXoun4SgLzPTDoEERGRumP2Xfpze8bdbf0kABZMSzoEERGROrQdofeywlNxdlo/CQCuBEBERGRsh7E+99E4O6ynBKA56QhERETqlvNp+gdfGFd3dZQA0Jp0ACIiInWsmTC4gGUrY/nAXE8JgIiIiEzsQFp2/UAcHdVRAmAjSUcgIiJS94zPxFElsH4SAGND0iGIiIg0gG0wvldpJ/WTAISuGQAREZFoXk1v7i2VdFA/CUBgG5MOQUREpGGYf4WegbIX0NdPAuD+RNIhiIiINJAOgqDsBYH1kwCQejDpCERERBrMx+kfnF3OA+soAXAlACIiIiWxGYT2mXIeWT8JwKg/kHQIIiIijcdOJjO8V6mPqp8E4MkNmgEQEREpXQrCj5X6IKtGJGXLZB8Gdkg6DBERkQaTJ0jty+K5d0R9QP3MAADgg0lHICIi0oBS+OgnS3lAnSUANpB0BCIiIg3J7R30r9k7avP6SgCMwaRDEBERaVABYf6M6I3riWsGQEREpAJdXLR6tygN6ysBCFmVdAgiIiINrJXR5tOiNKyvBCDglqRDEBERaWgevo8VuenFmtVXAtDVtgZQPQAREZGy2a6s97cVa1VfCQAAfnPSEYiIiDQ059RiTeovAXC7KekQREREGtxhLB/aZ6IG9ZcA4H9POgIREZGGl7dTJvp2HSYA9oekIxAREZkEujh7Vct436y/BKA7fTdwb9JhiIiINLidmdl67HjfrL8EAAC7PukIREREGp75ovG+VZ8JgIW6DSAiIlK5Y+m7d9uxvlGfCUA+dU3SIYhIXVgPrAFuxvknMAhsSDQikcayDeGG14/1Dat1JJG4G325YWBO0qFITeWBP1F40x/P84B5tQlHaux+4Fe4/R8+eiMbW7KcNuepMVtmcnMJ/GCcl+McBRxQ00hFGon5xXS2H/+cLycRSyS92fMwJtzCIJONfYmuto9O2OTCoR0ZtQeo19krKZ3zNwL/Iuvu/zmnHTRS+uPd6MutAvaIPziRSeEp1jfNenZCXb9vooFdlnQIUmPuDxRtc2L7w8Bo9YORGngMOIXBtoPpbP9JWRd/gB8O7Aq0xxqZyOSyDS0bj3z2F5uSiCSSYP3vyLeMAM1JhyIisbsT53Wbtv1WZjT1Dur5vUykHljwGuDXW36pfmcATlr4GHBV0mGISNzsX9jGw2O5+AOEtjiWfkQmt2Oe/YX6TQAAjB8lHYKIxMnvo2nkNXTueV8s3fUO7Yvxwlj6EpncFtKb3WqdTH0nAOtGfoa2/IhMFo4FSzhxwVBsPVqgT/8iUQW8Zut/1rPT9ngU5/KkwxCRWPyMzrbSF/e6GxcO7Yj71ruWlnoAfmJcwYlMem5HbPnP+l84U7gNcFzSYYhIRUYJUh+L3Lovux/Yf+H+Cvpye4FBX26ETPY+4DbgesjOAFNNCJHI/LAt/1X/CcB0+yXr/CFgp6RDEZEymV3A4rl3FG3nbvQPfxL3T4M/e4ayGZi76c+r67mMiUidmkPPwHyWdAxCvd8CAFjUtg4jk3QYIlKBMDw7UrtMdinun6ER3ptEGpE1PT0L0BgvMkstAzzpMESkLDfS3X5b0Va9g6/H7JM1iEdk6jI/dPNfGyMBWDz3DvBrkg5DRMpgvrxoG3fDgq+geX2RanvJ5r80RgIA4KaiQCKNx8mHxet59K15KfD86ocjMuXtwwpPQSMsAuwZ2IFU05dwf2fSoYhIqewOlnTcW7ydv7H6sYgIMJ0Na/cE7qjvGYDe3IkEwR24vwtNDYo0IP9TtHbha4q3EZFY+OgBUK8zABesaSOVPxf8GF33RRqY+5+Ltlm+aiZ5278G0YgIQMh+wE/qLwHI5N4M+fPQvn+RxudB8RmA0WkHY6RqEI2IAFgh4a6fBGBFbjrr/Wu4vyfpUKrgMYwHcB4AHsNpwdiRQpKzE9CabHhPc+AR4HHgSeApYCb49mDbAy1JBpeQEHgUeApjA84MYFtgm2TDeo6NwINb/BkBWnF22uK5Vuvf33rmz7u9aCuzA2sQy3gew1mH0UzhdVhvv9d6th64B+MJnI2FL1mA+fY4rcBukFhit25TfI+ABeAzgZkJxlNv9oB6SQB6h/Zlnf8I2C/pUGJyE/iVuF/Lhvz1nLbHoxO2Xnb39rQ0HUTAwbgdDBwK7F7F+DYCN4BdD76K0FaTSq1m9exhllo47qN6Blqh+Xmk8vvjvBzs1UC6inHW2lM4f8C4Bmclod9FRzrLkTb6nJbLh+cxmt8bC14GfiTwMmr75rIR5zeFWP1atkn/g0WWn/AR52fn0MTBOAdjHAwcRiGZqcQDwNiH+zirxvzZPZsxHefGCGPNB3YuJbgtgnkcgmvBr8b9Jprzd7GqI/ec5/uK26axYYcOfHSvTa/FV1LYNlWN98pB4K7xQ2anCU46HMH5MwHXgw3gDGMegs/EbQZGB3gHbgcC+1D5jq8Q+CNwNYFfx0jTv1gyZxiz8euzXO1NZId3I/AFuL8It4MxXoqzoMJYni2HcTXY78nbbXjqbk6eff9zWq24bRobt9uT0A4g5AiMo9l0IZx6vAPq4QZ7b/aNGBcC2yUdSoVC4BcEfIPF6esq6mmpB3SsOQLy7wB7C/HcDhnG+TFBeBmtqT+xqG1dxT26G5nsoZi9F1hEpW+Szn/Tnf5q0XaZ7AZgWkVjbe1GzJYx0vojTpn1eFk99A/OJh+ciHE60BZjbM/2ENg5jPq3OSW9tqKe+u7dlnDjG4F3YBxD6T9TJ59q5+S5uYriiCozfCSEJW4Htj9i4Q9oDX5a9nP+otW7sbG5C/N3Ax1l9fFcIWF+Z5Z0PDJhq0z2r8BBW3zlHrBvkG/qHfMiN5YLh3Zk1C5ni/3fJViD8X1GU32x/Z4zw3uBvwl8CeVv/RwB+xHG+Sye9/sJE5GJ9A8eShicAiymUGp6Cgl2STYB6Bv6KG6fo5HqEYztTrDFdLXdEHvPK26bxvoZJ+B8itLffEYx/zEE57J63nUTfrqvVP+avQnz3wFeVXYfNU8A/A4s+BiL5/2s7DeQZzt7VQs7TDsDt6XEP+X+Y5r8PZzY/nDM/UJmeGcIzwROJ2oybqymM127T1C92XdgXBSx9U2E9lGWtF0R2/jLVjbTsuupwKcxdquwtxG60sWfw33Zy3FeA2zA7PO08pWyEplM9joKs1RRPYj7/+DhOSzpWF/yeJFiyr0Y/C8lPsqBH+F8ku703bHF0jfYgQffB46Jrc96535QMglAz0ArQXAu2EmJjB+vC7Bpp9O5+5NVHWXZymZaZi3B7DNEuz1wPUHq1EgHsMTF3egb/hD4FyhnOrx2CUAe/OuE4aeq9ubWP3wgYfhzCtPWlXoK7DS62opX1KvUBffMIjXyYeAMiv0OnZ/TnX5z1WPaLJP7AvhHi7QaAT5Luu0LkW4/lBXH8M4Qfhd4WwW9lJIA7A12HF1tN5c1Us/AfILUaqLP+K7ANv4XnXveV9Z4UWWyHwM+V8Ij1oC9k6626hwR7270587E+RJTYa2A2/G1XwNwXm4ngvBXYIfUfOzY2RfpajurJkOddtAIcA692UGM3xRp7di017C4yknJsxU+RX+FvmwOp596WWOyFX+cMFjEknR8nwzHsnjeTVy0+qVsbLpsgvu4UTyF81q6234fW2wTKUwr/zeZ7DbAeydu7OVdkMoWHlDkGvYAAf9Z8S24YrrmPQi8nUzuD+DfoJoXC+cumke7OWHBv8vuI5U6EY908R/BOIPO9HfLHqs0JXwAtD+Sbzou8m2PchTev75Gb3YVxo+pn8XZ1RGEbbWdeu8Z2J1pfs3kuPjzQzrnRT/fPD77Rmhj2MZKLjqV6Uz/CKPYJ7UkPECQOjzWaeGJnLDg34za0Th/K7MHx62T7nRtLv5bj1x8X75xSw0i2XLAiWJaQ2iHVv3iv6Wutm8TcDyFWYfqeHTDhyq6+AM4J0ZotR7n2Jpd/HuHXkTU+//OpYSjR1X14r+l7vQvwf4T2FCT8ZIS2i61SwD61qYJUr+P9MZS92yI1IZ3x3bfuKSh6YrULh+xXbUsbvs61NP5Df44Ia9j8bybajrsqW0PkQqPBcpYsOfn0912cewxFXPB0AIsyv3iVO1mAC4c2pHxF1c+iPsxLGlbVbN4Nluc/jlm3RQWAcfv9IWVXYSiXWhHwP6T7vSVFY1VCgsWR2vHNXh+UdVu1Y2nq+1yjHfXdMza27k2U7SZ4b3w0d8yWbaMuZ/FSQsfi9z+wqEd2RgcSCqchdtGAh7C/EHWB/dyattDkfvpGX4BhNH2TBtvZdna0zltzlOR+99s+aqZ2LQUD258quw3IDOnJ/dBAv5BPSzyNE5hSfqvJT9u2d3bs23TXPKp3fAwT8rW0jJvoOiWuy0tnn8PfYOL8eB3RL4P64/T3Fza7aWe3ELMn09ha9+T4A/i4YOkpudKWqOSojNCnE8xMHf8LWxxywcHjHMieEhoJ7EkXfy44fGcvaqF3fccLel3uqXOtovoy+6HU5vbgSWJsM7KOIPOKt1XH8vV3sRQ7u0RXglZNtpbOLXEi/8KT/F4bjeamYP7DljwOE2puzlhzgMl9dOZ7iWTeyV4tGSl0ZjtXP1FgP25PQn9Oqq7r712jNWsblsYaUV939DL8GAp+CsZ/w11AGwlzkpS+d+xeP7408W92W9gfDByrG4n0d124Zjfu9qbyA2/CMJDCG0/jOdhzMaZw9b3vkZwVmHchNmvoPkXJV1MMtnLgNdGi7dqiwCX0ZWOns33rU0Tjp6O2fHg7WO0eATzX4N9k870ysj9ZobOBTs1UlvjG3SmzyzabqkHLMi9B+cMxt/TnMf4J85KjBug6TI652THbFlYCHVXhL3aG3AWga8Z87vhtGzRKdsVt03jqe2KzwgGQRPuHwPGODDIv0JX+4eL9vH0mJ5iXe5YsLfg/iKM3Slssw1x7sdsLYTXY8GFdLZFX6F+tTeRzV0HvDTiI6ItAoyi8AFjHil2wllHPriHjjn3cPfwTJr9X8CsCR79Q7rSJ5Q03lIPaB9+OSl/IyEHFXZE+GywGZtaPAY8CpbDPYv5P4AbmR78gUVt68gMHQt2aZFR8hAcTte8iGdJAH3ZY3DeQ2En0hj1Lexf4BcxYt+N/MGrsODzdib+GTYou6q6CcDy4Xnkw+uIZyV0nbCldLV9pmizTO6/wL9F6bUWBoFLcL+I7vZniqMsW9lM66xhsF0j9+T8lu70q5/+d89AK9b0eoy3FQ5fefoFW4oHMTuLzrZzI7Xuzb0F859GjDf+BMD5NxtG9i5ajAm2XAX8WWB6pN7h+0x//AwW7buxaOv+wdmEwd3R+rYDi676PntVCzu0Xoz76yPEuiUHbsT8Yjzop6vtmYt4f/ZwQuJYc3AcXelfTNiiZ/ilBGH0N/jnyrK+6fmRZ7kyw4dAeC7R1tGAcQU0nTZusvRsPcMvIAhXEm1RYGUJIddX9gAAIABJREFUwAVDC0gFp4O/FthrjBabK+HtOEEvD5Jvfn5J99b7cv+J8znw55UWMBTisT+A7wPMnrCl8X0600UWoW5ywT2zaBrp27RdMor7MT+FzvZiSUhBb/YMjK9H7LuR3FS9qdmL1u5CPrySSXXxB0IrtgJ/8/7Wb1JeoaX5wJmYrSQzdBWZ3GtxN1p2e2NJF38A4yh6Buaz7O7t6R06C0sNFi7G/tYyL/4AO+N+Dpns1yK1zrdeSZKLacw+EeniD9CX+yrOV4l28YfC7/e9PDXjp5vP157Q4vn3YPwgQr9r6ZxXfIHd9tPOKuPiD4W4D8LtC+Cr6c320DtUuCiGnFJGf2OMEBZfH2D5Ayoaw+1jkS/+vUOLILyGqBd/AOc1+OiNZAb/I1L7JfP+gdMbuf9yLFvZTG/2G6TsTvAPMPbFHwrP4Yku/uB8MvLFf8Vt0+jLZnC/uMyLP0Ar+FEUu/jDI2y0T0TqMTO8M6mRP5Zw8QeYhdvP6Rt6a6TW29gPgAhHWjcYY0Z1EoDlq2YyMnoF5Vd5qld5GPlH0VaF8wxi+NnakeCX0ZdbReDnl9FBQJD6E9ObhzD7fAzFS7Z0Jr3ZVxdtVais9/cYxy3FMNMf64vUsi/bDRSfch+L8QbWZb8QqW3g5xXvz/5edIGpu4FF+4Q0sWkY3ZjdQiZ7K9AZQ5+Psbh9sGgrq6j09wDt834cqWVf7iWYLae82hG74MHl9A8Wu2gVWPBlqrUgcPmqmbTs+n+bbgNWuvUwxzaPR3tPWeEp1s+8BI/luRGBLYs0Rb9sZTPkfwLsWcYgAW6Zwoe1IgqFl6pfg6PWnGnxJwBXexP5louBF8Xed/LuibQa1WJPfPbA2b7Mx+5ewWMnZkWLshREq/MeP7dvR5qa7xvswPl+ZYPZf9OXO6Jos5Pa/wk2cULkPlC0n557dyHe+5JG4dNxDLcF7dZIO2SsgiOAnW9HKvSz1APcz6OSMq/GboTBNyO17Zp3J9hlZY81HncjP+2HGIfH1OM3I702ANbnlpY501SOUUb97Egtp+/64cKHpLJNh7CPq734YvggmHwJALTEnwBks1+nknKw9cyJtvLfiL9Ua12yQzh7VZRyt/GV7IwupMkilo21zxJH0Q/nk9GG818XaVH8efbEE48B1al0VymPWCCo/C3BIXmiffpfkD2ReA4Ze2ukT4sA5mMvvK1EZvgEsNfF1NsItjHaBa13aF+c6IssK3dVpDMuMsM74/6RyoezvRkaLl7RcfG8m8DGPvSqccWcAPTl3gn2X7H2WU8s6qcju6S6gdSNVmZMLz7bEfhwDWJ5tj9y0rzi415wzyzcjo9nSH8lfWujbHW9fuJvW/HX5ekLN+D8KlpcNVc8Acjk5lL2yX5cH/kgJA/iKtZlEPWCM+1SINqn6yjcjSCOi90mZldGLvMb2HeI9+CtYqIldh4uqWAd09Ys6ja/sHZFpmojxlsA/dnDcf9ObP3Vpx0itWqddwGworqh1AnLF38TNyY+8aw6ohU1SY2+nfgO7TE8X3xdRD4/8fYy82i3bPK8D6h98ZtiAi++gDGsoCCY89tI7Xpy+1ewYG0sr+f8+4tfdDp3fxKn1ENuxtc7fEysBdTco92iyOQOwHlFbONGEmGRNYB5lOqGUb2SFbkIC3+D+H6n9SGmBGD58DxC/ym1zRSTsHukN4BFlmd62wmYn0VhO87kFQTFL1aewM/APVoVQvO4plU39cfBRdsUjoC9Z9zvu423sntrp6TXQnAIcBHjVMlJgLNutHgCEFRyQfOrIzUL/LjyxxhTC81PRVttHnBtbKOaV3Lo0HN50bNENgmj1ayIz51bbUkdT//gbLBoBdGiaebJKP2F/4pxzHqQr7wS4FIPyGf7St6i1piM1LpDiPLpslBV7ItctPY8Rkbfg/O+mFfhx+khnBsxVoM9AuHDwCM4TsA2OC2YNREym8Dm4z4fPA02g9CLf3rOp0YJqncS8Vgjsk1QvP6+u9GXOzTWkd33idhyFeNuh/KDWXHbtEiLtAoH05zI8qHPkeeMTZXfkjzEZCjStkvz/cpMWUKCluI7cQqDvCL2vCi0VwI/KdrO7W+xjW28Mp6OAHiohGN04008ijGPVqnT7WXEslh1y7HD5wN/nrhN8514fS67KdOGyhOA+dmPVLgSs7EE9haiTi8Dm8pPfpazV32ZmS3/WSjCwzEk+yb9CNilePgrPLyBJR2DZfVy4dCONE+v3kEo5bs70pnpy4f3AGbGPPa8iO0enOB7M3lq26OBYosFn3FS+z+Bd9J318fx5ndAsAj8EOJ+oywu4gJAL3ay39iMwciVKN33rcL/fbQ6AiG3xlIAe/mqmeTHPQOhDEV2oGx2wdCCBD7U3RqpldsLYh85sOI/49amh1inBOAZfbmX4F68Kt5k4n4SF63+VMkndBVq6v8Q+CHL7t6elqY3gR2P8WriuwddzF1gX2J96qKyzgh4thPb63O3g3NHpHaL2+6i9hfIAufRCUc2+3+UkgBsVljc9S3gW4UFiaNvxTkeeAm1+H/1CCcEFsrmlrdV1ol2/sCFQzsyWoUZNyPaDM/8eQNkc3kq3a+fb96DOH9v7tHWjDTZi2t+U8mDaK/brvTHgY9XN5gxvHXWk/TlRqnLY87LsrH8HHX5qpm4X0gl+2sb0zaMNH+loh5O2+NRutv76E6/kdSGXXE7CedSqret6wmw01l/3z50tZ0Xy8W/FCmv7VuJlXPyXo0FVmSrnx0ZuVLZeDrnZOlMf42u9CHkU+2YnwFEP7ugLBG2AK7J7kW5Sa9H/N1utHKKw0Sx86aTCSdWqFEQbaX9hJqiLTyOKiDqjpzKqjSWp/j9/yQVals8nnQYMdpQfgIQtnyR8Q8fmeR8cWHLYwxOWvgY3W0X0p1+I6O0U8hsY7yA+T/I+4F0tX2b0w6qx+n6KrDxF9jVC/cnirexc+gZiGcV+8lzc3S2f5Ou9MEEwQuA7wHxJ4IeoQRwvoICQGbRZt7M476184x8c8TtZ17aLOGYwnj/P3yCxadbt9sp1nGjyAf1/7qF4q/bxrGuvASgZ/ilOKfFHExjcf8Bfdn3xdrnKem1dKU/z6MbFgDvg8jZ+niuZH3zYZzcvjqG6BqHRbi4Ji/KGpAdCFK/33Sme3wWz7uJrvT7aB5dAP4V4tupso5t5xefYq5kS5tFTFrMtit7jGKCkYh9W/RTM8ftIuZEJurPL+qW5zi1jE6W122jeKj0BGDZymaCcBn1cMZ7sgKc75DJfi3aHtISnL5wA13p7zE6fR8Kn9TKmEK3PzLdjqv5dH99KO388ER41CImszCupjf7jthDOGHBv+lq/zCBHQCxbFv756bdLxOzSmoAhNEOljIb4zjYmIRBxN+dxfA8tLgTgKgx1T4BaA4a4HVLPMWH6sODpV/EW3Y7g2TuD9WrM1nnN0c6GKdUp8x6nK70+wonXXkJ9578PoL88ZFWwo9n2d3bc+HQjpyX24lla7cpu58khFU6jCVWQQlvsDYD4yIyQ7+mNxv/bbfFbXfR2XYk8KkKe4q2A4CKZgCSWbS5pbxHfX5VHmsY4ZTJUniEKpMAFuGchbjdu76+X7c9A61MrhmAB0tbzdgzMB/zT1cpmEa2J8ZvyAz9CbcvMtj2K5ZafE/m7vSV9GVfiXM5sEvxBwT/j8Vt0e+nrchNZ134eiw4Gg9fDOwBNoNRoNmheRQy2RB4FONhnBzGEKEPkgr6N62mrycN8CL1BaU/xl6H8Woy2RVgX6KrLeoFN0LX5sBn6cvej/Ndypnhi7ID4Pz7Z8C6+SX3/cwY0X63oT9RtVShKRXtTJB6fB6GUY+6Dh+p+QaZlqCVJI8OL6Y5WEDx+a1GUmICEKQ+BzTWp8GaskMwfkFHLkdfdjmBL9+0P7tynemV9A2+DQ9+y4Rvzv4POtsupCtCn2evamGHaWewzs8Em4U7E7zoA2BHnB2BBThgBmF4C0TcmlUrFvFNrnfoMCz4QJWjeRYfAbYDXlhmB03ACeAn0Jf9K2792IYfR67tXkxn+gf0ZXfG+d/SHxxhB0DThv2o7MoS7f0nCJ/Aq3SXcmM+4mycV28dQrmCiD8/t+LFnOK2TWoboPi4vUNnYcF/VD+gLbg/SZ6X1HTMajMvIQHoH3whIW+vYjiTSRvOWeTtLDLZVcAvCPglLW1/jHSPdDyd868ik/068KEJWn0z0lGs5+V2oplLcY+3Et5YvMY7is2i7f9OsQ2hV7bVLknOweAH49O+SSb3Zwh/SRj+giUdlZUsXd32BTpyb4AS3/DCacUTAM/vj1X0yXKc6onPYjxStWdd87SIF0ffPakyE+Ny5kRqZzxU++LSTbsyUYnszQJ7Hl7j122d/Rpj4dwTPUXOB19EC//KsRD4ECG/Z112LZmhc+jJvYYVt5V3boJNW8r4VeRGWD/686J9uBvNfgnU4OKfiHBupGajwb1VDqRWgsLv0r5IkLqdTPaf9Gb/l/7B8mYZllqIhaWeoncPJ8++v2grq2ALIABBxAvYyF1U53yE4UiVCFfcNg1sVhXGr1AYrVJlaBHLLcfIPdrrNvTJ8rpNlgWD0S7o/UNHYxxd5XCmANsV7J0EfjnrZvybTPYHZAZLm8rq3P1JsHHO8vaVkeqw9+UWAUeUNG4j8SDi/fXRHPVziE6cno/xccLgRvqyd9OX+1ThAJUSdM6/itJOGix+/7+gwgTAox2UdNLCx6h8G+1Yot3Se2q7hdTl58aIB03l/U9VDuS5PGJdGQtyVY5kikgNFE8A3I28fbEG0Uw1OwCnQfA3+nK/oj8XvXLZeMd5WhDtTdgn+60c34dlK4tXqCycyndb9eNJkLMA988QBqvJZL9G373Rt8eZXV7CSNXfAVAwj56BaDsorAq/26h9BpXOdFSJcSDuxROTU9JrwYZqENEWwoi7y/J/qG4cU8IIrbPXFE8AeoePwcpesCRRuL+e0G8iM3RspPbTRm8a8+uhR8uMJ//vs4Vpu0c7tAWuqWYgdaQVOBPf+DeWD0ebBnYf+3k2FouwADCTmwsxVJgLgoMitXN+W/FYzxZyRcSx4y3eFBdne5avjTYLYPyiytFszS3a+9JA+01AfZ5D0iiMHIssXzwBCPjvGoQjsA3YT+gZmF+05Ts67oOxNqR41O1JdXhvMmYWRjuhMrSLqxxJvdmLfHhxpE+BZtHvteZTUWafYqofEvH0UY/5AmY8yjaPXxOx9StiHTtO+dFjorXjPGp5i8w4kPNyxRPEwhbrn1U/oEnMbQCKLerryx4EHudZ1DKxVix1atFWhVX+zy3yE71ISuUlSutdQLTCTEvargFuqGos9efF9OeKf0LNRy4bO8Lj624v2qqSEsBbi/a77U7fjfO3mMYE5xIW7buxaLsL7pkF1HabWinMXhep3ZK2W4CfVDeYraSYFh4VqaWFX4VGKPhVpzbdypo4AXB9+q85o/gCtsKntzH280Yuf1rb0/LCGp8GCOAcRd9d0c4zD/wTTLU3kzBCISLLR30+3bHpuOsi/bFfxP6KOShyRUSzMuoZjClPkPpSpJbByPFUegxwdR0VeVHoKGcAD1U3nC24RVuf1Dn/dqC/usFMarfCRAlA32AH8JZaRdM47O8QvhDnfKoyPWbFC7r03LsLY/3ujIj3dvlrqVE1oGZoPiFSy8XtvwX/bJXjKY3xDSw8CvhLVfoPgggn1QXREqjIOwDC+BbGmZ0UqV3nvJ9jcTzfvYfFc6OdV2++uPLxqqoJtyilwgqLAd0XUbsKfcdy0doI1U4Bm/Y+LPLuE9lS3m6BiRIAD06lvrPYZLh/m675f6c7fSoBRxQSghhFWWTUvGHh2LHZ3pHGcPsWMPmPBvbgg5HrLQyk/wfnm1WOKKoRmpo+T+f8qxhoOxTnvcADMfb/MI+s/3PRVhZxy1iUBYDLVjaDPT9Sf5GE7410CFfhdtnJVHL0sbGaJj4cqW1m+BCwQ8oeq1bcTo98iFl3+//hfhR4PNUmJzaNjaMfjNSyc/cnSY2+Abz2NQsam7PttAlmAFZ4CiIVk51q1tG04ZlFY4vT1zEw7yCck4GByru3/6N73m+KNgtTh439DX9JpAvekrZbcH8/Yy4knEy8nfUzTo7UdKmFdKfPAN6OE8M57k+7C/cvg0f79AiA/YYT5jywRVzfJ8wv3NRPCYdCjesTkabs3cd5nj1bUDwBaJm1F9ASrb8obFfWUXy9DEBn+lacN1PW2hcbIuTVnNgecdW5l1pAKSmzWe/vjdy6u/0PNOVfjHMp1V4YaPxX5FmAExcMMT04FFgGxHWAUR64ctNR2bU/FKnajAEW7foEjJcArB8+BohWlWlquXRTgZFnFN6ge5jethC344HfUc6F1bmOcPT4SGV88deP841tWTcz2iKa7vZz8PBNwGDUEBuS8zkuWh2tNDBAV/rHbGMdGO9n032yEoXAzRhfIAwOobNtL7rbP4KVsp7Gn1voaUnHI3S3f4T1o22b1uaUGZstpSv9vaItL1q7C8ZLI/U6GqH+RFX2xfvSyBeK7vSVuL8E7I9ROwcuAnsR3em7Iz2iJ/ca8GhbeeuB86nIW0KhcLHtTr8R94OBi4DilR83j+T8E/gqxsE0jc4vksjOZCT/9chxLWpbR1f63eR9bwqJQDmzZU8BlwPvA2unK30MXe0fBpt8uw3cnl4YO/ZZAM6SmgXTSGyMN+bNCjX+LwYupu+uXfFpx4K9AvwgYAFjf/oJgZUY32egrS/SCYKFxU+Hj9/A303hiVxc9/xfs8KvYN3wGzE/DucQYA/GTAz9cbBhzFYDd4PfjoU305KK9xZI/HZipOn7uL8lWnIFm45R/i7wXS5avRsjTa/AfR/MdimUdw23heBJjIfBn8R5AmM1cCtMu32rUrGbX0nr7r+C1l0foPhpjo8x3X457ncLlR6/CnyV5UP7ENprCTli0wK7NGPftnsC+DXGV+lsWxnpZzAyciJY8WJK8DAnzy1efyJkvyrUxdtp04WiM1Lr7vbbgMPozb4c463AwRQ+6OxKIWlfC6zBuQ7PLy/pTIXz759BsO47pf4PJGwm+fwy3I+N/NoA6G6/ETgRd6N3zYGk8vsDOxPaLpg1YR4S2iMQ3kvgw3jTTXTP27p8eSb7U5joOuOLyWQvpisdfSvnye2rgXez1N9Lx/B+mB+OezvYLsDOOCGBP4nbE2CPYOEjmP0L7Fbunrd67PdfvxBo3PNCxmLh04WUnvuSvGjtLoyMrgHKq1U/eT3A+vvmcNpBpd87X+oBCwfayKfanj7ONLRHad5wx3NmFIrJZM+ncE9zPA72UrraytvadvaqFrZv3YWA6YyEIS35PM3N9226KJanL3tQpIWHzn/Tnf5q0XaZ7AZKfX4an6Az/bmSHhO3vuz3cN4zYRunl+50eQn4itumsW77+cDOkN+WwDbg4QO0tt9Z0iFUPQOtBKlVEGlR6bV0pV9RtFVv9pcYb4gcQymMJXSme6vSd1SZ7IVAtEWnBSN0pYs/h3uHTsfsW2XHFYXZp+ls+5+qjvFsmeEjIbyqSKvHSPkhsZ2oWo4Vt01j3Yx7iKOAVb0IeTFL0n+FsWYANo78J2a6+D+H/6ysiz9sLlwxtOlP+foHDyWku0grAz+HnoGXsqRjfcljFO4NryknvLrm/A+Z7D10pS9ILIbQL8Rs4gQgsPL3XRf2qN9Z9uOfjqHp0+ARp4YjLAAEsNhqAIwRAt8nMzxE17yrqzbGRPpyn8K9lIt/fXH/NJncarraxp/hjNvA3GvpyGUpzFqNZyZ5+zUXDB216dN97S3adyN9uZ/i/q5Exo/fU2y87+lFk2NtJXtTTcNpFMZOkerLV8sF98wiDJYT7UTGAwlSP4hU7W3qCIDz6B06PbEIutJ/pOhiUZ/oDbH6Cvexo69XiHL+xPJVM4H2CqIqphXyv6A3+/IqjjG23tyHcf9MzceNVwDeS1+2u2YjLrUQ48IILeeTsmvpHYpa2jt+oUeJszEYN2z5QXbri8mK+7YDU+W/sbi9hZZd/0FP7hU1H/u83E6kRi4DOkp4VBd92WVc7WOv85iaDLNv0Te0vPBcr/Xo5hg/mrCN830y2Z9HKgkdt76hlxH4jylt+2/xGQBv3o+qn4xnMzCuJDNUm91Ly1Y2k8n+APNoxYHqXwqnh97sN2r3QSeMWshnHmZ/oXco2lqPuHW1XUd1TpZMwvVb/mPrBOCpDcfApnvU8lzGPgR+FZnsRfTkxt6LH7flQ/vQ7NcD0Q5A2Yq9k2zud1wwFPF43CoJqc3PKiq3E1m3/jZ6hxbVfOwwUsXBNxGkbiMztDTyyXeV6htajNsVwMwSHhVCc/HdCGHNTsZrAeslk72IzPDOVRslkzuA1lk3AKdVbYykGB+kdbe/0DsUcQtoBTrn315CIZ9tMcuQyV1as/fezc65Zzr45Cifbly59T+3lMn1Qd1XsaoXeZyfEPh36Wy/vnjzEhUWYp0JfAKIVrBjfE+BfZt809c4eXbUrTvl6xvsgNR/4H4IxhE4LyTKp8pqLgIc31/Av8r09M9KWihXimUrm2nZ9bUYHwZKfWN9DPcfgJ0TeTtaKXoG5hOkvg68uYxH30VXuvibcW/2OxjvK6P/SjwAfIHp9v2KFrBu6fzsHJr5BM6pQKWfkkfpbJtWdPV9ZugDYEkUqHLgZ7h/ne72+I/fPXtVC9u3vAY4Hyg1WduI0w/+jU07O6rjgntm0bTxFNw+AOxetXFqxXiUtrZdONJGn/nSZks9oCN3H6X/MsT5J2a/xP1y2tv+uOUPuGTLh+cRhl047yf+J90GsEtxv4Sw+XcVJwNLPWCPtQvJ519YOGLY/gP8hcCO5XVovyIcfSfTgvGL1OSDQ3D/dXn9TyiHczEpLuGp+/5c9oLPzTK5uRgvwTlu097wMn8mTwuB68B+jfnldKbLqQPwjP7BQ8kH78Q4kfIvZivoSr+taKve7O+xibauVpPfB7acIOhj8bzoxxtvVkjejsToppAkxTdD6v6xicsUB83gnwZeEtuYZfF/gF0C9gsG5t0aabvyWHpyCwnCQzGOxu0NlDbbNGZgwB8wv5hRflnxQsFlK5uZvuveuB+F2XE4hzOZquGaX0xn+/Fbfenpv/Xk9ieIuKJXJvIIcC3GP3G/Awv+heWzBLZ+q2piffduy2h+J1Iju+C2P9ghGIcC+xFtoV8choF/gd8OwZ0QPo7xFM7DGOtxWnHbhsBbCNkRgh0IfD7OfHj6T6WzE/VoXaHEs/8NZzXmOYx7CVmHh0/iwUYs2BYLpxUOYPLdsWA3CjUU9gc/kOon0lngD5j9C/c7ILyT0eDftPq6p59nKzzFE/fuRHO4E/n8bhgHUZiBOASIdhjMhOzDdLV9ZcImV3sT2dwjQNSDharpXpxrCPwmnLsgyGL5xxm1QsKZCrYjyG9H3vbEbE/gxcDLqI/Y64PxaGFLr92G+xD4GoyHcNu4aZp8B7BtCdiG0NIE7IGzR+EcCIt6tkS57qVwsuet4Fnch/HgvkJdAh4mMAMv3FKzYFc8nIUxu1Ci2g4A35fJvP3d7F10tp271Zee/lsm+14KxU+kutZRuMDHWBZV5Dk2Uu03s9CO3HSc8vh6hl9AENZ7sSiRyc7Jp9qfXbSraYtvH17tdboCTM5PzFJ/qv1JJqR5/d+KtrKw/g/GEZn8/jpWxc5nppqt5MVJIjJ1/S1SFUtL+v61iOCMWWCskAAUtom11TIeEWlg7pdFa2hKAESS5Xj+p2N9o5AANPGimoYjIo3NU8UPnMrk5oLvXYNoRGR8N7CkY3CsbxQSACe5Mosi0mhyDM2NcNiUv4mqVwAUkQnZ2NP/sDkBKBwlKiISxbkR94KXU1xIROIzygg/HO+bm2YAAs0AiEgUGxjl/KKtLhzaETii+uGIyAQu45T02vG+GXD2qhbwPWsZkYg0KOMrE72hPG2EN1B5uVwRqYT5eRN9O2BG615sWQ9ARGQsxi202uejtQ0m30E5Io1lLW3pCRfrBlg+2fPHRaQR3I6Fx0Q6WKcvexD4oTWISUTG11vsXJqAIDWnVtGISJ1x/klor8X4As7fgAe3+O6DwG9w/wDT7UUsnn9PpD5DPlWNUEUkslGaRs8p1qgJRwmAyJTl32JJ+grgCuBjAKzITYd5G8s6HjkzfCSEx8Ybo4iUxPkpJy4YKtasCTyGU8FEpAFtoHmMPcJRpvnH0nfvtvjGc9Def5FkOV+P0iwAm1vtWESkHtmlWx1RXQl3I9x4HqAdRSLJupYl6b9GaRhgvlu1oxGROuTeH1tf/bnPYbw9tv5EpDwRP/0DNBGyrSbsRKacB9hwX/F6/sWs8BTrcl/GOTOGmESkMjcz2ParqI2bMJ1PLzLlOD/mtINGKupj+fA81uXOB14dT1AiUhlbGrFMN1AoANRaxWhEpD6Vf/G/4J5ZpEbfSz78ELBdfCGJSPns73TO+zld0R+hBEBkKjI+SCZ7LNivCbmC0G8et8TvhUM7MsI+GAdh9hp85EigpbYBi8iELPw0Zl7SQ8hk16EkQETwxzG7H2cDeIBZM87uwDZJRyYiE7qBzraXlpoANAHTqhSQiDQUm4EzY9PfoaS3EhFJTMCHSr34Fx4GE9YKFhERkbq1gsXp68p5YABsjDkYERERqb71hPmPlPtgJQAiIiKN6ess6Rgs98EBsCG+WERERKQG1jA6/YuVdBCAPxZXNCIiIlIDAe/nlFmPV9YFwYPFm4mIiEiduITF6Z9X2kmAuxIAERGRxvAY2OlxdBQASgBEREQagfNRutrWxNFVAH5fHB2JiIhIVf2OrrYfxNVZgNlQXJ2JiIhIVTxMPnVyORX/xhNgNhhXZyIiIlIF7u/m5Lm5OLsMCMLBODsUERGRWF1Ad/uKuDsNeLJ5EB37ISIiUof8Dkanf7AaPQecNucpjIFqdC4iIiJlewJZy0P+AAARw0lEQVTnLZUW/BlPAIBzSzU6FxERkTKZv5fu9tuq1X2w6b83V2sAERERKZHxDTrb+6s5RCEBMNcMgIiISH34PevuK/uY36gKCUA+/Gu1BxIREZEijNXkm4/ntINGqj/UZpnsMDC32gOKiIjImB6E4FC65t1Zi8GCZ/5qf6rFgCIiIvIcGyF4a60u/rBlAuD+x1oNKiIiIk8Lcbrpmnd1LQd9JgGw8JpaDvz/27v7KLnKwo7j32d2l2QjYpUEMWRmNxqsFRQ1UqoFK6D1pYL0xVUgmck2COVINSpaq1TAF045R6CAR41KYBdEG5S2FhMEbaJgKRYoirwoCSG7mwQDISW8JNmduU//iCkBkrCbzMwzL9/Pvwtzv3uSk/vbu/fOSJIkAP6WeYVv1/ugT98DEGNgcHgN8LJ6R0iS1JZC/HuKPf+Y4tA7XAEIkcCNKSIkSWpD56U6+cMzbgIEMq5P1CFJUhsJF1MqfCZlwTMHQDn8EKj5s4eSJLWvcD6lfE0+4GcinjkATsk/CvwoTYokSa0unE8p/6nUFfDsAQAQuSZBhyRJrSwSOLNRTv6wswHQFf8VGK1/iiRJLWkMOIVi4YLUITt67gA4uWcjsLT+KZIktZxNRN5DqbAodcizPXcAAIR4WZ07JElqNesgeyvzCjekDtmZnQ+AfGEpsKa+KZIktYp4Jx25P6TU+z+pS3Zl5wPg6FAmckV9UyRJagnfJkw6kjkzRlKH7E7Y5VcG1xaI5ZVAZ/1yJElqWmVC/ATFnn9KHTIeO78CAFCcPgR8r34pkiQ1q7ieEN7WLCd/2N0AAAh8qU4dkiQ1qfBjyuH1FPM/SV0yEbv+FcB2A0M3AUfWPkWSpKaylcBnmJu/kBBi6piJ2v0VAADCebXPkCSpmYT7IHsTxcIFzXjyh/EMgFJ+KcRb6tAiSVKjqwBfYkvH7EZ+xG88xneHf46zyWjINzKQJKkuAncRwymU8j9PnVIN4/gVADC350bgp7VNkSSpIW0hcBab189ulZM/TOgZ/2wB5G5jvKNBkqSmF64jxgWUCitTl1Tb8z8FsKOB4UGIc2vUIklSg4i/htxHt90H15om9tN8R/g08FRtUiRJSu5hCB+mUDi0lU/+MNErAACDQ58h8oUatEiSlMpG4Et0T76EvgOeSB1TDxMfAMtiJ0PDtwGHVT9HkqS6ehLCl+nMzufkno2pY+pp4gMAYGDkTZDdjDcESpKaUlwP4cuQ+wqlGRtS16SwZwMAYGDoUuCM6qVIklRz9xO4kMlhgL785tQxKe35ABh86AXErbdD+P0q9kiSVG0ZgRsILGRl/vucE7LUQY1gzwcAwBWrZxPCLUBXdXIkSaqadRAGCZWFFHtXpY5pNHs3AACuGDqLwOer0CJJ0l6KjxP4Pln8NlN6rqcvVFIXNaq9HwCLYwebR26AeEwVeiRJmqjNEH5A5DtMYUm7/25/vPZ+AAAMrjiAuM/twIyqvJ4kSbv3IIGlEJfCpP+geOCTqYOaTXUGAGx/NHA5sE/VXlOSpG0ehfCfEJcRsqUUe+9NHdTsqjcAAK4YOp3AV6r6mpKkahgDOmiO92/JgBUQbiVmNwM/o1S4hxBi6rBWUt0BAHDF0EUEFlT9dSVJeyHOY0vXNXSXX03Ga4BDCLxm26PccQbbxkG9ZcAaiCsIubuI3EUWf8Fo592cNt3Pnamx6g+AxbGDzcPXAsdX/bUlSXviZor5t+zyJ+iFt3XRPXUGsbOXmPUSYg8xTAX2JzAV4lQI+wP7QuyE8MJdHyo+DqHMtg+O2wBxA4SHgUeADcQ4QgerILeKSZuG6DtktOrfrcal+gMAfvcmQaPLgTfW5PUlSeNVJgtvoD9/V9VfeeHaKew7NonKpFFvwms+tRkAAFevncpYeTlwSM2OIUnavcgFzCucmTpDjad2N4OcNP0RyvwpsLJmx5Ak7UZYTaX73NQVaky1vRt0fmEtIXs7MFTT40iSni0jYx7zpz2eOkSNqfaPgxR7VxE6jwJW1PxYkqTfiRfQn1+eukKNqz7PgxanD5FVjgLursvxJKm93U2WfTZ1hBpb7W4C3JmrH3gpY11LIb6+rseVpPaxBcIRlPK/TB2ixlbfd4Q66eW/JXQdRQg/qOtxJaldhHCGJ3+NR/3fErJ44JNMnvFeIl+r+7ElqaXFSynmL0tdoeaQ5j2h+0KFeYXTCZwJlJM0SFJr+SlbHv546gg1j/reA7Azgw8eQ8x9B5iWOkWSmtQwYfSNFGetTx2i5pF+AAAMri1A+btEDk+dIklNZiOBt1As/Cp1iJpLYwwAgGWxk6GhsyD8A83xcZWSlNpmcryDuYWbUoeo+TTOANhuYORoyK4EDkqdIkkNrEIIfRTz16YOUXNqvJ+0SzOWQe4wCFemTpGkBhWJfNCTv/ZG410B2NHlw+8kFxcChdQpktQgKsCplAqLUoeouTXeFYAd9eevp9x9KIGLgLHUOZKUWJnIXE/+qobGvgKwo4GRVxLihcT4Z6lTJCmBUUI40cv+qpbmGQDbDa4+jhjOAw5NnSJJ9REfJ8v10Z+/PnWJWkfzDQCAc2KOlw/9JTF8AXhl6hxJqqE15LLjmdt7R+oQtZbmHADbLYudDA/PIeMTBF6dOkeSquznZJX30j/zodQhaj3NPQC2izEwsPrdhNwngD9JnSNJey9cQzcl+vKbU5eoNbXGANjR5SOvoyM7lcjJwH6pcyRpgkYhfpJi4RJCiKlj1LpabwBsN/jQC4ij7wdKwJE0+iOPkgQrCXyAYuG21CFqfa07AHY0MHwQIXsfMbwfOIJ2+b4lNZPFdGz9IHMO3pQ6RO2h/U6Ei9ZNo3P0rcTccRDfA7w4dZKktraRGD/FvJ6vpw5Re2m/AbCjZbGToTWHE7M/JnAU8GZgauosSW0ixG/R2bWAk6Y/kjpF7ae9B8CzxRi4auQVVDgMstdCeC2BQ4EeoKuGR94CrATuJsY7If6SrOuXdFT+HTishseVlMYQIZxOMb8kdYjalwNgPBbHDsZWzWC0aya5rAc4EMJUYH8iUwl0Ay8EOoEuAvsSw2MQMwhbIT5F5AlgAznWAxuI4bfEbBUd8QHm9q7b6XEHVp8G4Wv1+jYl1dwm4Hy6w0U+3qfUHACNbPH6fdmyZYTIi1KnSNorZUJYRKV8tm/qo0bhAGh0A0OXAmekzpC0RypEriGXfY5i772pY6Qd+Wx8o+uIX02dID2PewnhFCL3pA5pIFshfoNceBXzCid68lcj8gpAMxgYWo5vcaxGFeinWLiCGANXjryLyMchHpM6K5GNRBYRwkWU8mtSx0i705k6QOMQw6WE6ABQIxpi8/pvAfzubWuXAEsYHDqUjPkE5tD6j9ZG4CZC/CaTc9/15j41C68ANINzYo6Zw78ADk2dIj1TXECp5+Jdfnnx3fuwed/jCbl5xPh2YJ/6tdXcELCYXMc3mXvQr1PHSBPlAGgWA6v/CsI1qTOkHWyge3IvfQc8Ma7/euHaKXSPHUvMvQ+yEyC8sMZ91Rd4AMJ1kF3D3MLP/LAeNTMHQLOIMTA4fCfw2tQpEgAhnE0x/7k9+n8Xrp1Cd/kosngMIRwDvB7oqGpfdTwC3ATxJ3RwI3N6vNFRLcMB0EwGh/+CGL+XOkMCHqUzzuLkno1VebVvrX4xFY4kMpsY3kBgNjC9Kq89fqMQ7gZ+RYi3ksXllAr3+FO+WpUDoJnEGBgcugPC61KnqN09z+/+q+HyVQdC56vIMQuYRchmEUMP8FJgGjB5D151I7AWGCGyjhBXE7mHXLyLfM/9HB3KVfwOpIbmAGg2VwwdT+DfUmeorf2GLesP5bQ3jiWtWLx+X7Y8NY0svASAjjCFLE76/69HNhJiRiU8RmdXmcmVh71DX3qaA6AZDQwtAd6VOkNt6wRKBUeo1OR8J8BmlIWPAFtTZ6gNBZZ78pdagwOgGfXn7ydwYeoMtZ2MLJ6ZOkJSdTgAmtXk8HngwdQZaitfYV7P7akjJFWHA6BZ9eU3E8LHU2eobTxIufvTqSMkVY8DoJkV89dCXJI6Qy0vEuMpzJ/2eOoQSdXjAGh2YayfyG9TZ6iFRRYyr+fHqTMkVZcDoNkVZ60ncFrqDLWsISrdn0wdIan6HACtYNtjWQtTZ6jlZOS89C+1KgdAq9jS+TEI96XOUEv5InN7bkwdIak2HACt4rTpT5GrnAyMpk5RK4jL6M6fm7pCUu04AFrJ3N47IPr7Wu2tNYSxD9AXKqlDJNWOA6DVbPuENu8H0J4qE+IHKM5anzpEUm05AFpR9+MfBn6aOkNNKPJJij03p86QVHt+GmCrGhjZH7JbgVekTlGTCOHrFPM+Uiq1Ca8AtKrSjA2E7DgCj6VOUTMI15Gf8aHUFZLqxwHQyoq99xLjHKCcOkWNLN5CN30cHfx7IrURB0CrK/VcB/FEHAHauRWEsRPoy29OHSKpvhwA7aDU810ipwIxdYoaylqyytu9419qT94E2E4Gh+cT4zfwz13wEB3xWOb03JM6RFIaXgFoJ8X8ZRA/mjpDyQ2RC0d58pfamwOg3ZR6Lob4Kfx1QHsKPEBn+S3Mza9InSIpLS8Ft6uB1SUI3wC6Uqeobn5DR+5Y5swYSR0iKT2vALSrUs8AMftz4MnUKaqDyB3ksrd68pe0nQOgnc3r/QEZR0P0LvCWFpfQufVo5vauS10iqXE4ANpdf+G/qfAm4P7UKaqBEC5hVeE45hy8KXWKpMbiPQDaZnDFAcRJV0M8NnWKqmIUOJ1SYVHqEEmNyQGgpy2OHTw1fC6BT+PfjSYW15Pl3k9/fnnqEkmNy3/k9VyDw+8mxiuBl6RO0UTFZZTDHOYX1qYukdTYvAdAz1XML6HS8Trgv1KnaNzKEM9lVeFtnvwljYdXALRrl9w/if0mfZHAAqAjdY52aRVZ7iT6ZzjYJI2bA0DPb3D4CGK8DDgkdYqeLV7FlvIZnPaKx1KXSGouDgCNz8Lbupg87WMQPgfskzpHrCTwIYqFH6YOkdScHACamMuHX0NHvIzI4alT2tQYhAvJyufQP3NL6hhJzcsBoIlbFjsZGj4V4tkQDkid00Z+Qlb5G/pn3pc6RFLzcwBoz111/35UJv0dsACYkjqndYX7iJxFaca1hOCnOEqqCgeA9t7A8EEEPkuM8/FpgWoaIcbP01NYxNGhnDpGUmtxAKh6rhw5jCz7LHACvsfE3niYEM/jf0e/yocP3po6RlJrcgCo+i4fPpgQP0agBHSnzmkagQcgXsrYlMuYP+3x1DmSWpsDQLWzaN00Okb/GsJHgJelzmlgPyPEi8kX/sVL/ZLqxQGg2lu4dgrdlZOJsQS8Gf/eAWwm8s/E3MX0z7gzdYyk9uM/xKqvwbUF4tiJEE4BZqXOqbMMuIUYB+kc/Q5zDt6UOkhS+3IAKI0YA1cNH0kWixDeC0xLnVRDtxLj1cRsMf0zH0odI0ngAFAjOCfmePnwG8h4J4F3AkcAnamz9sKjEH5MzH5EzG6gf+aDqYMk6dkcAGo8l6/6PXK5twHvgPBHwB/Q2O8v8BSBnxO5kYwbeUH+DvpCJXWUJO2OA0CNb+FtXUya9kpgNrncbGKcDRxOmg8l2gTcRQi3k2W3A3cz5Ym76DtkNEGLJO0xB4Ca0+LhbkazmVRyPZAViCFPCAVi7CWQJ/BiIi/ag1d+FFgHcTUhN0IWhyEOETqGCeUHKfauqva3IkkpOADU2i5fNZl9ct1Q2Y+sq4tKtm0UhJhRCY/RkdtKZ/YUXU886U/xkiRJkiRJkiRJkiRJkiRJkiRJkiRJkiRJkiRJkiRJkiRJkiRJkiRJkiRJkiRJkiRJkiRJkiRJkiRJkiRJkiRJkiRJkiRJkiRJkiRJkiRJkiRJkiRJkiRJkiRJkiRJkiRJkiRJkiRJkiRJkiRJkiRJkiRJkiRJkiRJkiRJkiRJkiRJkiRJkiRJkiRJkiRJkiRJkiRJkiRJkiRJkiRJkiRJkiRJkiRJkiRJkiRJkiRJkiRJkiRJkiRJkiRJkiRJkiRJkiRJkiRJkiRJkiRJkiRJkiRJkiRJkiRJkiRJkiRJkiRJkiQptf8D4ym3QFzF3fAAAAAASUVORK5CYII=;" vertex="1" parent="1">
          <mxGeometry x="2453" y="273" width="48" height="48" as="geometry" />
        </mxCell>
        <mxCell id="_SaHxXhYvdPaZlUhFqMO-82" value="Sales Force Lightening Framework" style="rounded=1;whiteSpace=wrap;html=1;strokeColor=default;" vertex="1" parent="1">
          <mxGeometry x="2015" y="234" width="564" height="30" as="geometry" />
        </mxCell>
        <mxCell id="_SaHxXhYvdPaZlUhFqMO-83" value="" style="endArrow=none;dashed=1;html=1;dashPattern=8 8;strokeWidth=2;rounded=0;exitX=0.198;exitY=1.003;exitDx=0;exitDy=0;exitPerimeter=0;strokeColor=#FFFFFF;" edge="1" source="_SaHxXhYvdPaZlUhFqMO-96" parent="1">
          <mxGeometry width="50" height="50" relative="1" as="geometry">
            <mxPoint x="2303" y="514" as="sourcePoint" />
            <mxPoint x="2059" y="392" as="targetPoint" />
          </mxGeometry>
        </mxCell>
        <mxCell id="_SaHxXhYvdPaZlUhFqMO-84" value="" style="endArrow=none;dashed=1;html=1;rounded=0;strokeColor=none;entryX=0.5;entryY=1;entryDx=0;entryDy=0;" edge="1" target="_SaHxXhYvdPaZlUhFqMO-75" parent="1">
          <mxGeometry width="50" height="50" relative="1" as="geometry">
            <mxPoint x="2303" y="514" as="sourcePoint" />
            <mxPoint x="2353" y="464" as="targetPoint" />
          </mxGeometry>
        </mxCell>
        <mxCell id="_SaHxXhYvdPaZlUhFqMO-85" value="" style="endArrow=none;dashed=1;html=1;dashPattern=12 12;strokeWidth=2;rounded=0;entryX=0.5;entryY=1;entryDx=0;entryDy=0;strokeColor=#FFFFFF;" edge="1" target="_SaHxXhYvdPaZlUhFqMO-77" parent="1">
          <mxGeometry width="50" height="50" relative="1" as="geometry">
            <mxPoint x="2346" y="734" as="sourcePoint" />
            <mxPoint x="2353" y="464" as="targetPoint" />
          </mxGeometry>
        </mxCell>
        <mxCell id="_SaHxXhYvdPaZlUhFqMO-86" value="" style="endArrow=none;dashed=1;html=1;dashPattern=8 8;strokeWidth=2;rounded=0;entryX=0.5;entryY=1;entryDx=0;entryDy=0;exitX=0.5;exitY=1;exitDx=0;exitDy=0;strokeColor=#FFFFFF;" edge="1" source="_SaHxXhYvdPaZlUhFqMO-98" target="_SaHxXhYvdPaZlUhFqMO-76" parent="1">
          <mxGeometry width="50" height="50" relative="1" as="geometry">
            <mxPoint x="2303" y="514" as="sourcePoint" />
            <mxPoint x="2353" y="464" as="targetPoint" />
          </mxGeometry>
        </mxCell>
        <mxCell id="_SaHxXhYvdPaZlUhFqMO-87" value="4.Helper functions queries action, Lightning Framework&lt;br&gt;Calls Apex method()" style="rounded=1;whiteSpace=wrap;html=1;fillColor=#f0a30a;strokeColor=#BD7000;fontColor=#000000;" vertex="1" parent="1">
          <mxGeometry x="2381" y="398" width="120" height="72" as="geometry" />
        </mxCell>
        <mxCell id="_SaHxXhYvdPaZlUhFqMO-88" value="3.Controller function&amp;nbsp;&lt;br&gt;Invokes&amp;nbsp;&lt;br&gt;Helper function" style="rounded=1;whiteSpace=wrap;html=1;fillColor=#f0a30a;strokeColor=#BD7000;fontColor=#000000;" vertex="1" parent="1">
          <mxGeometry x="2214" y="398" width="120" height="60" as="geometry" />
        </mxCell>
        <mxCell id="_SaHxXhYvdPaZlUhFqMO-89" value="2.Browser raises&amp;nbsp;&lt;br&gt;onClick event" style="rounded=1;whiteSpace=wrap;html=1;fillColor=#f0a30a;strokeColor=#BD7000;fontColor=#000000;" vertex="1" parent="1">
          <mxGeometry x="2076" y="398" width="120" height="60" as="geometry" />
        </mxCell>
        <mxCell id="_SaHxXhYvdPaZlUhFqMO-90" value="1.user clicks &lt;br&gt;button or link in&lt;br&gt;markup" style="rounded=1;whiteSpace=wrap;html=1;fillColor=#f0a30a;strokeColor=#BD7000;fontColor=#000000;" vertex="1" parent="1">
          <mxGeometry x="1914" y="390" width="120" height="60" as="geometry" />
        </mxCell>
        <mxCell id="_SaHxXhYvdPaZlUhFqMO-91" value="" style="endArrow=none;dashed=1;html=1;dashPattern=12 12;strokeWidth=2;rounded=0;entryX=0.5;entryY=1;entryDx=0;entryDy=0;exitX=0.811;exitY=1.001;exitDx=0;exitDy=0;exitPerimeter=0;strokeColor=#FFFFFF;" edge="1" parent="1">
          <mxGeometry width="50" height="50" relative="1" as="geometry">
            <mxPoint x="2532" y="798" as="sourcePoint" />
            <mxPoint x="2530" y="382" as="targetPoint" />
          </mxGeometry>
        </mxCell>
        <mxCell id="_SaHxXhYvdPaZlUhFqMO-92" value="" style="rounded=0;whiteSpace=wrap;html=1;" vertex="1" parent="1">
          <mxGeometry x="2042" y="680" width="34" height="54" as="geometry" />
        </mxCell>
        <mxCell id="_SaHxXhYvdPaZlUhFqMO-93" value="" style="rounded=0;whiteSpace=wrap;html=1;" vertex="1" parent="1">
          <mxGeometry x="2514" y="482" width="34" height="204" as="geometry" />
        </mxCell>
        <mxCell id="_SaHxXhYvdPaZlUhFqMO-94" value="" style="rounded=0;whiteSpace=wrap;html=1;" vertex="1" parent="1">
          <mxGeometry x="2325" y="482" width="34" height="54" as="geometry" />
        </mxCell>
        <mxCell id="_SaHxXhYvdPaZlUhFqMO-95" value="" style="endArrow=none;dashed=1;html=1;dashPattern=8 8;strokeWidth=2;rounded=0;entryX=0.5;entryY=1;entryDx=0;entryDy=0;exitX=0.198;exitY=1.003;exitDx=0;exitDy=0;exitPerimeter=0;strokeColor=#FFFFFF;" edge="1" source="_SaHxXhYvdPaZlUhFqMO-74" target="_SaHxXhYvdPaZlUhFqMO-96" parent="1">
          <mxGeometry width="50" height="50" relative="1" as="geometry">
            <mxPoint x="2068" y="802" as="sourcePoint" />
            <mxPoint x="2069" y="386" as="targetPoint" />
          </mxGeometry>
        </mxCell>
        <mxCell id="_SaHxXhYvdPaZlUhFqMO-96" value="" style="rounded=0;whiteSpace=wrap;html=1;" vertex="1" parent="1">
          <mxGeometry x="2052" y="458" width="34" height="54" as="geometry" />
        </mxCell>
        <mxCell id="_SaHxXhYvdPaZlUhFqMO-97" value="" style="endArrow=none;dashed=1;html=1;dashPattern=8 8;strokeWidth=2;rounded=0;entryX=0.5;entryY=1;entryDx=0;entryDy=0;exitX=0.5;exitY=1;exitDx=0;exitDy=0;strokeColor=#FFFFFF;" edge="1" source="_SaHxXhYvdPaZlUhFqMO-74" target="_SaHxXhYvdPaZlUhFqMO-98" parent="1">
          <mxGeometry width="50" height="50" relative="1" as="geometry">
            <mxPoint x="2204" y="800" as="sourcePoint" />
            <mxPoint x="2206" y="385" as="targetPoint" />
          </mxGeometry>
        </mxCell>
        <mxCell id="_SaHxXhYvdPaZlUhFqMO-98" value="" style="rounded=0;whiteSpace=wrap;html=1;" vertex="1" parent="1">
          <mxGeometry x="2189" y="470" width="34" height="54" as="geometry" />
        </mxCell>
        <mxCell id="_SaHxXhYvdPaZlUhFqMO-99" value="" style="endArrow=none;dashed=1;html=1;dashPattern=12 12;strokeWidth=2;rounded=0;entryX=0.5;entryY=1;entryDx=0;entryDy=0;strokeColor=#FFFFFF;" edge="1" target="_SaHxXhYvdPaZlUhFqMO-100" parent="1">
          <mxGeometry width="50" height="50" relative="1" as="geometry">
            <mxPoint x="2342" y="794" as="sourcePoint" />
            <mxPoint x="2342" y="385" as="targetPoint" />
          </mxGeometry>
        </mxCell>
        <mxCell id="_SaHxXhYvdPaZlUhFqMO-100" value="" style="rounded=0;whiteSpace=wrap;html=1;" vertex="1" parent="1">
          <mxGeometry x="2325" y="680" width="34" height="54" as="geometry" />
        </mxCell>
        <mxCell id="_SaHxXhYvdPaZlUhFqMO-101" value="" style="endArrow=classic;html=1;rounded=0;exitX=1;exitY=0.5;exitDx=0;exitDy=0;" edge="1" source="_SaHxXhYvdPaZlUhFqMO-96" parent="1">
          <mxGeometry width="50" height="50" relative="1" as="geometry">
            <mxPoint x="2346" y="592" as="sourcePoint" />
            <mxPoint x="2190" y="485" as="targetPoint" />
          </mxGeometry>
        </mxCell>
        <mxCell id="_SaHxXhYvdPaZlUhFqMO-102" value="" style="endArrow=classic;html=1;rounded=0;" edge="1" parent="1">
          <mxGeometry width="50" height="50" relative="1" as="geometry">
            <mxPoint x="2227" y="494" as="sourcePoint" />
            <mxPoint x="2323" y="494" as="targetPoint" />
          </mxGeometry>
        </mxCell>
        <mxCell id="_SaHxXhYvdPaZlUhFqMO-103" value="" style="endArrow=classic;html=1;rounded=0;exitX=1;exitY=0.5;exitDx=0;exitDy=0;entryX=0;entryY=0.132;entryDx=0;entryDy=0;entryPerimeter=0;" edge="1" source="_SaHxXhYvdPaZlUhFqMO-94" target="_SaHxXhYvdPaZlUhFqMO-93" parent="1">
          <mxGeometry width="50" height="50" relative="1" as="geometry">
            <mxPoint x="2419" y="500" as="sourcePoint" />
            <mxPoint x="2515" y="500" as="targetPoint" />
          </mxGeometry>
        </mxCell>
        <mxCell id="_SaHxXhYvdPaZlUhFqMO-104" value="" style="endArrow=classic;html=1;rounded=0;exitX=0;exitY=1;exitDx=0;exitDy=0;" edge="1" source="_SaHxXhYvdPaZlUhFqMO-93" parent="1">
          <mxGeometry width="50" height="50" relative="1" as="geometry">
            <mxPoint x="2508" y="686" as="sourcePoint" />
            <mxPoint x="2358" y="686" as="targetPoint" />
          </mxGeometry>
        </mxCell>
        <mxCell id="_SaHxXhYvdPaZlUhFqMO-105" value="" style="endArrow=classic;html=1;rounded=0;exitX=0;exitY=0.75;exitDx=0;exitDy=0;entryX=1;entryY=0.75;entryDx=0;entryDy=0;" edge="1" source="_SaHxXhYvdPaZlUhFqMO-100" target="_SaHxXhYvdPaZlUhFqMO-92" parent="1">
          <mxGeometry width="50" height="50" relative="1" as="geometry">
            <mxPoint x="2232" y="716" as="sourcePoint" />
            <mxPoint x="2076" y="716" as="targetPoint" />
          </mxGeometry>
        </mxCell>
        <mxCell id="_SaHxXhYvdPaZlUhFqMO-106" value="5.Apex action method() is invoked and data is returned" style="rounded=1;whiteSpace=wrap;html=1;fillColor=#f0a30a;strokeColor=#BD7000;fontColor=#000000;" vertex="1" parent="1">
          <mxGeometry x="2566" y="543" width="120" height="72" as="geometry" />
        </mxCell>
        <mxCell id="_SaHxXhYvdPaZlUhFqMO-107" value="6.JavaScript callBack functions are invoked upon retrun from Apex action method()" style="rounded=1;whiteSpace=wrap;html=1;fillColor=#f0a30a;strokeColor=#BD7000;fontColor=#000000;" vertex="1" parent="1">
          <mxGeometry x="2381" y="596" width="120" height="78" as="geometry" />
        </mxCell>
        <mxCell id="_SaHxXhYvdPaZlUhFqMO-108" value="7. JavaScript callback function process logic and/or adjusts component display" style="rounded=1;whiteSpace=wrap;html=1;fillColor=#f0a30a;strokeColor=#BD7000;fontColor=#000000;" vertex="1" parent="1">
          <mxGeometry x="2169" y="633" width="120" height="72" as="geometry" />
        </mxCell>
        <mxCell id="_SaHxXhYvdPaZlUhFqMO-109" value="Actor" style="shape=umlActor;verticalLabelPosition=bottom;verticalAlign=top;html=1;outlineConnect=0;" vertex="1" parent="1">
          <mxGeometry x="1806" y="305" width="30" height="60" as="geometry" />
        </mxCell>
        <mxCell id="_SaHxXhYvdPaZlUhFqMO-110" value="" style="endArrow=none;dashed=1;html=1;dashPattern=8 8;strokeWidth=2;rounded=0;entryX=0.5;entryY=1;entryDx=0;entryDy=0;strokeColor=#000000;" edge="1" parent="1">
          <mxGeometry width="50" height="50" relative="1" as="geometry">
            <mxPoint x="1825" y="788" as="sourcePoint" />
            <mxPoint x="1825" y="379" as="targetPoint" />
          </mxGeometry>
        </mxCell>
        <mxCell id="_SaHxXhYvdPaZlUhFqMO-111" value="" style="endArrow=classic;html=1;rounded=0;entryX=1;entryY=0.75;entryDx=0;entryDy=0;" edge="1" parent="1">
          <mxGeometry width="50" height="50" relative="1" as="geometry">
            <mxPoint x="2046" y="727" as="sourcePoint" />
            <mxPoint x="1817" y="727" as="targetPoint" />
          </mxGeometry>
        </mxCell>
        <mxCell id="_SaHxXhYvdPaZlUhFqMO-112" value="8.User sees redisplayed view" style="rounded=1;whiteSpace=wrap;html=1;fillColor=#f0a30a;strokeColor=#BD7000;fontColor=#000000;" vertex="1" parent="1">
          <mxGeometry x="1896" y="644" width="120" height="72" as="geometry" />
        </mxCell>
        <mxCell id="_SaHxXhYvdPaZlUhFqMO-113" value="" style="endArrow=classic;html=1;rounded=0;exitX=1;exitY=0.5;exitDx=0;exitDy=0;" edge="1" parent="1">
          <mxGeometry width="50" height="50" relative="1" as="geometry">
            <mxPoint x="1830" y="475" as="sourcePoint" />
            <mxPoint x="2052" y="475" as="targetPoint" />
          </mxGeometry>
        </mxCell>
        <mxCell id="HkrrA9YoYlj2VY17bmsr-80" value="" style="shape=image;verticalLabelPosition=bottom;labelBackgroundColor=default;verticalAlign=top;aspect=fixed;imageAspect=0;image=data:image/png,iVBORw0KGgoAAAANSUhEUgAAAgAAAAIACAYAAAD0eNT6AAAACXBIWXMAAA7DAAAOwwHHb6hkAAAAGXRFWHRTb2Z0d2FyZQB3d3cuaW5rc2NhcGUub3Jnm+48GgAAIABJREFUeJzt3X/wZ1V93/HnfpdfCysQE5UsGiMGQhAUs4SKJPULxibVtmlnRFEbxWQaQSDEOEYzbdTYacek/aOZ1jb+xAQjonHGNBIbY/xu1MTERWFBp5GZaCKCC2mQX7sLC7vbP873G3a/7PfL53Pvufd9zj3Px8xrdFA+n3PP+34/n3PPOZ97QZIkSZIkSZIkSZIkSZIkSZIkSZIkSZIkSZIkSZIkSZIkSZIkSZIkSZIkSZIkSZIkSZIkSZIkSZIkSZIkSZIkSZIkSZIkSZIkSZIkSZIkSZIkSZIkSZIkSZIkSZIkSZKkx7chugFzOB54CXAh8BzgB4ETgSMD26RY24ALevz7i8BSxe8vKdbDwD3A3wI3AZ8FrgfuD2zTpJwGvB/YBRww5qAs0s9S5e9vjCkvu4D3AaeizjYB/5U0woouqCkvS/SzWPn7G2PKzl7gN4Fj0FxOBW4hvoCm3CzSz1Ll72+MqSNfBL4fzeS5wF3EF82UmyX6Waz8/Y0xdeU24NkUprRNgKcCfw48KbohKtoFpA14XS3R7wo++v0l1ecO4Fzg9uiGrFiIbsBBjgE+hl/+Wt82+n35LtLvyzf6/SXVaQvwB6T9bUXYGN2Ag7wT+DfRjVDxXkv6yU1XV5N+Qlrr+0uq1xZgH/0uIrIpZQngNOBrwBHRDVHRtuHv/iXVbRdpufs70Q0pZQngzfjlr8f36z3//bdV/v6S6ncc8GvRjYAyZgCOJ42Ejo1uiIq2Da/+JU3DLtJPA0PvGFjCDMBL8Mtfjy/66jv6/SVNx3HAi6MbUcIA4MLoBqh423Dnv6RpCf/uK2EA8JzoBqh40Vff0e8vaXrCbwxUwgDgGdENUNG24dW/pOk5JboBJQwAjo9ugIoWffUd/f6SpumE6AaU8CuAAyO9z32k5zR/FthBupnLPcv/24mkm7OcTVqXeQnwhJHaNava29/FNtz5L2m6SvgODjX0Qxi+Dvwc8/3S4Fjg54FbR2jf1NvfJ4tzHPPhLFX+/saYaad5Q3XsbuCN9LvB0JHAm4A9A7Zzqu3vm6Uexw0+8c8YU36aN0Sn3gqcmbGNzyM9yWmsk6L29ufIYs9jXqr8/Y0x00/zcnfoVxjmiYJPJa29D31C1N7+HFnqeayLlb+/MaaNNC9nZ97KsI8TfirptsVDnQy1tz9XFnse51Ll72+MaSPNy9WRexjnpkJbSevzuU+E2tufK0s9j2+x8vc3xrST5uXqyDeO2Oa3Zmz3VNqfK4s9j22p8vc3xrST5uXoxK8z7uOEN5N3Kr329ufKUs/jWqz8/Y0xbaV5OTrx50ZvNVzWo71Ta3+uLPY8pqXK398Y01aa17cD7yXmccLHke7O13r7c2Wp5/EsVv7+xpj2EqqEZwH0dT1pU9vYdgF/lOF1am9/LtH33I9+f0ka1RQGAJ+t/L1rb38O2/CJf5I0qikMAHYEvvfNGV6j9vbnEH31Hf3+kjS6KQwAvhn43t/I8Bq1t7+vbXj1L0mjm8IA4L7A9743w2vU3v6+oq++o99fkkJMYQCgem3Dq39JCjGFAcDxge99QobXqL39fURffUe/vySFmcIA4BmB731Khteovf1dbcOrf0kKM4UBwNmB753j4T21t7+r6Kvv6PeXpFBTGABcGPjeL8zwGrW3v4ttePUvSc3reyvF+0m3tR3bccvv3Xr7u2SxZ9uXKn9/Y4w5QLApzABsBi4OeN9XLr93X7W3f17b8OpfkkSeUdStwJEjtvko4G8ytX0K7Z8niz3bvlT5+xtjzEqal6sj3zRim9+Ssd1Taf8sWerZ7sXK398YYw5O83J15B7geSO09zzgwYztnkr7Z8liz7YvVf7+xhhzcJqXszO/AzxtwLZuAb6duc1Tav96WerZ9sXK398YY1anebk7dAfw1AHa+TTS0/OGPiFqb/9aWezZ/qXK398YY1aneUN06l3AP83YxvNIV+djnRS1t391lnq2f7Hy9zfGmMOleUN17IPAW+n3G/ujgF8lZs289vYfnMUexwBe/RtjppnmDd3B3wEuY74v0uOAXyDup3JTav/SHO0+nMXK398YY9ZKqA3RDWC8TngAuJ70hXAT8E3gnuX/7UTSQ3meC1wAvJiYm+Ssp9b2X0C/G+8s0e8KPvr9JWktod/BLQ0ANL5tpC/grhbpdwUf/f6StJ7Q7+Ap3ApY5Yp+4l70+0tSsRwAaCjb8J7/klQsBwAaSvTVd/T7S1LRHABoCNvw6l+SiuYAQEOIvvqOfn9JKp4DAOW2Da/+Jal4DgCUW/TVd/T7S1IVHAAop2149S9JVXAAoJyir76j31+SquEAQLlsw6t/SaqGAwDlEn31Hf3+klQVBwDKYRte/UtSVRwAKIfoq+/o95ek6jgAUF/b8OpfkqrjAEB9RV99R7+/JEmSJEmSJEmSJEmSJEmSJEmSJEmSJEmSJEmSJEmSJEmSJEmSJEmSJEmSJEmSJEmSpInYEN0A4EB0AyRJChD6HbwQ+eaSJCmGAwBJkhrkAECSpAY5AJAkqUEOACRJapADAEmSGuQAQJKkBjkAkCSpQQ4AJElqkAMASZIa5ABAkqQGOQCQJKlBDgAkSWqQAwBJkhrkAECSpAY5AJAOdTNwOXAmcARwJHAWcCVwS2C7anEz8EukPjsGOB44A7gC+L8jvf/ly+9/JKmGZy2//1dHeH9JczhgTAHZTfqS2MDaFkgDgT0FtLe0PAi8nvUvKlb678EB3n/3jO//i8v/3+j+MuYACi+AMd8GtjK7f4ZfIgdnD3DBHP13IXkHAbuBF83x/ucAtw/YH8bMmuZFF8C0nS8BW5jfVQW0vZRc3qH/Xp/x/a/s8P4nA9sztsGYLgm13nTnWMI7Qc26Dngt6Qp2Xguk9eZnZW1RfT4PvID5/443AjeS1uf7uBk4u8P7AxwLXA28rGcbpK5Cv4PdBKgWHQDeBryCbl/+APuB92RrUZ0eIe2b6PLluw94f4Y2vLvj+0NaOrgY+PUeryFVywGAWrMbeDnwDvp/6P9Z/+ZU7V2kK/Cu/jRDG/rW4ADwdtJAoOtgUKqSSwBqye3AzwBfzvR6m4H7M71WbXYCpwP39niNY4FdPdtxLPm+uM8B/oBue0KkLlwCkEawHTiXfF/+rfsV+n35Q9oHUJIbSOfIDdENkcbgAEAtuI60Ue2OzK/7Q5lfrxafBz6U4XV+MMNrPDPDaxzsdtK58tHMrysVxwGApizHZr/1LA7wmqXrs/FvtQszvMZihtdYzc2B0kiif4dpppldwEUMZwH4WgHHOXb+W47OI/XfX2doz80MeyHzMrzpkxkuzYsugJle5r2zXxct3gjoO8AJOToPuCRju67I1Ka1eOdAM1SaF10AM63cCDyNYb2INp8H8LM5Oo/0gKA7MrbrIeDFmdq2li2ku0ZG18BMK82LLoCZTj4CbGJYrU4Jf458P1n67wO0bzfDLvlA+snhdQO03bSb5kUXwNSf/cA7GXYteAPwZtId7KKPd+w8AjynfxcC6da/Dw/UTs8DU1uaF10AU3f2AK9iWMcA1xRwrFHJtfFvA+nOfUO396Okq/UhvZS00TS6NqbuNC+6AKbe3A78GMNqfe13J3Bi715MLhmx3TcCP5Cp3Ws5G/i7EY/JTC/Niy6AqTNjbPbzA77cjX+zxAGiKT3Niy6AqS9O8Y6TL1D2xr9Z4hKRKTnNiy6AqSdu8hovtWz887wxNad50QUwdcQruXFT28a/WeLMkSktzYsugCk/ruWOm1o3/s0SNweaktK86AKYsuNmv/FT88a/WeKA0pSS5kUXwJQbp2zHzxQ2/s0Sl5RMCWledAFMeXHTVkymtPHP88zUkOZFF8CUlbGuzD5UwLGWlilu/JslzjSZqDQvugCmnLg2G5cpb/ybJW4ONBFpXnQBTBlxs19spr7xb5Y4ADVjp3nRBTDxcQo2Nq1s/Jslbg40Y6Z50QUwcXETVnxa2/jneWlKSvOiC2Bi4ma/MtLqxr9Z4syUGTrNiy6AGT+utZaR1jf+zRL3ppgh07zoAphx4wdqOXHj32xxwGqGSvOiC2DGyxhTqhfhlOoscePffHFzoBkizYsugBk+bqoqK2786xbPY5M7zYsugBk2bvYrL2786xc3B5pcaV50Acxwce20vLjxL0/cy2JypHnRBTDDxA/IMuPGv3xxgGv6pnnRBTD542a/MuPGv/xxc6Dpk+ZFF8Dki5ukyo0b/4aL573pmuZFF8DkyW7SVfmQjiXNLkQfa43JufHvCwUcT4n5CLCpe9fO5GWkv7XoYzV50rzoApj+eQh48erCZuZaaPe48W+8jLH35UWkpYfoYzX907zoApj+ueIxVc3rHNKGq+jjrDW5Nv6dCNxZwPGUnm8DWzv28ax+sYDjNP3TvOgCmH65Gdj4mKrm83Kc8uyTz+HGv4jsYtglsY3AVws4TtMvoYbctKI2fIC0MSm3lU1PH2b4ddWp2gdcSZ4PmrOASzO8TiuOBa5juM2B+4APDvC60qiiR2CmX854bEl7c7Nfnrjxr4wMtTnwrAKOzfRLqFxTg32Ed4J6eQLwQMbX2wJ8guFvsDJ1dwKnA/dkeK1LgKszvE7LbgL+FXBbxtd8AnBfxtfT+EK/g10CUF8lDCL1WG8iz5f/8cB/zvA6yv+34ue3evEEUl+5f/J0B7AIfCzz67bk86SHI+Xwn4Dvz/RarfoYcD7wrcyvO/TPDTVxDgDU108N8Jq7Sbv/30K6y5pm58a/chwAfgO4mHRO5/bTA7ymNKroTRimX/wZYFlx418ZWRnEDsWfAU4jzYsugOmfKx9T1by8EdBs+Q5wQsc+Xu2SAo6n1ozxlMCrCjhO0z/Niy6A6R9vBVxGfNRvfG4EfmD+Lp/Li4AHCzhW0z/Niy6AyRMfBhQb7/gXn7Eeg+2S2HTSvOgCmHzxsagx8VG/sfG8N13TvOgCmPwZ60poVwHHWkJybvz7swKOp6bsAf5tl86ewzHANQUcq8mf5kUXwAyTMR6LejbwdwUca2R81G9c7gDO7dLRc9gC/FUBx2qGSfOiC2CGyxi7oVvfHOjGv5iMsdnPAe7007zoAphhswd4FcM6hnTnu+hjHTtfwI1/EfkYwy9xvRSXuFpI86ILYIaPm6Tyx41/48fz2ORO86ILYMaLmwPzxY1/48bNfmaINC+6AGbcuDmwf9z4N27c7GeGSvOiC2DGj5sD+8WNf+PFzX5myDQvugAmJm4O7BY3/o0XN/uZodO86AKYuLipar648c/z0kwrzYsugInPGJsDp3Cl5ca/4eNmPzNmmhddAFNG3By4ftz4N3zuYJy9KW72MytpXnQBTDlxc+DacePfsHGzn4lI86ILYMqKmwMfGzf+DRs3+5moNC+6AKa8uAnr0bjxz/PMTDfNiy6AKTduDnTj31Bxs58pIc2LLoApOy1vDnTj3zBxs58pJc2LLoApP61uDnTjX/642c+UlOZFF8DUkbE2B5YyZevGv/xxs58pLc2LLoCpJ61s2nLjn+eNaSPNiy6AqS9T3xzoxr98cbOfKTnNiy6AqTNT3Rzoxr98cbOfKT3Niy6AqTdT3Bzoxr88cbOfqSHNiy6AqTtT2hzoxr88cbOfqSXNiy6AqT9T2OTlxj/PA9NemhddADOdfATYxLBeBuweoO05N/59YYD2lZ7dpNoMaRPpHIs+VjOdNC+6AGZaGWNz4ItISw+52uzGv355EHhJhr5bj5v9zBBpXnQBzPTybWArw7oyY3tfnalNJwJ3ZmxXLbk8R+et4xzSORV9nGZ6aV50Acw0swu4iOEsAF/N0M6vkW/NusWNfzsYds3/ItzsZ4ZLqCH/cKRIxwLXAW8l3876g+0H3pvhdf7n8mv1dTZwWYbXqc17yNN/q20A3kY6h4b+RYEUwgGApmwD8OvAtQyzOfDPMrzGUobX2AD8D2BjhteqTY4arLaJdM68nWEGj1IRSji5w6dB1ITtwL8m3Rwnl83A/RleY1fP17gEuLrna9TqWNKGzFy2AH9AWveXhhb6HewMgFrxY6Q7+g29OXBefaevTwR+I0dDxDmkc8QvfzXBAYBacjLwOfJtDnxmAa/xH4EnZ2hHrU7J9DoXkZYTTs70elLxHACoNTk3B76gf3P4yR7/bqsb/w622PPfd7OfmuUeALXsOuC1dFtDXgBuAc7o2YZbgOeSbi07jw3A54Hze75/7W4h3UK5y+fIJtLeiZdnbZE0O/cASEFeTpr23dLh372S/l/+kO7b3+Uq/o345Q+p/7rcCGgLaTnIL38pUPSNGIyZ986B/5y8twJ+iPmWAn6a9PCg6H4rJbuBn5qj/7yznyklzYsugDEHSF8il7P+lNxG4CrSF3bu939o+bXXm5VbAN5Cm0/6e7w8SJqVWe9eCBuAKxjmYU7GdEko9wBIh/oa8NvAZ4G/BY4Ank66wrwEeNbA7/9V0t3t/hL4xvI/ewZphuDngR8a+P1r91XSuv6nSfXbT6rfC0lLLTmWbaRcQr+DHQBIkhTDTYCSJGlcDgAkSWqQAwBJkhrkAECSpAY5AJAkqUEOACRJapADAEmSGuQAQJKkBjkAkCSpQQ4AJElqkAMASZIa5ABAkqQGOQCQJKlBDgAkSWqQAwBJkhrkAECSpAY5AJAkqUEOACRJapADAEmSGuQAQJKkBjkAkCSpQQ4AJElqkAMASZIa5ABAkqQGOQCQJKlBDgAkSWqQAwBJkhrkAECSpAY5AJAkqUEOACRJapADAEmSGuQAQKW5Afhl4EzgCcs5c/mf3RDYLkmalA3RDQAORDdA4R4GPgG8B/jM4/x/twK/ALwaOGbgdknSkEK/gx0AKNJdwNXAu4Db5vx3TwJeA1wJnJy5XZI0BgcA0Q3Q6L4CvBu4BtjT87WOAn4G+CXg+T1fS5LG5AAgugEaxTzT/F25PCCpJg4AohugQfWZ5u/K5QFJNXAAEN0ADSLnNH9XLg9IKpkDgOgGKJsxpvm7cnlAUmkcAEQ3QL1FTPN35fKApFI4AIhugDorYZq/K5cHJEVzABDdAM2l5Gn+rlwekBTBAUB0AzSTmqb5u3J5QNKYHABEN0DrqnmavyuXBySNwQFAdAP0GFOc5u/K5QFJQ3EAEN0A/aMWpvm7cnlAUm4OAKIboCan+btyeUBSLg4AohvQqBqm+bcs/+cdoa1Ym8sDkvoo4Ts41AEzau4E3gk8bZbiBNkK/C6wF3gE+EPgJ0NbtL6TgDcD3ya+vsaYetK86AK0ki+TrlY3zVaW0R0FXAT8OdM+BmOMWUmoEqYfwjthwmqY5u+yua6GzYouD0h6PCV8B4eKHoFNMbVN83c9TpcHjDE1p3nRBZhSWp4ib/nYjTF1JlQJ0w/hnVC5qU7zd+XygKRalPAdHCp6BFZrWpnm7xqXB4wxpad50QWoLU5122fGmGkkVAnTD+GdUAGn+fNweUBSSUr4Dg4VPQIrOU7zDxOXB4wxJaR50QUoMU5Z29crptTXxphDE6qE6YfwTiiE0/yxXB6QNLYSvoNDRY/AouM0f1lxecAYM1aaF12AqDj1XH6skTFmyIQqYfohvBNG5DR/nVwekDSE0O9gBwDjuJP0pf/blP1s+6uAi4Ejg9tSqn3Ap4DfotwB3BbgUtJg4CnBbVGc+4Bbga8Df738328DHgB2Ad9d/k+A44DvATYv//enAT8MnA6ctpzjR2x7S0r4Dg4VPQUzZJxCnm6srSkpDwB/QtobshVYIK9TSOf7R0mDh+jjnUqaF12A3NkLXAucl7OTMnMTWb7UsInzPNI52cImzpZyD/A+4AXAEYznCGAReD9wb89jaD3Niy5AruwE3kGagi1VS7v5x04Nvx7YQjpHdxLfX6Zb9pOWoS6mjNmnTcArSG3aT3z/1JbmRRegb5wKNp4TZujsIw0wtx6mnqU4k3SB8TDx/VVLmhddgC5xmt/MEpcHTN88AnwAOHWtAhboNNKvZh4hvv9KT/OiCzBPavhAd5q/vNSwPOCAsbzcAJy7XtEKdzbwF8T3Y8lpXnQBZolTusZzyYyVu0k/yd34OLWqwQbSvSn+nvh+LTHNiy7AWnGa3wyZGmaTXB4YP58EnjRLcSrzJOB64vu3tDQvugCrU8MHs9P804nLA+YAaePc28n/+/2SbCDNbPi59WiaF12AlTg1a6LjOdhmvgWcP0cdancu8A3i+72ENC+y8/eS7mzl1ZcpKbXMQr0b2EN8f9WcWyj73iFDOQn4CvH9H53mRXR6LR+wTvO3HZcHpp0l4IT5u3wyNgOfJr4OkWnemJ3tFKupNZ6708onKLeWYzoauI74ekSleUN3sLv5zZRSw+yVvx5YP7/PNH7il8tG4OPE1yUizRuqY2v4oHSa33SNywN1Zgk4pk+nTtRRtLkc0LzcHbqDdOOJo8c8iDk4VWpyp/TlgaNJf5M7iO+ryHwFOL5nX07ZCcCNxNdpzDQvV0fuJn0Ilvo7Wq+GzNApfdZrAbiU9Lca3Vdj5++Ap/Tvwsk7CbiN+HqNlebl6MTdpGdil8hpfjN2Sl8eWKStnw/upew9SKU5n3aeKNi8HJ146eitXp/T/KaUlLo8cCnxfTNW3pSpz1ryZuLrNkaa17cDb6KcaX+n+U2pKW15YIE29gR8knQLXM1nA208O6B5fTvw9eM3+TGc5je1pKTlgSuI748h8/+Y5oN9xvJk4B+Ir+OQaV7fDjx9/CYDTvOb+hO9PHDGDG2sOf8uX1c1a+pLRaFKmJrq2wmbgAdzNGRGJwGvAa4ETh7xfaWh3AVcDbyLtAN7LJtIG3inaDvwPGB/dEMqtwD8BfBPohsykNDv4FLWzvsYuwPDR23SRJRwATKEfcDr8Ms/h/3A5aQ+1QT1nUJxCcCYbnEJYJh8IGcnCYDfIb6uQ6R5fTuwlE2APhrV1JCSHoE9xU2AjwCn5uwkAelCbx/x9c2d5vXtwB2Us5TxFPwZoCkzJf4M8Gbi+yV3rs3ZSTrER4mvb+40L0cnXjZ6q9fn8oApJdHT/Gu5jPi+yZ39wFk5O0mHOJvUx9F1zpnm5ejEPcAFYzd8Ri4PmLFT0jT/4VzINP8ePpWzk3RYf0x8nXOmebk6cjfpqqKU5YDVXB4wQ6e0af7VFkg7uqf45X8AuDhfV2kNryS+zjnTvNwdejM+Dti0lVKn+VesPA54imv+K7mHcvt/So4F7iO+3rnSvKE6tvSrIXB5wHRPSbf0XUtLz8Z4b6Y+0+P7APH1zpXmDd3Be0k7c0t+HKfLA2bW1DCwPY/0N9fSszFekKXnNIsLia93rjRvzM4ufarU5QGzVjx3y819wBH9u1AzOoLpLAM0L6LTa7iKcnnAOM1fR/53717UvP6I+LrnSPMiO7+GD1iXB9pLLQNUH4Gd8oaefan5vYn4uudI86ILsBKnWE10PAfrzHP6dKo62Up83XOkedEFWJ2dwDuALUMedE8uD0wnNcxCbSH9Tewkvr9Ky72Ue++RKVsA7ie+/n3TvOgCrJUaPphdf603TvNPI1/q3Lvq68vE179vmhddgFlS+tTsyo1WthPfV2b9bMcbVU0p13TrZmXwYeLr3zfNiy7APKnlqs3lgbJS+r35wdmkrvkPXTpbWbyN+Pr3TfOiC9AlLg+YWVLLgNFp/u65aP4uVyYXE1//vmledAH6xildszouGbWT58/Z98rnfOLr3zfNiy5ArtRytefywDBxmr/NnDlXBZTTs4mvf980L7oAuePyQFupZeDnNP8wefocdVBezyC+/n3TvOgCDJnSp4JdHrC2pl+eOGtBlN33EV//vmledAHGSC1XiS4PrB9nd8zqHDVbWTSAo4mvf9+E8g5WWvFl4HWkabW3ALfHNqcodwG/Qeqbfwl8JrY5kjQN0SOwIVP6NPF6nEK2fubx4xJAHJcAJiC6ALlTwzTxvFraRGb9zDx5+hx1UF5uApyA6ALkSg3r/H1NeX3Z+pku8WeAcZ5DfP37pnnRBeib0m8ENIQpTS/XPM3flTcCyhdvBBTnx4mvf980L7oAXTLFaeKuapxetn6PqrF+JeVl83e5MnkF8fXvm+ZFF2CetDBN3FUN08vWb2011K/E/FqXzlYWbye+/n3TvOgCzJIWp4m7KnF5wPrNrsT6lZwPdetmZXAt8fXvm+ZFF2Ct1HBv9y3LKVXk9HIN0/w11M+bQ62f7Z17V319hfj6903zoguwOjuBd1D+B/PKF2sNX3RjTi/XMM1fW/22kP4mdhL/91la7sMbqkVYAO4nvv5907zoAqyk9GniWaZmp3AM1q/uY2gxZ/fpVHWylfi650jzIju/hmn+LlfPtV0Fd61fDVfPU66fywMpv9yzLzW/NxFf9xxpXkSn1/IB6xek9Zti/aaWP+zdi5rXp4ive440b8zObnmKdQrHPoVjaLl+U819wJH9u1AzOoLU59F1z5HmDd3Be0k/FzlvrAPqwE1yh6ptk5z1O9R5pL+5lm4utJij4zSTFxJf71xp3lAdW8MHpT+TW18NP5OzfmtraXngfZn6TI/vg8TXO1eal7tDd1D2vflLnCotfXq5JNZvfivPHthBfF8NlXspt/+n5FimM/1/IHPfVClXR+4mfQiW+pvcGq6Gapg1iWL9+lsALiX9rUb31RB5Rb6u0hpeRXydc6Z5OTpxN/CCsRs+oxoftlLD9PJYrF9+i0zz54P/J2Mf6fA+TXydc6Z5OTrx0tFbvb4Sp4m7pvTp5SFYv+FdSnzf5M5+4Nk5O0mHOJvUx9F1zpnm9e3Amyhn2r+GaeKuKX16OQfrN54Fprkn4CM5O0mH+Bjx9c2d5vXtwNeP3+THqHGauGtKn17uwvrFuIL4/hiif0/L2UkC4EeAfcTXN3ea17cDTx+/ycC0pom7ptTp5VlYv/j6nTFDG2vM1Tk7SQBcQ3xdh0jz+nbgMSO3d8rTxF1T2vTyeqxfOfXblKHtJWYfcG7UuoQzAAAO3klEQVTGfmrdVtLMSnRdh0ioUtbO+9gw8vuFF61ATyZ9qX6TcqaXV1uZ5v8W6cvu5NjmiPH/dseyALyLaXy+Rlvpy43RDdEw+o6gXAIoM9HTy2CNSq/RVJcAVvK6fF3VrMuIr+OQaV7fDixlE6CPRj18IqaXneZfOyU9AnuKmwAPzj8AT8rWW+15MnA38XUcMs3r24E7KGeq7Sn4xbNWxth93tJu/nlT2j6NBeBm4vtl6FzPdJc6hrTAdB75u16al6MTLxu91etz6nn95Jx6tq/H6+ucpj61e3B+JVOfteRXia/bGGlejk7cA1wwdsNn5PLA2ulzVeo0/9opaZr/cC6krb+Hh4Hzs/RcG36C1GfRdRsjzcvVkbtJVxWlLAes5vLA2plnecBp/rVT2jT/agvA5bT15b+Sb5EGrVrfFtr6jGxe7g69mbIfB7zyaNTtxJ98JWY78AbgTGDzcs5c/mf22dp9VsM538Ka/3q5ETihZ19O2QlM8/bQ66V5Q3Vs6VdD4PKA6Z7Sp/nBZZrDZRvj37ysBkcBf0J8fcZO84bu4L3AtcB5Yx1QB35QmllTw8D2PNLfnMs0h8/v441tDrYR+DjxdYlI88bs7FJ3RK9wR7tZK56708onKLeWYzoauI74ekSleRGdXsNVlJvdTElP7luLs1fds4229wRsBj5NfB0i07zIzvcD1pQYB6jt5BbafC7FSaRNkdH9H53mRRdgJU6xmuh4DraZ24Afn6MOtTuX9OCw6H4vIc2LLsDqePVlxoyzUOYA6cY3b6fc+5jksAG4Cj+3Dk7zoguwVvz1gBkyNQw03c0/fq4nPQRnap5MG/f2nzfNiy7ALCl9anblRitfIr6vzPop/aY9TvPH57ukK+Up/FRwgXS+/z3x/VpimhddgHlSw1WbNxcqL07zmy75MvC89YpWuB8Fvkh8P5ac5kUXoEtqWB5YefbAbcT3V6upYcDoNH/ZeQT4HeD0tQpYoB8h7VHaR3z/lZ7mRRegb0pfHnBK13NiNc+J+rKPNIt0zmHqWYqzSF/8jxDfX7WkedEFyJWdwDtIT7MqlcsDw6WGaf4tpHN0J/H9ZbplP/DHwCuBY4l3LPAq0g199hPfP7WledEFyB2XB9qK0/wmKvcBHwAuBI5gPEcCLwQ+uNyG6H6oOc2LLsCQcSp4urG2pqTsIj1N782kmwrlHBAsAM8ine8fBe4p4HinklAbohtAAZ0wgjuB9wC/DdwR3Ja1bCX9gb8aH1e6ln2k3zL/FvCZ4LasZQtwKamWTwlui+I8ANwKfP2g3Lb8z+8nfYk/sPz/3QycCDxhOU8Ffpi08fC05Wwese0tCf0OHnPaSGX7MvA64K3AJcCVtHmP8sO5C7gaeBfpQ1R6PPdy6JfvrTz6Bbyb9Fv/XaRlmWh3LyfCUcBxwPcs/+dxpOW000gDkB9e/u8tPzRp0qKnYIZM6dPE63EK2fqZ2XM/j07Bb2Xat/SNcAqPLkHcTXy9c6V50QXInRo2Ac6rpV8P1LCbf15uAhwmd5OW9c5nGnftq8VG4CdIn0nfJf486JPmRRcgV2r4GWBfK78emOLd4mrYzd+XPwPsn5Xf47+Ucm/n3JJjSDNdn6TOGw81L7oAfVPzNHFXU5petn5mluwjTT+f0aG/NY4zSDciepj482XWNC+6AF0yxWn+rmpcHpjiNH9XLg+sn4dJ5/cpXTtYo3sm8F7qGAg0L7oA86SFaeKuaniYjPVbWw31GzufJ93eVnV6NvAF4s+j9dK86ALMkhanibsqcXrZ+s2uxPqNnX8gPY7Xnfz120C6t8mdxJ9Xh0vzoguwVmqY5t9C2ZsOI5cHapjmL71+LS4PfBx4Yo7OU1G+F/gE8efX6jQvugCrU8M08VbSZpe91PFFN+b0svXLr4Xlgb3Lx1jC3VE1nF8AHiL+fFtJ86ILsJLtpKmiUn/aM8vUbOlT3UNOL0/h2Es/hqNJfyPbif97zZm/oezH7Cqvc4FvEH/eHRj6QGsQ2fl7ST/tmdrVV21XwV3rN9Wr51rqV9uvPw6XLwFPytw3Kt8Tgb8g/vxrXkSn1/IB6xek9Zti/UrJZ0gPv1GbjiM93CvyHGzemJ1d+hSrU+R1T5Fbv3p+PfB7pOfaq21HAR8m7jxs3tAdXMNufjfJHcpNcnXXr/RfD3wIf+KnRy0QNwhoXssflDmmibumhi/W0n8mZ/3WV+LywGcod6Ov4hxJzHJA83J36A7q380/dkqfXi6J9Zvfyq8HdhDbT39JWveVDmczaVPomOdk83J15G7Sh2CpU3slXg2tTg2zJlGsX38LwKWkv9Wx++ZvgO8b/hBVuScB32S887J5OTpxN/CCsRs+o8hp4q6pYXp5LNYvv0XG/fngg/g7f83uXMa7WVDzcnTipaO3en0lThN3TenTy0OwfsO7lPH64MqRjknT8QbGOTeb17cDb6Kcaf8apom7pvTp5Rys33gWGGdPwMfx9r6a3wbGeXZA8/p24OvHb/Jj1DhN3DWlTy93Yf1iXMGwx3onPthH3X0v8PcMe442r28Hnj5+k4FpTRN3TanTy7OwfvH1O2OGNvbJa8Y7FE3UzzPsOdq8vh14zMjtnfI0cdeUNr28HutXTv02ZWj7Wvk8Tv2rvw0M+8yAUKWsnfcx9h95eNEK9GTSl+o3KWd6ebWVaf5vkb7sTo5tjhjub/cRHl1ekPo4ALyOdE5pAH1HUC4BlJno6WWwRqXXaKglgHePeRBqwvsZ5lxtXt8OLGUT4BQejTpEIqaXneZfOyU9AnuITYAPA6eMeRBqwqmkWYDc52vz+nbgDspZyngKfvGslTF2n7e0m3/elLZPYwG4mfzHec2YB6Gm/B75z9fm5ejEy0Zv9fqcel4/Oaee7evx+jqny8h/rPtIywrSEM4E9pP3nG1ejk7cA1wwdsNn5PLA2ulzVeo0/9opaZr/cC5kmL+HPxzzINSk68l7zjYvV0fuJl1VlLIcsJrLA2tnnuUBp/nXTmnT/KstAJcz3GD4peMdihr1cvKes83L/SFwM2U/Dvho4GeB7cR/YZSY7aT7cJ9Jejzn5uX//gb7bN0++1nKPudfzTBr/iu5m3KPX9OxCbiHfOdt84b6QCj9aghcHjDdU/o0P4y7TPO/Rjom6X3kO2+bN8YH5bXAeWMdUAcuD5hZU8PA9jzS39yYyzTnj3JkUnr0fK7ztnljfniWuiN6hTvazVrx3F073wU2Dn+IEgBHAPeS59xtXsSHaQ1XUS4PGKf5Z8snBj9K6VCfJM+527zID9iSHo26FpcH2kstA9RSfo1x1cDHKq32RvKcu82L/vBYiVOsJjqeg91y1pAHLR3Gc8lz7jYv+sNjdXYC7wC2DHnQPbk8MJ3UMM2/hfQ3sZP4/lqde/CxvxrfAnAf/c/f5kV/gKyVGpYHSlh/Nd3iNH+e/NVgRy+t7wb6n7/Ni/4AmSVOzRrPpTLzu8N0g/S4cjwcqHnRHyDzpJarNpcHykoN0/y1zib9+yE6Q5rBW+l//jYv+gOkS1weMLOklgFj6dP868X7/ytKjucCNC/6A6RvtlP2swdqm9KdQkqf5l+5N/8Unq1Q8h0+NW3Pp//527zoD5BcqeVqz+WBYeI0f0yelbWHpNk9m/7nb/OiP0Byx+WBtlLLwK/maf718vSM/STN4xn0P3+bF/0BMmRKnwp2ecDa1p4n5uowaU7fR//zt3nRHyBjpJarRJcH1o/T/OXlqDzdJs3taPqfv82L/gAZMy4P1JlaBnBTneY3ZqppXnQBouIUcvmxRsaYIdO86AJEx6vLsuIsjTFmrDQvugClxC+e2DgQM8aMneZFF6DEOPVsX6+YUl8bYw5N86ILUHK8Kh0mzrYYY0pI86ILUEP8wsoTB1TGmJLSvOgC1BanrO0zY8w00rzoAtQar2bXj7MmxpjS07zoAtQev+gOjQMjY0wtaV50AaaUlqe6Wz52Y0ydaV50AaaYVq6Cnf0wxtSc5kUXYMqZ6hdkKwMcY8y007zoArSSKUyRT+EYjDFmJc2LLkBrqe3qeaqzGMYYE2pDdAMooBMatQ/4FPBbwGeC27KWLcv/eUdoK9a2FbgKuBg4MrgtkuoT+h3sAEAAXwHeDVwD7AluS+mOAn4G+CXg+cFtkVQ3BwDRDdA/ugu4GngXcFtwW0pzEvAa4Erg5OC2SJoGBwDRDdBj1LA8MBan+SUNxQFAdAO0rhaXB5zmlzQGBwDRDdBMWlgecJpf0pgcAEQ3QHOZ4vKA0/ySIjgAiG6AOqt5ecBpfknRHABEN0C91bQ84DS/pFI4AIhugLIpeXnAaX5JpXEAEN0ADaKE5QGn+SWVzAFAdAM0qIjlAaf5JdXAAUB0AzSKMZYHnOaXVBMHANEN0OhyLg84zS+pVg4AohugMH2WB5zml1Q7BwDRDVC4eZYHnOaXNBUOAKIboKLcAHwY+BPgb5f/2Q8CLwJeCZwT0ipJyq/5AcBDpHVcSZJa8RBwTGQDFiLffNl90Q2QJGlk90Y3oIQBwDejGyBJ0si+Ed2AEgYAN0U3QJKkke2IbkAJA4DPRjdAkqSR/Wl0A0rYBLgZ2AkcF90QSZJGsIt0L5MHIhtRwgzAA8BHohshSdJIPkzwlz+UMQMAcCrwNbyxiyRp2vYCP0IBmwA3Rjdg2d3AE4DzoxsiSdKA/gvw+9GNgHJmACDdEGEJeF50QyRJGsAXgQtINwEKV9IAANKmiC8BT4tuiCRJGd0BnAvcHt2QFSVsAjzYTuBfAN+ObogkSZncBvw0BX35Q3kDAICbgR8FPhfdEEmSevoi6cr/luiGrFbKJsDVdgPXAvtJT3/zYUGSpJrsBX4TeC0F3Pf/cEodAEB6Rvw24AOkmwSdgQMBSVLZdgEfBF5B2u2/L7Q16yhtE+B6NgMvIe2gPBt4BnAiDgokSTH2AveQHmp3I+mXbH9EATf5kSRJkiRJkiRJkiRJkiRJkiRJkiRJkiRJkiRJkiRJkiRJkiRJkiRJkiRJkiRJkiRJkiRJkiRJkiRJkiRJkiRJkiRJkiRJkiRJkiRJkiRJkiRJkiRJkiRJkiRJkiRJkiQpl/8PH+XA/fTlbr0AAAAASUVORK5CYII=;" parent="1" vertex="1">
          <mxGeometry x="1979" y="272" width="48" height="48" as="geometry" />
        </mxCell>
      </root>
    </mxGraphModel>
  </diagram>
</mxfile>
